<svg width="98" height="312" viewBox="0 0 98 312" fill="none" xmlns="http://www.w3.org/2000/svg">
<path d="M194.29 55.8174C202.384 60.9108 210.987 61.5578 216.319 57.7437C226.035 50.7881 223.621 29.9285 214.371 20.0846C202.756 7.72327 180.018 12.3653 169.657 24.5054C154.737 41.9851 163.196 77.691 182.227 90.6519C204.426 105.767 239.374 88.8223 252.409 61.3036C264.284 36.2415 258.346 1.65674 236.704 -15.1058C210.589 -35.3264 175.356 -18.9587 158.22 -0.694927C132.305 26.922 132.962 74.6636 153.319 107.206C171.759 136.678 206.856 154.478 235.714 147.085C288.151 133.648 316.54 37.9161 279.589 -13.4454C258.827 -42.301 222.539 -51.8972 194.555 -49.2134C191.609 -48.9289 140.089 -43.0705 117.053 4.45987C92.4773 55.1674 122.087 108.413 129.633 121.986C136.412 134.178 162.244 180.627 211.095 188.563C270.252 198.17 311.613 142.921 316.984 135.504C352.897 85.9082 360.611 2.37754 313.435 -56.1692C274.397 -104.615 209.858 -120.96 158.248 -99.3886C104.795 -77.0443 85.8977 -22.6699 81.4276 -9.82025C57.9214 57.8049 80.5678 132.278 120.21 179.376C127.98 188.609 188.486 258.504 256.018 241.271C299.073 230.283 321.563 189.854 340.489 155.84C356.775 126.567 383.097 79.2524 372.942 16.2315C359.787 -65.3756 296.203 -106.693 288.538 -111.495C272.822 -121.34 222.158 -149.531 160.555 -131.961C152.859 -129.766 94.7496 -112.133 63.3123 -51.2747C25.5176 21.896 55.4996 100.975 68.0321 134.031C78.32 161.163 122.714 278.253 214.564 289.181C291.959 298.391 349.333 225.835 365.644 205.21C379.864 187.223 415.4 140.91 418.269 69.9252C418.684 59.6482 420.995 -33.0521 353.365 -99.8878C310.841 -141.913 263.644 -150.999 235.447 -156.429C203.674 -162.545 141.429 -174.531 86.4446 -135.875C51.689 -111.443 35.9564 -78.1112 26.4639 -57.9959C17.5016 -39.0133 -9.88153 19.0049 5.66694 86.2768C12.1517 114.332 30.2371 140.215 66.4147 191.984C104.317 246.227 123.273 273.346 148.816 288.5C205.624 322.191 265.8 307.322 278.121 304.282C361.482 283.687 402.439 209.456 413.798 185.655" stroke="white" stroke-opacity="0.4" stroke-width="2" stroke-miterlimit="10"/>
</svg>
