<svg width="100" height="306" viewBox="0 0 100 306" fill="none" xmlns="http://www.w3.org/2000/svg">
<path d="M194.402 41.6918C202.495 46.9543 211.098 47.6229 216.43 43.6821C226.146 36.4954 223.732 14.9429 214.483 4.77201C202.868 -7.9999 180.13 -3.20371 169.768 9.33972C154.848 27.4 163.308 64.2919 182.338 77.6833C204.537 93.301 239.485 75.793 252.52 47.3602C264.395 21.4656 258.458 -14.2679 236.815 -31.5873C210.701 -52.4795 175.467 -35.5682 158.331 -16.6977C132.416 11.8366 133.074 61.164 153.43 94.7873C171.87 125.238 206.967 143.63 235.825 135.991C288.262 122.108 316.652 23.1958 279.7 -29.8718C258.938 -59.6859 222.651 -69.6008 194.666 -66.8278C191.72 -66.5338 140.2 -60.4809 117.165 -11.3717C92.5886 41.0202 122.198 96.0342 129.745 110.058C136.523 122.655 162.356 170.647 211.206 178.846C270.363 188.773 311.724 131.689 317.095 124.025C353.009 72.7821 360.722 -13.5232 313.546 -74.0146C274.509 -124.07 209.97 -140.958 158.359 -118.67C104.907 -95.5832 86.009 -39.4026 81.5389 -26.1262C58.0327 43.7452 80.6791 120.692 120.321 169.355C128.092 178.895 188.598 251.111 256.129 233.306C299.184 221.953 321.675 180.181 340.6 145.036C356.886 114.792 383.208 65.9052 373.053 0.790947C359.898 -83.5269 296.314 -126.217 288.649 -131.179C272.934 -141.35 222.27 -170.477 160.666 -152.324C152.97 -150.056 94.8609 -131.838 63.4237 -68.9576C25.6289 6.64361 55.6109 88.3493 68.1434 122.503C78.4313 150.536 122.825 271.516 214.675 282.807C292.07 292.323 349.444 217.356 365.756 196.047C379.975 177.463 415.512 129.611 418.381 56.2681C418.795 45.6498 421.106 -50.1297 353.476 -119.185C310.952 -162.607 263.755 -171.994 235.559 -177.605C203.785 -183.924 141.541 -196.308 86.5559 -156.368C51.8003 -131.124 36.0677 -96.6855 26.5752 -75.902C17.6129 -56.2889 -9.7702 3.65651 5.77827 73.1629C12.263 102.15 30.3485 128.893 66.526 182.382C104.429 238.426 123.385 266.446 148.927 282.103C205.736 316.913 265.911 301.55 278.232 298.41C361.593 277.131 402.55 200.434 413.91 175.842" stroke="white" stroke-opacity="0.4" stroke-width="2" stroke-miterlimit="10"/>
</svg>
