<svg width="187" height="554" viewBox="0 0 187 554" fill="none" xmlns="http://www.w3.org/2000/svg">
<path d="M364.877 75.1151C380.052 84.6709 396.183 85.8848 406.18 78.7291C424.398 65.6794 419.872 26.5441 402.529 8.07566C380.75 -15.1157 338.117 -6.40676 318.689 16.3698C290.714 49.1639 306.576 116.153 342.258 140.469C383.881 168.828 449.408 137.037 473.849 85.4079C496.115 38.3881 484.982 -26.4973 444.403 -57.9461C395.438 -95.8825 329.374 -65.1746 297.245 -30.9094C248.654 20.9036 249.887 110.473 288.055 171.527C322.63 226.82 388.438 260.215 442.546 246.345C540.866 221.135 594.096 41.5299 524.812 -54.831C485.883 -108.968 417.843 -126.972 365.372 -121.936C359.85 -121.402 263.249 -110.412 220.058 -21.2383C173.977 73.8956 229.495 173.791 243.645 199.256C256.355 222.129 304.791 309.273 396.385 324.162C507.305 342.186 584.856 238.533 594.927 224.617C662.265 131.569 676.727 -25.145 588.273 -134.986C515.077 -225.877 394.067 -256.542 297.297 -216.071C197.074 -174.151 161.641 -72.1372 153.259 -48.0297C109.185 78.8438 151.647 218.564 225.976 306.928C240.546 324.25 353.994 455.381 480.616 423.05C561.344 402.435 603.514 326.585 639 262.77C669.536 207.851 718.889 119.082 699.848 0.84681C675.183 -152.259 555.963 -229.776 541.591 -238.785C512.124 -257.255 417.129 -310.144 301.622 -277.182C287.193 -273.063 178.238 -239.982 119.293 -125.804C48.4279 11.4741 104.644 159.836 128.143 221.853C147.432 272.756 230.671 492.432 402.889 512.936C548.005 530.214 655.581 394.089 686.166 355.395C712.827 321.65 779.458 234.761 784.838 101.583C785.614 82.3021 789.948 -91.6156 663.142 -217.008C583.408 -295.853 494.915 -312.899 442.046 -323.087C382.471 -334.562 265.763 -357.047 162.666 -284.524C97.4993 -238.687 68.0007 -176.152 50.2024 -138.413C33.398 -102.8 -17.9453 6.0501 11.208 132.261C23.3669 184.895 57.2771 233.456 125.11 330.581C196.178 432.348 231.72 483.228 279.612 511.658C386.128 574.866 498.957 546.97 522.059 541.267C678.361 502.628 755.156 363.362 776.454 318.707" stroke="white" stroke-opacity="0.4" stroke-width="3" stroke-miterlimit="10"/>
</svg>
