<svg width="111" height="144" viewBox="0 0 111 144" fill="none" xmlns="http://www.w3.org/2000/svg">
<path d="M199.401 -33.7948C192.009 -34.6074 185.577 -32.0442 182.852 -27.4259C177.886 -19.006 185.874 -4.86118 195.525 -1.04088C207.644 3.75639 222.744 -7.58385 226.627 -19.9577C232.22 -37.7743 215.408 -60.4629 197.733 -63.081C177.115 -66.1327 156.84 -41.6509 155.616 -17.2815C154.5 4.91368 169.147 27.6842 189.853 32.1158C214.837 37.4589 235.492 13.2915 242.456 -5.86853C252.99 -34.8422 238.237 -68.9286 213.745 -85.1558C191.56 -99.8504 160.787 -100.292 142.072 -84.82C108.065 -56.7039 116.106 22.1035 158.259 46.0172C181.943 59.4513 211.127 53.5766 230.617 41.7972C232.668 40.5559 268.275 18.2103 270.766 -24.0641C273.424 -69.1645 236.031 -97.0165 226.5 -104.117C217.939 -110.495 185.318 -134.791 147.521 -123.301C101.751 -109.384 88.2797 -55.1115 86.6028 -47.8891C75.3908 0.402626 94.7756 63.1617 146.492 88.6415C189.286 109.725 240.974 98.7573 271.948 65.0848C304.027 30.2087 301.471 -15.5289 300.87 -26.339C297.694 -83.2236 259.002 -128.785 216.173 -148.688C207.777 -152.59 143.001 -181.534 99.1843 -145.377C71.2491 -122.324 67.0297 -85.3456 63.4771 -54.2335C60.4207 -27.4592 55.4822 15.8169 81.691 57.5435C115.633 111.575 174.095 118.894 181.09 119.648C195.429 121.193 240.598 123.624 280.016 89.3111C284.939 85.0243 321.804 51.8957 326.402 -2.91671C331.929 -68.8171 286.541 -115.108 267.568 -134.458C251.995 -150.34 184.79 -218.881 114.918 -194.407C56.0416 -173.785 36.1337 -101.435 30.4728 -80.8681C25.5403 -62.9337 13.6202 -17.1343 32.7662 34.9018C35.539 42.435 61.5827 109.884 130.61 134.122C174.013 149.363 210.954 139.282 233.024 133.261C257.893 126.473 306.613 113.179 334.926 66.0384C352.823 36.2427 354.264 6.74515 355.132 -11.0555C355.955 -27.8553 358.463 -79.1989 327.072 -122.083C313.98 -139.967 293.126 -152.207 251.412 -176.686C207.707 -202.336 185.852 -215.158 162.798 -217.06C111.53 -221.282 72.34 -189.413 64.3147 -182.891C10.0246 -138.745 2.52175 -70.9692 1.40199 -49.8616" stroke="white" stroke-opacity="0.4" stroke-width="2" stroke-miterlimit="10"/>
</svg>
