<svg width="437" height="1086" viewBox="0 0 437 1086" fill="none" xmlns="http://www.w3.org/2000/svg">
<path d="M-126.264 524.969C-128.459 549.723 -119.957 571.099 -105.108 579.978C-78.0357 596.154 -33.4221 568.734 -21.7701 536.275C-7.13823 495.515 -44.0461 445.603 -83.6502 433.244C-140.674 415.447 -212.023 472.799 -219.422 532.027C-228.046 601.112 -149.021 667.662 -71.3638 670.522C-0.635454 673.134 71.0888 623.013 84.1011 553.562C99.7887 469.765 21.7446 401.928 -39.6298 379.612C-132.44 345.856 -240.189 396.902 -290.557 479.607C-336.168 554.519 -335.942 657.427 -285.687 719.216C-194.363 831.491 56.1326 800.63 130.038 658.49C171.557 578.627 151.304 481.355 112.765 416.788C108.704 409.994 35.6678 292.074 -99.0654 285.88C-242.806 279.271 -329.503 405.694 -351.606 437.918C-371.459 466.863 -447.087 577.155 -408.499 702.941C-361.761 855.263 -188.244 897.561 -165.159 902.803C-10.8038 937.85 187.993 869.871 266.378 695.68C331.238 551.539 293.576 379.285 184.721 277.427C71.975 171.938 -73.5175 182.793 -107.905 185.348C-288.856 198.841 -431.873 330.499 -492.971 474.699C-504.949 502.965 -593.674 720.993 -476.226 865.662C-401.343 957.894 -283.382 970.134 -184.133 980.44C-98.7219 989.306 39.3306 1003.63 170.798 913.9C341.033 797.692 361.238 601.864 363.268 578.442C367.426 530.421 372.772 379.286 261.429 249.232C247.519 232.987 140.083 111.408 -34.6825 98.8029C-244.802 83.6538 -389.784 237.738 -450.388 302.146C-500.131 355.015 -714.803 583.165 -633.173 815.535C-564.39 1011.34 -332.972 1074.24 -267.187 1092.13C-209.823 1107.71 -63.3657 1145.25 101.301 1078.62C125.14 1068.96 338.516 978.486 412.031 746.481C458.256 600.601 424.198 477.604 403.856 404.12C380.926 321.317 336.015 159.101 184.418 66.8236C88.5995 8.49266 -5.39666 5.16383 -62.1197 3.15952C-115.654 1.25748 -279.264 -4.53336 -414.142 102.583C-470.39 147.255 -508.255 217.596 -583.985 358.297C-663.337 505.712 -703.003 579.428 -707.837 656.599C-718.562 828.22 -615.012 957.635 -593.821 984.137C-450.381 1163.42 -234.187 1185.08 -166.921 1187.76" stroke="white" stroke-opacity="0.4" stroke-width="3" stroke-miterlimit="10"/>
</svg>
