<svg width="473" height="324" viewBox="0 0 473 324" fill="none" xmlns="http://www.w3.org/2000/svg">
<path d="M498.097 -98.3618C479.56 -100.302 463.429 -94.1807 456.594 -83.151C444.141 -63.0418 464.173 -29.2598 488.376 -20.1358C518.768 -8.67851 556.636 -35.7623 566.375 -65.3147C580.399 -107.866 538.239 -162.053 493.912 -168.306C442.207 -175.594 391.361 -117.124 388.293 -58.9231C385.492 -5.91456 422.225 48.468 474.152 59.052C536.806 71.8128 588.605 14.094 606.07 -31.6656C632.488 -100.863 595.49 -182.272 534.068 -221.027C478.433 -256.122 401.26 -257.176 354.326 -220.225C269.044 -153.075 289.207 35.1398 394.92 92.2525C454.316 124.337 527.502 110.307 576.38 82.174C581.523 79.2094 670.82 25.8416 677.067 -75.1219C683.733 -182.835 589.959 -249.354 566.056 -266.312C544.587 -281.544 462.778 -339.57 367.991 -312.128C253.209 -278.891 219.425 -149.272 215.22 -132.023C187.102 -16.6883 235.715 133.199 365.41 194.052C472.73 244.406 602.353 218.211 680.031 137.792C760.479 54.4974 754.069 -54.7373 752.562 -80.555C744.596 -216.412 647.566 -325.227 540.156 -372.76C519.102 -382.079 356.656 -451.207 246.772 -364.852C176.715 -309.794 166.134 -221.48 157.225 -147.175C149.56 -83.2305 137.175 20.1254 202.902 119.781C288.022 248.823 434.635 266.304 452.175 268.105C488.136 271.794 601.41 277.6 700.262 195.651C712.61 185.413 805.061 106.292 816.592 -24.6158C830.451 -182.005 716.627 -292.561 669.048 -338.774C629.992 -376.705 461.455 -540.403 286.229 -481.951C138.578 -432.7 88.6525 -259.906 74.456 -210.786C62.0861 -167.954 32.1928 -58.5715 80.2074 65.7058C87.161 83.6972 152.474 244.785 325.581 302.674C434.428 339.074 527.069 314.996 582.417 300.615C644.784 284.405 766.965 252.655 837.967 140.069C882.85 68.9082 886.464 -1.5405 888.642 -44.0536C890.705 -84.1764 896.993 -206.8 818.27 -309.219C785.439 -351.932 733.141 -381.164 628.529 -439.627C518.925 -500.887 464.117 -531.509 406.304 -536.053C277.731 -546.136 179.451 -470.022 159.325 -454.446C23.1758 -349.013 4.36001 -187.145 1.55184 -136.734" stroke="white" stroke-opacity="0.4" stroke-width="3" stroke-miterlimit="10"/>
</svg>
