<svg width="48" height="265" viewBox="0 0 48 265" fill="none" xmlns="http://www.w3.org/2000/svg">
<path d="M-61.3487 143.626C-64.4585 139.273 -68.848 136.968 -72.5258 137.592C-79.2297 138.732 -82.6976 149.45 -80.0576 156.385C-76.7424 165.092 -63.6983 168.091 -55.4759 164.575C-43.6364 159.513 -39.9825 140.166 -47.0713 129.451C-55.3412 116.954 -77.6195 117.122 -90.7465 127.51C-102.704 136.969 -107.433 155.187 -99.8306 168.358C-90.6562 184.247 -68.3585 184.426 -55.1726 179.495C-35.2318 172.039 -24.7288 148.634 -28.0667 128.076C-31.0919 109.456 -45.5526 92.667 -62.4488 89.5922C-93.1514 84.0064 -129.877 124.065 -122.065 157.629C-117.676 176.486 -100.723 189.554 -85.3574 194.72C-83.7396 195.263 -55.2428 204.328 -32.2949 186.507C-7.81264 167.495 -11.3245 134.713 -12.219 126.356C-13.0225 118.85 -16.0873 90.2514 -40.0415 75.0856C-69.0504 56.7218 -103.415 74.0627 -107.933 76.4327C-138.14 92.2803 -161.19 131.18 -149.621 170.608C-140.047 203.234 -109.732 226.124 -77.6163 227.557C-44.3543 229.039 -22.0327 206.928 -16.7555 201.703C11.0073 174.204 15.9911 132.694 5.79249 100.584C3.79357 94.2896 -12.2256 46.251 -51.7497 39.022C-76.9489 34.4139 -97.9956 48.9022 -115.705 61.0908C-130.945 71.5804 -155.576 88.5361 -164.544 121.579C-176.154 164.369 -152.017 199.202 -149.067 203.314C-143.018 211.744 -122.71 237.194 -86.2353 242.888C-81.6788 243.599 -47.0317 248.453 -16.6247 226.084C19.9324 199.19 22.0951 153.739 22.9993 134.74C23.7408 119.145 26.9429 51.8473 -19.0038 25.277C-57.7196 2.88783 -104.461 24.954 -117.749 31.2258C-129.334 36.6968 -158.597 51.0329 -176.242 84.9424C-178.796 89.852 -201.082 134.467 -180.611 182.664C-167.739 212.969 -144.919 228.312 -131.285 237.48C-115.922 247.809 -85.8253 268.045 -48.0481 261.937C-24.1699 258.078 -8.29942 245.483 1.27716 237.882C10.3168 230.71 37.9406 208.787 45.0305 172.425C47.987 157.261 44.3332 140.471 37.0227 106.888C29.3647 71.701 25.5329 54.1075 15.5088 40.8182C-6.78849 11.2677 -41.8969 4.5894 -49.0842 3.21975C-97.719 -6.0333 -136.185 20.646 -147.583 29.6108" stroke="white" stroke-opacity="0.4" stroke-width="2" stroke-miterlimit="10"/>
</svg>
