<svg width="331" height="570" viewBox="0 0 331 570" fill="none" xmlns="http://www.w3.org/2000/svg">
<path d="M416.19 314.627C403.645 323.911 397.147 336.811 399.165 347.484C402.85 366.938 434.328 376.465 454.434 368.412C479.682 358.299 487.746 320.169 477.044 296.42C461.636 262.224 404.952 252.614 374.043 273.818C337.993 298.555 339.667 363.397 370.693 401.059C398.947 435.364 452.391 448.164 490.442 425.336C536.349 397.786 535.687 332.868 520.589 294.746C497.761 237.094 428.868 207.761 369.018 218.568C314.813 228.363 266.562 271.348 258.481 320.696C243.801 410.368 362.713 515.149 460.296 490.63C515.121 476.852 552.377 426.809 566.646 381.806C568.145 377.068 593.1 293.632 539.849 227.777C483.04 157.518 387.508 169.48 363.157 172.527C341.284 175.265 257.945 185.703 214.936 256.239C162.857 341.658 215.313 440.772 222.472 453.797C270.347 540.891 385.147 605.926 499.654 570.156C594.406 540.556 659.632 451.094 662.111 357.529C664.673 260.625 598.928 196.82 583.394 181.735C501.63 102.377 380.164 90.0715 286.953 121.463C268.68 127.616 129.269 176.796 110.26 292.234C98.1427 365.833 141.562 426.332 178.09 477.237C209.526 521.043 260.34 591.846 357.295 616.198C482.847 647.723 583.269 575.614 595.118 566.808C619.411 548.751 692.642 488.286 707.331 381.806C709.164 368.504 721.499 267.389 654.574 180.061C574.108 75.0704 441.287 71.1862 385.767 69.5622C340.195 68.2312 143.53 62.4802 68.3896 197.641C5.07337 311.53 71.9821 446.422 90.9996 484.771C107.589 518.205 151 602.628 250.944 652.193C265.415 659.367 396.862 721.875 536.5 659.727C624.302 620.651 667.889 553.406 693.932 513.233C723.275 467.961 780.763 379.278 760.925 269.632C748.389 200.328 710.772 154.797 688.07 127.323C666.649 101.389 601.173 22.1397 494.629 3.43018C450.197 -4.37172 401.367 7.15534 303.701 30.2178C201.37 54.3769 150.204 66.4649 111.935 96.3498C26.8376 162.825 9.20178 265.38 5.58419 286.375C-18.8513 428.441 61.0875 538.999 87.8677 571.705" stroke="white" stroke-opacity="0.4" stroke-width="2" stroke-miterlimit="10"/>
</svg>
