<svg width="768" height="528" viewBox="0 0 768 528" fill="none" xmlns="http://www.w3.org/2000/svg">
<mask id="mask0_1719_12" style="mask-type:alpha" maskUnits="userSpaceOnUse" x="0" y="0" width="768" height="528">
<rect width="768" height="528" fill="white"/>
</mask>
<g mask="url(#mask0_1719_12)">
<path d="M608.569 355.819C600.606 362.356 596.481 371.438 597.762 378.953C600.101 392.651 620.084 399.358 632.847 393.688C648.875 386.568 653.994 359.721 647.201 343C637.419 318.923 601.435 312.157 581.814 327.086C558.929 344.503 559.992 390.157 579.687 416.674C597.624 440.828 631.55 449.84 655.706 433.767C684.848 414.37 684.429 368.662 674.844 341.821C660.352 301.229 616.618 280.577 578.624 288.186C544.214 295.082 513.583 325.347 508.453 360.092C499.134 423.228 574.621 497.003 636.569 479.74C671.372 470.038 695.023 434.804 704.082 403.118C705.033 399.782 720.875 341.037 687.071 294.669C651.007 245.201 590.362 253.624 574.903 255.769C561.018 257.696 508.113 265.046 480.81 314.709C447.75 374.851 481.049 444.635 485.594 453.806C515.986 515.127 588.863 560.917 661.554 535.732C721.704 514.891 763.111 451.903 764.684 386.026C766.311 317.797 724.575 272.873 714.714 262.252C662.808 206.378 585.7 197.714 526.528 219.816C514.928 224.148 426.427 258.775 414.36 340.053C406.668 391.873 434.231 434.468 457.42 470.309C477.376 501.153 509.633 551.004 571.182 568.149C650.885 590.346 714.634 539.575 722.156 533.375C737.578 520.662 784.066 478.089 793.39 403.118C794.555 393.753 802.385 322.56 759.9 261.074C708.818 187.152 624.501 184.417 589.256 183.273C560.327 182.336 435.48 178.287 387.78 273.451C347.586 353.638 390.061 448.614 402.133 475.614C412.664 499.155 440.222 558.595 503.669 593.493C512.855 598.544 596.3 642.555 684.944 598.798C740.682 571.285 768.352 523.939 784.885 495.654C803.512 463.779 840.006 401.338 827.413 324.139C819.455 275.343 795.575 243.286 781.164 223.942C767.565 205.682 726 149.884 658.364 136.711C630.158 131.218 599.16 139.334 537.16 155.572C472.198 172.582 439.717 181.093 415.423 202.134C361.402 248.938 350.207 321.145 347.91 335.927C332.398 435.954 383.145 513.795 400.145 536.823" stroke="white" stroke-opacity="0.4" stroke-width="2" stroke-miterlimit="10"/>
</g>
</svg>
