<svg width="792" height="615" viewBox="0 0 792 615" fill="none" xmlns="http://www.w3.org/2000/svg">
<path d="M497.3 376.15C482.32 387.24 474.56 402.65 476.97 415.4C481.37 438.64 518.96 450.02 542.97 440.4C573.12 428.32 582.75 382.77 569.97 354.4C551.57 313.55 483.88 302.07 446.97 327.4C403.92 356.95 405.92 434.41 442.97 479.4C476.71 520.38 540.53 535.67 585.97 508.4C640.79 475.49 640 397.94 621.97 352.4C594.71 283.53 512.44 248.49 440.97 261.4C376.24 273.1 318.62 324.45 308.97 383.4C291.44 490.52 433.44 615.69 549.97 586.4C615.44 569.94 659.93 510.16 676.97 456.4C678.76 450.74 708.56 351.07 644.97 272.4C577.13 188.47 463.05 202.76 433.97 206.4C407.85 209.67 308.33 222.14 256.97 306.4C194.78 408.44 257.42 526.84 265.97 542.4C323.14 646.44 460.23 724.13 596.97 681.4C710.12 646.04 788.01 539.17 790.97 427.4C794.03 311.64 715.52 235.42 696.97 217.4C599.33 122.6 454.28 107.9 342.97 145.4C321.15 152.75 154.67 211.5 131.97 349.4C117.5 437.32 169.35 509.59 212.97 570.4C250.51 622.73 311.19 707.31 426.97 736.4C576.9 774.06 696.82 687.92 710.97 677.4C739.98 655.83 827.43 583.6 844.97 456.4C847.16 440.51 861.89 319.72 781.97 215.4C685.88 89.9801 527.27 85.3401 460.97 83.4001C406.55 81.8101 171.7 74.9401 81.9699 236.4C6.35987 372.45 86.2599 533.59 108.97 579.4C128.78 619.34 180.62 720.19 299.97 779.4C317.25 787.97 474.22 862.64 640.97 788.4C745.82 741.72 797.87 661.39 828.97 613.4C864.01 559.32 932.66 453.38 908.97 322.4C894 239.61 849.08 185.22 821.97 152.4C796.39 121.42 718.2 26.7501 590.97 4.40012C537.91 -4.91988 479.6 8.85012 362.97 36.4001C240.77 65.2601 179.67 79.7001 133.97 115.4C32.3499 194.81 11.2899 317.32 6.96987 342.4C-22.2101 512.11 73.2499 644.18 105.23 683.25" stroke="white" stroke-opacity="0.4" stroke-width="3" stroke-miterlimit="10"/>
</svg>
