<svg width="99" height="100" viewBox="0 0 99 100" fill="none" xmlns="http://www.w3.org/2000/svg">
<path d="M49.5197 0.429932L49.5293 49.8268L68.4418 4.19373L49.5472 49.8343L84.4829 14.9122L49.5608 49.8479L95.2014 30.9533L49.5684 49.8658L98.9652 49.8754L49.5684 49.885L95.2014 68.7975L49.5608 49.9029L84.4829 84.8386L49.5472 49.9165L68.4418 95.5571L49.5293 49.9241L49.5197 99.3209L49.5101 49.9241L30.5976 95.5571L49.4922 49.9165L14.5565 84.8386L49.4786 49.9029L3.83802 68.7975L49.4711 49.885L0.0742188 49.8754L49.4711 49.8658L3.83802 30.9533L49.4786 49.8479L14.5565 14.9122L49.4922 49.8343L30.5976 4.19373L49.5101 49.8268L49.5197 0.429932Z" stroke="#D9F0FF" stroke-width="2"/>
</svg>
