<svg width="133" height="133" viewBox="0 0 133 133" fill="none" xmlns="http://www.w3.org/2000/svg">
<path d="M66.1333 0L66.1461 66.0683L91.4416 5.03408L66.1701 66.0784L112.897 19.37L66.1883 66.0965L127.233 40.8251L66.1984 66.1205L132.267 66.1333L66.1984 66.1461L127.233 91.4416L66.1883 66.1701L112.897 112.897L66.1701 66.1883L91.4416 127.233L66.1461 66.1984L66.1333 132.267L66.1205 66.1984L40.8251 127.233L66.0965 66.1883L19.37 112.897L66.0784 66.1701L5.03408 91.4416L66.0683 66.1461L0 66.1333L66.0683 66.1205L5.03408 40.8251L66.0784 66.0965L19.37 19.37L66.0965 66.0784L40.8251 5.03408L66.1205 66.0683L66.1333 0Z" stroke="#D9F0FF" stroke-width="2"/>
</svg>
