<svg width="134" height="133" viewBox="0 0 134 133" fill="none" xmlns="http://www.w3.org/2000/svg">
<path d="M67 0.733398L67.0128 66.8017L92.3083 5.76748L67.0368 66.8118L113.763 20.1034L67.055 66.8299L128.099 41.5585L67.0651 66.8539L133.133 66.8667L67.0651 66.8795L128.099 92.175L67.055 66.9035L113.763 113.63L67.0368 66.9217L92.3083 127.966L67.0128 66.9318L67 133L66.9872 66.9318L41.6918 127.966L66.9632 66.9217L20.2367 113.63L66.9451 66.9035L5.90078 92.175L66.935 66.8795L0.866699 66.8667L66.935 66.8539L5.90078 41.5585L66.9451 66.8299L20.2367 20.1034L66.9632 66.8118L41.6918 5.76748L66.9872 66.8017L67 0.733398Z" fill="#D9F0FF" stroke="#D9F0FF" stroke-width="2"/>
</svg>
