<svg width="87" height="372" viewBox="0 0 87 372" fill="none" xmlns="http://www.w3.org/2000/svg">
<path d="M-166.03 163.873C-161.485 155.032 -161.414 145.83 -165.577 140.302C-173.17 130.228 -193.833 133.664 -203.042 143.934C-214.607 156.831 -208.455 180.887 -195.644 191.435C-177.198 206.624 -142.117 196.128 -130.449 175.299C-116.841 151.001 -136.091 114.433 -164.433 101.668C-190.245 90.04 -224.375 97.8002 -239.664 121.572C-258.107 150.256 -239.414 187.153 -220.038 204.672C-190.737 231.168 -143.121 228.495 -111.993 205.443C-83.8028 184.561 -68.376 146.398 -77.6832 115.929C-94.5981 60.5651 -192.062 34.2443 -240.869 75.7707C-268.29 99.1033 -275.447 138.197 -270.899 167.929C-270.419 171.058 -261.131 225.758 -212.143 248.36C-159.881 272.474 -108.703 238.699 -95.657 230.09C-83.9388 222.358 -39.2936 192.892 -34.6325 140.47C-28.9915 76.988 -86.9073 35.1627 -94.6706 29.7412C-146.579 -6.50895 -230.483 -11.2845 -285.78 41.4416C-331.537 85.0724 -343.545 154.572 -318.565 208.719C-292.69 264.798 -237.147 282.705 -224.02 286.941C-154.941 309.215 -82.1072 281.989 -37.7352 237.77C-29.0368 229.102 36.6988 161.691 14.9871 90.3873C1.14318 44.927 -40.7188 22.6128 -75.9387 3.83509C-106.249 -12.3234 -155.24 -38.4389 -217.476 -25.0068C-298.066 -7.6078 -335.068 61.9046 -339.35 70.2769C-348.128 87.4427 -372.889 142.635 -351.236 207.604C-348.531 215.72 -327.049 276.96 -264.195 307.971C-188.625 345.254 -111.683 310.015 -79.5203 295.285C-53.1214 283.193 60.8055 231.016 65.5832 132.615C69.6098 49.7006 -6.65333 -8.48664 -28.3318 -25.0296C-47.2372 -39.4504 -95.8438 -75.4338 -166.9 -75.5618C-177.187 -75.5791 -269.884 -74.2156 -332.09 0.665781C-371.205 47.7496 -377.124 98.4554 -380.663 128.749C-384.647 162.885 -392.456 229.757 -350.195 286.797C-323.485 322.851 -289.159 338.252 -268.444 347.544C-248.896 356.318 -189.148 383.123 -123.029 363.764C-95.4549 355.69 -70.8232 335.334 -21.5575 294.616C30.0625 251.957 55.8701 230.622 69.2927 202.758C99.1333 140.785 80.2719 77.2278 76.4148 64.2144C50.2894 -23.8315 -26.5492 -64.4428 -51.0688 -75.5735" stroke="white" stroke-opacity="0.4" stroke-width="2" stroke-miterlimit="10"/>
</svg>
