<svg width="182" height="695" viewBox="0 0 182 695" fill="none" xmlns="http://www.w3.org/2000/svg">
<path d="M-292.553 305.386C-284.032 288.81 -283.898 271.557 -291.705 261.192C-305.941 242.303 -344.684 248.744 -361.952 268.002C-383.636 292.183 -372.1 337.289 -348.079 357.067C-313.493 385.546 -247.718 365.866 -225.84 326.81C-200.325 281.252 -236.418 212.686 -289.559 188.753C-337.957 166.95 -401.95 181.5 -430.617 226.072C-465.197 279.854 -430.149 349.037 -393.818 381.886C-338.88 431.565 -249.599 426.553 -191.235 383.33C-138.377 344.177 -109.452 272.621 -126.903 215.493C-158.619 111.685 -341.364 62.333 -432.878 140.195C-484.291 183.944 -497.71 257.244 -489.184 312.992C-488.282 318.859 -470.867 421.421 -379.016 463.8C-281.025 509.013 -185.066 445.685 -160.604 429.545C-138.633 415.047 -54.9228 359.798 -46.1832 261.506C-35.6063 142.477 -144.199 64.0551 -158.755 53.8897C-256.084 -14.0793 -413.403 -23.0335 -517.085 75.8281C-602.88 157.636 -625.395 287.947 -578.557 389.473C-530.041 494.621 -425.897 528.196 -401.286 536.139C-271.762 577.903 -135.198 526.855 -52.0009 443.943C-35.6913 427.691 87.563 301.297 46.8535 167.601C20.8961 82.3632 -57.595 40.524 -123.632 5.31579C-180.463 -24.9814 -272.323 -73.9479 -389.014 -48.7627C-540.12 -16.1396 -609.499 114.196 -617.528 129.894C-633.988 162.08 -680.413 265.566 -639.815 387.383C-634.743 402.6 -594.464 517.425 -476.613 575.571C-334.92 645.476 -190.653 579.403 -130.348 551.784C-80.8499 529.113 132.763 431.28 141.721 246.779C149.271 91.3135 6.27771 -17.7875 -34.3694 -48.8054C-69.817 -75.8444 -160.955 -143.313 -294.184 -143.553C-313.473 -143.586 -487.279 -141.029 -603.916 -0.626668C-677.257 87.6555 -688.355 182.729 -694.99 239.529C-702.46 303.534 -717.103 428.92 -637.863 535.869C-587.781 603.471 -523.421 632.348 -484.581 649.77C-447.927 666.22 -335.9 716.48 -211.927 680.182C-160.225 665.043 -114.041 626.877 -21.6675 550.531C75.1199 470.543 123.509 430.541 148.676 378.296C204.628 262.097 169.263 142.927 162.03 118.527C113.045 -46.5591 -31.027 -122.705 -77.0013 -143.575" stroke="white" stroke-opacity="0.4" stroke-width="3" stroke-miterlimit="10"/>
</svg>
