<svg width="165" height="707" viewBox="0 0 165 707" fill="none" xmlns="http://www.w3.org/2000/svg">
<path d="M385.075 415.919C399.037 428.266 415.724 432.653 427.694 427.644C449.511 418.509 452.827 379.374 438.426 357.889C420.341 330.909 373.784 330.96 348.691 349.359C312.559 375.85 315.404 444.448 347.854 475.285C385.709 511.251 461.06 493.189 497.364 447.595C530.434 406.072 532.121 340.468 495.999 301.691C452.411 254.911 376.72 271.807 335.924 298.911C274.226 339.894 257.057 427.652 284.544 494.876C309.446 555.759 371.654 601.444 431.322 598.626C539.746 593.502 632.658 428.581 579.78 320.687C550.068 260.07 482.344 228.981 426.216 223.491C420.307 222.916 316.62 214.49 252.89 293.047C184.899 376.854 222.595 485.47 232.201 513.158C240.83 538.027 273.719 632.78 366.816 665.499C479.556 705.115 582.345 619.227 595.788 607.629C685.668 530.077 733.158 379.831 662.932 254.963C604.82 151.637 484.091 97.6683 374.148 118.011C260.281 139.086 202.05 231.727 188.28 253.618C115.852 368.834 131.631 513.771 191.454 614.852C203.18 634.667 295.259 785.294 434.865 778.828C523.872 774.702 583.783 708.959 634.195 653.649C677.577 606.05 747.692 529.111 752.075 409.813C757.74 255.329 648.55 155.939 635.318 144.285C608.188 120.394 519.354 49.8723 391.287 59.1617C375.289 60.3233 254.076 71.0286 168.652 170.891C65.9505 290.958 94.3885 447.066 106.275 512.321C116.035 565.882 158.142 797.029 334.73 851.229C483.527 896.9 624.534 785.244 664.621 753.506C699.57 725.825 787.438 654.15 820.54 525.097C825.33 506.413 865.733 337.349 758.446 189.678C690.987 96.8242 601.59 62.613 548.183 42.1702C487.999 19.1397 370.101 -25.9842 246.909 24.4202C169.041 56.276 125.178 111.523 98.712 144.864C73.7273 176.326 -2.61745 272.49 1.97335 401.587C3.88872 455.425 29.4811 509.598 80.6776 617.951C134.314 731.481 161.141 788.243 205.563 825.522C304.365 908.411 428.577 903.54 454.007 902.551C626.075 895.809 735.412 774.977 766.979 735.572" stroke="white" stroke-opacity="0.4" stroke-width="3" stroke-miterlimit="10"/>
</svg>
