<svg width="220" height="943" viewBox="0 0 220 943" fill="none" xmlns="http://www.w3.org/2000/svg">
<path d="M513.433 554.559C532.049 571.022 554.298 576.87 570.258 570.193C599.348 558.012 603.769 505.832 584.567 477.185C560.454 441.213 498.379 441.28 464.921 465.812C416.746 501.134 420.538 592.597 463.805 633.713C514.278 681.667 614.747 657.586 663.152 596.794C707.245 541.43 709.494 453.957 661.332 402.254C603.214 339.881 502.293 362.41 447.898 398.549C365.635 453.193 342.742 570.202 379.392 659.835C412.595 741.012 495.538 801.925 575.096 798.169C719.661 791.336 843.543 571.441 773.039 427.583C733.423 346.76 643.125 305.308 568.288 297.987C560.41 297.222 422.159 285.987 337.186 390.729C246.531 502.472 296.793 647.294 309.601 684.211C321.107 717.37 364.958 843.707 489.088 887.332C639.408 940.153 776.46 825.636 794.383 810.172C914.224 706.77 977.544 506.441 883.909 339.95C806.426 202.183 645.454 130.224 498.864 157.348C347.041 185.448 269.4 308.969 251.04 338.158C154.469 491.779 175.508 685.028 255.272 819.803C270.906 846.223 393.678 1047.06 579.82 1038.44C698.496 1032.94 778.377 945.279 845.593 871.533C903.435 808.066 996.923 705.481 1002.77 546.417C1010.32 340.439 864.733 207.919 847.09 192.381C810.916 160.525 692.472 66.4964 521.716 78.8823C500.385 80.4311 338.768 94.7049 224.869 227.855C87.9337 387.944 125.851 596.089 141.7 683.095C154.712 754.51 210.856 1062.71 446.306 1134.97C644.702 1195.87 832.711 1046.99 886.161 1004.67C932.759 967.766 1049.92 872.2 1094.05 700.13C1100.44 675.218 1154.31 449.798 1011.26 252.904C921.315 129.099 802.12 83.484 730.91 56.227C650.666 25.5196 493.468 -34.6455 329.212 32.5603C225.387 75.0347 166.904 148.697 131.616 193.152C98.3028 235.101 -3.49025 363.32 2.63081 535.449C5.18464 607.233 39.3078 679.464 107.57 823.935C179.084 975.308 214.855 1050.99 274.083 1100.7C405.82 1211.22 571.435 1204.72 605.342 1203.4C834.767 1194.41 980.549 1033.3 1022.64 980.763" stroke="white" stroke-opacity="0.4" stroke-width="3" stroke-miterlimit="10"/>
</svg>
