<svg width="31" height="30" viewBox="0 0 31 30" fill="none" xmlns="http://www.w3.org/2000/svg">
<path d="M15.5 0L14.3417 7.62636L10.9184 0.670154L12.128 8.28903L6.74403 2.62106L10.2138 9.55548L3.34761 5.67938L8.76941 11.3132L1.03094 9.57336L7.92304 13.406L3.29266e-07 13.957L7.74999 15.6478L0.346219 18.4408L8.26546 17.8397L2.03896 22.6264L9.42373 19.7867L4.92775 26.1418L11.122 21.3158L8.75594 28.6747L13.2092 22.2913L13.1833 30L15.5 22.6264L17.8166 30L17.7907 22.2913L22.244 28.6747L19.8779 21.3158L26.0722 26.1418L21.5762 19.7867L28.961 22.6264L22.7345 17.8397L30.6538 18.4408L23.25 15.6478L31 13.957L23.0769 13.406L29.969 9.57336L22.2305 11.3132L27.6524 5.67938L20.7861 9.55548L24.2559 2.62106L18.872 8.28903L20.0815 0.670154L16.6582 7.62636L15.5 0Z" fill="#D9F0FF"/>
</svg>
