<svg width="360" height="359" viewBox="0 0 360 359" fill="none" xmlns="http://www.w3.org/2000/svg">
<path d="M179.83 0.666748L193.243 91.672L232.886 8.66368L218.88 99.5796L281.228 31.9438L241.046 114.692L320.56 68.4386L257.773 135.667L347.388 114.905L267.574 160.64L359.326 167.215L269.578 187.392L355.317 220.72L263.609 213.548L335.714 270.667L250.195 236.781L302.261 312.616L230.529 255.028L257.929 342.841L206.358 266.668L206.658 358.656L179.83 270.667L153.002 358.656L153.302 266.668L101.731 342.841L129.132 255.028L57.3991 312.616L109.465 236.781L23.9456 270.667L96.0515 213.548L4.3431 220.72L90.0818 187.392L0.333496 167.215L92.0867 160.64L12.2728 114.905L101.888 135.667L39.1006 68.4386L118.614 114.692L78.4326 31.9438L140.781 99.5796L126.774 8.66368L166.417 91.672L179.83 0.666748Z" fill="#D9F0FF"/>
</svg>
