<svg width="211" height="186" viewBox="0 0 211 186" fill="none" xmlns="http://www.w3.org/2000/svg">
<path d="M265.829 194.016C257.84 200.083 253.701 208.513 254.987 215.488C257.333 228.202 277.381 234.428 290.187 229.165C306.267 222.556 311.403 197.638 304.587 182.118C294.773 159.77 258.672 153.49 238.987 167.347C216.027 183.513 217.093 225.888 236.853 250.5C254.848 272.919 288.885 281.283 313.12 266.365C342.357 248.361 341.936 205.937 332.32 181.024C317.781 143.348 273.904 124.179 235.787 131.241C201.264 137.642 170.533 165.733 165.387 197.983C156.037 256.583 231.771 325.059 293.92 309.035C328.837 300.031 352.565 267.328 361.653 237.918C362.608 234.821 378.501 180.296 344.587 137.259C308.405 91.3443 247.563 99.1618 232.053 101.153C218.123 102.942 165.045 109.764 137.653 155.859C104.485 211.681 137.893 276.453 142.453 284.965C172.944 341.881 246.059 384.382 318.987 361.006C379.333 341.662 420.875 283.198 422.453 222.053C424.085 158.726 382.213 117.029 372.32 107.171C320.245 55.3096 242.885 47.2678 183.52 67.7825C171.883 71.8034 83.0933 103.943 70.9867 179.383C63.2693 227.48 90.9227 267.016 114.187 300.283C134.208 328.91 166.571 375.18 228.32 391.094C308.283 411.697 372.24 364.573 379.787 358.818C395.259 347.018 441.899 307.504 451.253 237.918C452.421 229.225 460.277 163.146 417.653 106.077C366.405 37.4645 281.813 34.9262 246.453 33.8649C217.429 32.995 92.176 29.2367 44.32 117.565C3.99467 191.992 46.608 280.145 58.72 305.206C69.2853 327.056 96.9333 382.226 160.587 414.618C169.803 419.306 253.52 460.155 342.453 419.541C398.373 394.005 426.133 350.059 442.72 323.806C461.408 294.221 498.021 236.266 485.387 164.612C477.403 119.321 453.445 89.5664 438.987 71.6119C425.344 54.664 383.643 2.87399 315.787 -9.35278C287.488 -14.4514 256.389 -6.91836 194.187 8.15311C129.013 23.9412 96.4267 31.8408 72.0533 51.3708C17.856 94.8127 6.624 161.833 4.32 175.553C-11.2427 268.394 39.6693 340.645 56.7253 362.018" stroke="white" stroke-opacity="0.4" stroke-width="2" stroke-miterlimit="10"/>
</svg>
