<svg width="104" height="212" viewBox="0 0 104 212" fill="none" xmlns="http://www.w3.org/2000/svg">
<path d="M265.429 172.957C257.44 179.024 253.301 187.454 254.586 194.429C256.933 207.143 276.981 213.368 289.786 208.106C305.866 201.497 311.002 176.579 304.186 161.059C294.373 138.711 258.272 132.431 238.586 146.288C215.626 162.454 216.693 204.829 236.453 229.441C254.448 251.86 288.485 260.224 312.72 245.306C341.957 227.302 341.536 184.878 331.92 159.965C317.381 122.289 273.504 103.12 235.386 110.182C200.864 116.583 170.133 144.674 164.986 176.923C155.637 235.524 231.37 304 293.52 287.976C328.437 278.972 352.165 246.269 361.253 216.859C362.208 213.762 378.101 159.237 344.186 116.2C308.005 70.2853 247.162 78.1027 231.653 80.094C217.722 81.8829 164.645 88.7047 137.253 134.8C104.085 190.622 137.493 255.394 142.053 263.906C172.544 320.822 245.658 363.323 318.586 339.947C378.933 320.603 420.474 262.139 422.053 200.994C423.685 137.666 381.813 95.9697 371.92 86.1117C319.845 34.2505 242.485 26.2087 183.12 46.7234C171.482 50.7443 82.693 82.884 70.5863 158.323C62.8689 206.421 90.5223 245.957 113.786 279.223C133.808 307.851 166.17 354.121 227.92 370.035C307.882 390.637 371.84 343.514 379.386 337.759C394.858 325.959 441.498 286.445 450.853 216.859C452.021 208.166 459.877 142.087 417.253 85.0175C366.005 16.4054 281.413 13.8671 246.053 12.8058C217.029 11.936 91.7756 8.17766 43.9196 96.5058C3.59428 170.933 46.2076 259.086 58.3196 284.147C68.8849 305.997 96.533 361.167 160.186 393.559C169.402 398.247 253.12 439.096 342.053 398.482C397.973 372.946 425.733 329 442.32 302.747C461.008 273.162 497.621 215.207 484.986 143.553C477.002 98.2618 453.045 68.5073 438.586 50.5528C424.944 33.605 383.242 -18.1851 315.386 -30.4119C287.088 -35.5104 255.989 -27.9774 193.786 -12.906C128.613 2.88214 96.0263 10.7817 71.6529 30.3117C17.4556 73.7536 6.22361 140.774 3.91961 154.494C-11.6431 247.335 39.2689 319.585 56.3249 340.959" stroke="white" stroke-opacity="0.4" stroke-width="2" stroke-miterlimit="10"/>
</svg>
