<svg width="242" height="1012" viewBox="0 0 242 1012" fill="none" xmlns="http://www.w3.org/2000/svg">
<path d="M-390.071 470.146C-378.71 447.102 -378.531 423.117 -388.94 408.708C-407.921 382.449 -459.579 391.404 -482.603 418.175C-511.515 451.791 -496.134 514.495 -464.106 541.99C-417.991 581.58 -330.29 554.222 -301.12 499.929C-267.1 436.596 -315.224 341.277 -386.079 308.006C-450.61 277.696 -535.934 297.924 -574.156 359.886C-620.263 434.652 -573.532 530.828 -525.091 576.492C-451.84 645.555 -332.799 638.587 -254.98 578.501C-184.503 524.071 -145.937 424.597 -169.205 345.179C-211.492 200.868 -455.153 132.262 -577.17 240.503C-645.721 301.321 -663.614 403.22 -652.245 480.718C-651.043 488.875 -627.823 631.452 -505.354 690.366C-374.7 753.22 -246.755 665.184 -214.139 642.746C-184.844 622.592 -73.2306 545.787 -61.5778 409.145C-47.4753 243.676 -192.265 134.656 -211.673 120.524C-341.445 26.0361 -551.204 13.5882 -689.447 151.022C-803.84 264.748 -833.86 445.903 -771.409 587.04C-706.722 733.212 -567.863 779.888 -535.048 790.93C-362.349 848.989 -180.265 778.023 -69.3347 662.762C-47.5885 640.169 116.75 464.46 62.4711 278.602C27.8613 160.107 -76.7935 101.944 -164.843 52.9984C-240.618 10.8804 -363.097 -57.1912 -518.686 -22.1795C-720.161 23.1718 -812.666 204.36 -823.371 226.183C-845.317 270.926 -907.218 414.789 -853.087 584.134C-846.324 605.288 -792.618 764.914 -635.484 845.747C-446.56 942.926 -254.204 851.074 -173.797 812.679C-107.8 781.162 177.017 645.158 188.962 388.672C199.028 172.549 8.37008 20.8811 -45.826 -22.239C-93.0895 -59.8276 -214.606 -153.621 -392.246 -153.954C-417.964 -153.999 -649.706 -150.445 -805.222 44.7374C-903.009 167.464 -917.807 299.632 -926.653 378.593C-936.614 467.57 -956.137 641.878 -850.484 790.554C-783.708 884.533 -697.894 924.675 -646.108 948.896C-597.236 971.764 -447.867 1041.63 -282.569 991.173C-213.634 970.128 -152.055 917.07 -28.8902 810.936C100.16 699.741 164.679 644.131 198.235 571.501C272.837 409.967 225.683 244.301 216.04 210.381C150.727 -19.1162 -41.3696 -124.972 -102.669 -153.985" stroke="white" stroke-opacity="0.4" stroke-width="4" stroke-miterlimit="10"/>
</svg>
