<svg width="73" height="218" viewBox="0 0 73 218" fill="none" xmlns="http://www.w3.org/2000/svg">
<path d="M-116.458 55.2246C-113.061 48.3328 -113.007 41.1598 -116.12 36.8507C-121.797 28.9976 -137.246 31.6756 -144.131 39.6818C-152.778 49.7353 -148.178 68.4878 -138.6 76.7105C-124.808 88.5508 -98.58 80.3687 -89.8561 64.1315C-79.6821 45.1908 -94.0743 16.6843 -115.265 6.73423C-134.564 -2.33045 -160.081 3.71891 -171.512 22.2496C-185.301 44.6096 -171.325 73.3724 -156.838 87.0291C-134.931 107.683 -99.3305 105.599 -76.0573 87.6297C-54.9803 71.3517 -43.4463 41.6024 -50.4049 17.8512C-63.0516 -25.307 -135.922 -45.8249 -172.413 -13.4538C-192.914 4.73473 -198.266 35.2093 -194.866 58.3864C-194.506 60.8258 -187.562 103.466 -150.936 121.085C-111.861 139.882 -73.5975 113.554 -63.8433 106.843C-55.082 100.816 -21.7024 77.8461 -18.2175 36.9814C-13.9999 -12.5049 -57.3015 -45.1089 -63.1058 -49.3352C-101.916 -77.5933 -164.648 -81.316 -205.991 -40.2144C-240.202 -6.20278 -249.18 47.9743 -230.503 90.1836C-211.158 133.899 -169.63 147.858 -159.816 151.16C-108.168 168.523 -53.7126 147.3 -20.5373 112.829C-14.0338 106.073 35.1143 53.5242 18.8813 -2.05965C8.5307 -37.4974 -22.768 -54.892 -49.1006 -69.5298C-71.7622 -82.1259 -108.391 -102.484 -154.923 -92.0129C-215.177 -78.4499 -242.842 -24.2628 -246.044 -17.7363C-252.607 -4.35509 -271.119 38.6692 -254.931 89.3145C-252.908 95.6409 -236.846 143.379 -189.853 167.554C-133.352 196.617 -75.8253 169.147 -51.7785 157.664C-32.0409 148.239 53.138 107.565 56.7102 30.8585C59.7207 -33.7763 2.70153 -79.135 -13.5066 -92.0307C-27.6415 -103.272 -63.983 -131.322 -117.109 -131.422C-124.8 -131.436 -194.106 -130.373 -240.616 -72.0004C-269.86 -35.2971 -274.286 4.22963 -276.932 27.8442C-279.911 54.4543 -285.749 106.584 -254.152 151.048C-234.182 179.153 -208.518 191.159 -193.03 198.402C-178.414 205.241 -133.743 226.137 -84.3083 211.046C-63.6922 204.752 -45.276 188.884 -8.44174 157.143C30.1526 123.889 49.448 107.258 59.4836 85.5365C81.7944 37.2271 67.6924 -12.3179 64.8085 -22.4623C45.2755 -91.0968 -12.1739 -122.755 -30.5063 -131.431" stroke="white" stroke-opacity="0.4" stroke-width="2" stroke-miterlimit="10"/>
</svg>
