<svg width="220" height="986" viewBox="0 0 220 986" fill="none" xmlns="http://www.w3.org/2000/svg">
<path d="M513.433 579.071C532.049 596.235 554.298 602.333 570.258 595.371C599.348 582.671 603.769 528.267 584.567 498.399C560.454 460.893 498.379 460.964 464.921 486.541C416.746 523.368 420.538 618.73 463.805 661.599C514.278 711.597 614.747 686.489 663.152 623.106C707.245 565.382 709.494 474.181 661.332 420.274C603.214 355.243 502.293 378.731 447.898 416.411C365.635 473.384 342.742 595.381 379.392 688.833C412.595 773.471 495.538 836.98 575.096 833.064C719.661 825.94 843.543 596.673 773.039 446.682C733.423 362.415 643.125 319.196 568.288 311.563C560.41 310.765 422.159 299.051 337.186 408.258C246.531 524.764 296.793 675.758 309.601 714.249C321.107 748.821 364.958 880.543 489.088 926.028C639.408 981.1 776.46 861.702 794.383 845.579C914.224 737.769 977.544 528.902 883.909 355.315C806.426 211.675 645.454 136.65 498.864 164.93C347.041 194.227 269.4 323.013 251.04 353.446C154.469 513.615 175.508 715.101 255.272 855.62C270.906 883.166 393.678 1092.56 579.82 1083.57C698.496 1077.84 778.377 986.444 845.593 909.555C903.435 843.383 996.923 736.425 1002.77 570.582C1010.32 355.824 864.733 217.656 847.09 201.455C810.917 168.242 692.472 70.2054 521.716 83.1193C500.385 84.734 338.768 99.6162 224.869 238.442C87.9337 405.354 125.851 622.37 141.7 713.085C154.712 787.544 210.856 1108.88 446.306 1184.22C644.702 1247.71 832.711 1092.49 886.161 1048.37C932.759 1009.89 1049.92 910.25 1094.05 730.846C1100.44 704.872 1154.31 469.845 1011.26 264.558C921.315 135.476 802.12 87.9171 730.91 59.4983C650.666 27.4821 493.468 -35.2475 329.212 34.8229C225.387 79.1076 166.904 155.91 131.616 202.259C98.3028 245.997 -3.49025 379.681 2.63082 559.146C5.18465 633.99 39.3078 709.299 107.57 859.928C179.084 1017.75 214.855 1096.66 274.083 1148.49C405.82 1263.72 571.435 1256.94 605.342 1255.57C834.767 1246.2 980.549 1078.22 1022.64 1023.44" stroke="white" stroke-opacity="0.4" stroke-width="4" stroke-miterlimit="10"/>
</svg>
