<svg width="163" height="343" viewBox="0 0 163 343" fill="none" xmlns="http://www.w3.org/2000/svg">
<path d="M103.681 2C47.524 2 2 18.9513 2 39.8619C2 60.7724 47.524 77.7239 103.681 77.7239C135.153 77.7239 160.667 70.5481 160.667 61.6964C160.667 52.8447 135.153 45.6689 103.681 45.6689C47.524 45.6689 2 62.6203 2 83.5308C2 104.441 47.524 121.393 103.681 121.393C135.153 121.393 160.667 114.217 160.667 105.365C160.667 96.5136 135.153 89.3379 103.681 89.3379C47.524 89.3379 2 106.393 2 127.432C2 148.471 47.524 165.527 103.681 165.527C135.153 165.527 160.667 158.351 160.667 149.499C160.667 140.647 135.153 133.472 103.681 133.472C47.524 133.472 2 150.423 2 171.333C2 192.244 47.524 209.195 103.681 209.195C135.153 209.195 160.667 202.02 160.667 193.168C160.667 184.316 135.153 177.14 103.681 177.14C47.524 177.14 2 194.092 2 215.003C2 235.913 47.524 252.864 103.681 252.864C135.153 252.864 160.667 245.688 160.667 236.837C160.667 227.985 135.153 220.809 103.681 220.809C47.524 220.809 2 237.761 2 258.671C2 279.581 47.524 296.533 103.681 296.533C135.153 296.533 160.667 289.357 160.667 280.505C160.667 271.655 135.153 264.479 103.681 264.479C47.524 264.479 2 281.533 2 302.572C2 323.611 47.524 340.667 103.681 340.667" stroke="#FFDADA" stroke-width="4" stroke-linecap="round"/>
</svg>
