<svg width="163" height="344" viewBox="0 0 163 344" fill="none" xmlns="http://www.w3.org/2000/svg">
<path d="M103.681 2.66699C47.524 2.66699 2 19.6183 2 40.5289C2 61.4394 47.524 78.3909 103.681 78.3909C135.153 78.3909 160.667 71.2151 160.667 62.3634C160.667 53.5117 135.153 46.3359 103.681 46.3359C47.524 46.3359 2 63.2873 2 84.1978C2 105.108 47.524 122.06 103.681 122.06C135.153 122.06 160.667 114.884 160.667 106.032C160.667 97.1806 135.153 90.0049 103.681 90.0049C47.524 90.0049 2 107.06 2 128.099C2 149.138 47.524 166.194 103.681 166.194C135.153 166.194 160.667 159.018 160.667 150.166C160.667 141.314 135.153 134.139 103.681 134.139C47.524 134.139 2 151.09 2 172C2 192.911 47.524 209.862 103.681 209.862C135.153 209.862 160.667 202.687 160.667 193.835C160.667 184.983 135.153 177.807 103.681 177.807C47.524 177.807 2 194.759 2 215.67C2 236.58 47.524 253.531 103.681 253.531C135.153 253.531 160.667 246.355 160.667 237.504C160.667 228.652 135.153 221.476 103.681 221.476C47.524 221.476 2 238.428 2 259.338C2 280.248 47.524 297.2 103.681 297.2C135.153 297.2 160.667 290.024 160.667 281.172C160.667 272.322 135.153 265.146 103.681 265.146C47.524 265.146 2 282.2 2 303.239C2 324.278 47.524 341.334 103.681 341.334" stroke="#D9F0FF" stroke-width="4" stroke-linecap="round"/>
</svg>
