<svg width="43" height="89" viewBox="0 0 43 89" fill="none" xmlns="http://www.w3.org/2000/svg">
<path d="M27.2748 1C12.7636 1 1 5.35462 1 10.7263C1 16.098 12.7636 20.4527 27.2748 20.4527C35.4073 20.4527 42 18.6093 42 16.3354C42 14.0615 35.4073 12.2181 27.2748 12.2181C12.7636 12.2181 1 16.5727 1 21.9444C1 27.3162 12.7636 31.6709 27.2748 31.6709C35.4073 31.6709 42 29.8275 42 27.5535C42 25.2796 35.4073 23.4362 27.2748 23.4362C12.7636 23.4362 1 27.8176 1 33.2222C1 38.6268 12.7636 43.0083 27.2748 43.0083C35.4073 43.0083 42 41.1649 42 38.8909C42 36.6169 35.4073 34.7738 27.2748 34.7738C12.7636 34.7738 1 39.1283 1 44.5C1 49.8717 12.7636 54.2262 27.2748 54.2262C35.4073 54.2262 42 52.3831 42 50.1091C42 47.8351 35.4073 45.9917 27.2748 45.9917C12.7636 45.9917 1 50.3465 1 55.7182C1 61.0899 12.7636 65.4444 27.2748 65.4444C35.4073 65.4444 42 63.601 42 61.3273C42 59.0533 35.4073 57.2099 27.2748 57.2099C12.7636 57.2099 1 61.5647 1 66.9361C1 72.3078 12.7636 76.6626 27.2748 76.6626C35.4073 76.6626 42 74.8192 42 72.5452C42 70.2715 35.4073 68.4281 27.2748 68.4281C12.7636 68.4281 1 72.8092 1 78.2139C1 83.6185 12.7636 88 27.2748 88" stroke="#D9F0FF" stroke-width="2" stroke-linecap="round"/>
</svg>
