<svg width="92" height="90" viewBox="0 0 92 90" fill="none" xmlns="http://www.w3.org/2000/svg">
<path d="M45.3421 48.1125C44.4582 48.5403 43.3133 47.0302 44.3949 45.6128C45.2845 44.1866 48.4535 43.7866 50.3345 46.2209C52.3091 48.4368 51.958 53.26 48.1837 55.6119C44.65 58.1254 38.1827 57.0293 35.3567 51.8961C32.3047 47.0414 34.1304 38.9006 40.6061 35.6136C46.7747 32.0132 56.5603 34.6108 60.3199 42.4373C64.4621 49.9394 61.1401 61.3824 51.9725 65.611C43.1646 70.2918 30.0689 66.2113 25.3716 55.6796C20.1401 45.5321 24.957 30.7784 36.8174 25.6146C48.2698 19.8485 64.6642 25.4216 70.3051 38.6538C76.6141 51.439 70.3234 69.5119 55.7613 75.6102C41.6732 82.4621 21.9622 75.3925 15.3865 59.463C7.98732 44.0309 15.7742 22.6542 33.0286 15.6154C49.7565 7.68526 72.7752 16.2372 80.2904 34.8703C88.7769 52.9434 79.4975 77.6373 59.55 85.6093C40.1792 94.6298 13.8577 84.5745 5.40104 63.2466C-4.16616 42.5322 6.59137 14.5247 29.2398 5.61628C51.2484 -4.48357 80.8824 7.05743 90.2756 31.0868" stroke="#D9F0FF" stroke-width="2" stroke-linecap="round"/>
</svg>
