<svg width="57" height="57" viewBox="0 0 57 57" fill="none" xmlns="http://www.w3.org/2000/svg">
<path d="M27.9193 0.997757C28.0244 0.112727 29.3086 0.112727 29.4137 0.997757L30.2947 8.42235C31.4322 18.0095 38.991 25.5683 48.5781 26.7058L56.0027 27.5868C56.8878 27.6919 56.8878 28.9761 56.0027 29.0812L48.5781 29.9622C38.991 31.0997 31.4322 38.6585 30.2947 48.2455L29.4137 55.6701C29.3086 56.5553 28.0244 56.5553 27.9193 55.6701L27.0383 48.2455C25.9008 38.6585 18.342 31.0997 8.75487 29.9622L1.33028 29.0812C0.445246 28.9761 0.445246 27.6919 1.33028 27.5868L8.75487 26.7058C18.342 25.5683 25.9008 18.0095 27.0383 8.42235L27.9193 0.997757Z" fill="#BFEBE3"/>
</svg>
