<svg width="92" height="91" viewBox="0 0 92 91" fill="none" xmlns="http://www.w3.org/2000/svg">
<path d="M44.7901 1.40817C44.9602 -0.0247303 47.0395 -0.0247303 47.2096 1.40817L48.6359 13.429C50.4777 28.951 62.7157 41.189 78.2376 43.0307L90.2584 44.457C91.6914 44.6272 91.6914 46.7065 90.2584 46.8766L78.2376 48.3029C62.7157 50.1447 50.4777 62.3827 48.6359 77.9046L47.2096 89.9254C47.0395 91.3584 44.9602 91.3584 44.7901 89.9254L43.3637 77.9046C41.522 62.3827 29.284 50.1447 13.762 48.3029L1.74118 46.8766C0.308278 46.7065 0.308278 44.6272 1.74118 44.457L13.762 43.0307C29.284 41.189 41.522 28.951 43.3637 13.429L44.7901 1.40817Z" fill="#D9F0FF"/>
</svg>
