<svg width="110" height="10" viewBox="0 0 110 10" fill="none" xmlns="http://www.w3.org/2000/svg">
<path d="M1.69141 1.55127C7.01664 1.55127 7.01664 8.72884 12.3419 8.72884C17.6671 8.72884 17.6671 1.55127 22.9924 1.55127C28.3176 1.55127 28.3176 8.72884 33.6304 8.72884C38.9558 8.72884 38.9558 1.55127 44.2684 1.55127C49.5937 1.55127 49.5937 8.72884 54.9063 8.72884C60.2317 8.72884 60.2317 1.55127 65.5566 1.55127C70.882 1.55127 70.882 8.72884 76.2073 8.72884C81.5323 8.72884 81.5323 1.55127 86.8577 1.55127C92.183 1.55127 92.183 8.72884 97.5084 8.72884C102.833 8.72884 102.833 1.55127 108.159 1.55127" stroke="#FFDADA" stroke-width="2" stroke-miterlimit="10" stroke-linecap="round"/>
</svg>
