<svg width="145" height="13" viewBox="0 0 145 13" fill="none" xmlns="http://www.w3.org/2000/svg">
<path d="M1.6001 1.93335C8.7226 1.93335 8.7226 11.5333 15.8451 11.5333C22.9676 11.5333 22.9676 1.93335 30.0901 1.93335C37.2126 1.93335 37.2126 11.5333 44.3184 11.5333C51.4412 11.5333 51.4412 1.93335 58.5468 1.93335C65.6694 1.93335 65.6694 11.5333 72.775 11.5333C79.8977 11.5333 79.8977 1.93335 87.0198 1.93335C94.1425 1.93335 94.1425 11.5333 101.265 11.5333C108.387 11.5333 108.387 1.93335 115.51 1.93335C122.633 1.93335 122.633 11.5333 129.755 11.5333C136.877 11.5333 136.877 1.93335 144 1.93335" stroke="#BFEBE3" stroke-width="2" stroke-miterlimit="10" stroke-linecap="round"/>
</svg>
