<svg width="106" height="12" viewBox="0 0 106 12" fill="none" xmlns="http://www.w3.org/2000/svg">
<path d="M-38 1C-30.8775 1 -30.8775 10.6 -23.755 10.6C-16.6325 10.6 -16.6325 1 -9.50997 1C-2.38747 1 -2.38747 10.6 4.71834 10.6C11.8411 10.6 11.8411 1 18.9467 1C26.0693 1 26.0693 10.6 33.1749 10.6C40.2976 10.6 40.2976 1 47.4197 1C54.5424 1 54.5424 10.6 61.6651 10.6C68.7872 10.6 68.7872 1 75.9099 1C83.0325 1 83.0325 10.6 90.1552 10.6C97.2773 10.6 97.2773 1 104.4 1" stroke="#BFEBE3" stroke-width="2" stroke-miterlimit="10" stroke-linecap="round"/>
</svg>
