<svg width="145" height="12" viewBox="0 0 145 12" fill="none" xmlns="http://www.w3.org/2000/svg">
<path d="M1 1C8.12251 1 8.12251 10.6 15.245 10.6C22.3675 10.6 22.3675 1 29.49 1C36.6125 1 36.6125 10.6 43.7183 10.6C50.8411 10.6 50.8411 1 57.9467 1C65.0693 1 65.0693 10.6 72.1749 10.6C79.2976 10.6 79.2976 1 86.4197 1C93.5424 1 93.5424 10.6 100.665 10.6C107.787 10.6 107.787 1 114.91 1C122.033 1 122.033 10.6 129.155 10.6C136.277 10.6 136.277 1 143.4 1" stroke="#FFDADA" stroke-width="2" stroke-miterlimit="10" stroke-linecap="round"/>
</svg>
