<svg width="303" height="340" viewBox="0 0 303 340" fill="none" xmlns="http://www.w3.org/2000/svg">
<path d="M-115.196 -63.347C-130.176 -52.257 -137.936 -36.847 -135.526 -24.097C-131.126 -0.856955 -93.5358 10.523 -69.5258 0.903046C-39.3758 -11.177 -29.7458 -56.727 -42.5258 -85.097C-60.9258 -125.947 -128.616 -137.427 -165.526 -112.097C-208.576 -82.547 -206.576 -5.08696 -169.526 39.903C-135.786 80.883 -71.9658 96.173 -26.5258 68.903C28.2942 35.993 27.5042 -41.557 9.47424 -87.097C-17.7858 -155.967 -100.056 -191.007 -171.526 -178.097C-236.256 -166.397 -293.876 -115.047 -303.526 -56.097C-321.056 51.023 -179.056 176.193 -62.5258 146.903C2.94424 130.443 47.4342 70.663 64.4742 16.903C66.2642 11.243 96.0642 -88.427 32.4742 -167.097C-35.3658 -251.027 -149.446 -236.737 -178.526 -233.097C-204.646 -229.827 -304.166 -217.357 -355.526 -133.097C-417.716 -31.057 -355.076 87.3431 -346.526 102.903C-289.356 206.943 -152.266 284.633 -15.5258 241.903C97.6242 206.543 175.514 99.673 178.474 -12.097C181.534 -127.857 103.024 -204.077 84.4742 -222.097C-13.1658 -316.897 -158.216 -331.597 -269.526 -294.097C-291.346 -286.747 -457.826 -227.997 -480.526 -90.097C-494.996 -2.17696 -443.146 70.0931 -399.526 130.903C-361.986 183.233 -301.306 267.813 -185.526 296.903C-35.5957 334.563 84.3242 248.423 98.4742 237.903C127.484 216.333 214.934 144.103 232.474 16.903C234.664 1.01305 249.394 -119.777 169.474 -224.097C73.3842 -349.517 -85.2257 -354.157 -151.526 -356.097C-205.946 -357.687 -440.796 -364.557 -530.526 -203.097C-606.136 -67.047 -526.236 94.0931 -503.526 139.903C-483.716 179.843 -431.876 280.693 -312.526 339.903C-295.246 348.473 -138.276 423.143 28.4742 348.903C133.324 302.223 185.374 221.893 216.474 173.903C251.514 119.823 320.164 13.883 296.474 -117.097C281.504 -199.887 236.584 -254.277 209.474 -287.097C183.894 -318.077 105.704 -412.747 -21.5258 -435.097C-74.5858 -444.417 -132.896 -430.647 -249.526 -403.097C-371.726 -374.237 -432.826 -359.797 -478.526 -324.097C-580.146 -244.687 -601.206 -122.177 -605.526 -97.097C-634.706 72.6131 -539.246 204.683 -507.266 243.753" stroke="white" stroke-opacity="0.4" stroke-width="3" stroke-miterlimit="10"/>
</svg>
