<svg width="59" height="162" viewBox="0 0 59 162" fill="none" xmlns="http://www.w3.org/2000/svg">
<path d="M199.134 150.787C193.16 155.209 190.066 161.354 191.027 166.438C192.781 175.705 207.771 180.243 217.345 176.407C229.367 171.59 233.207 153.426 228.111 142.114C220.774 125.825 193.782 121.247 179.064 131.347C161.898 143.131 162.695 174.018 177.469 191.958C190.923 208.299 216.372 214.396 234.491 203.522C256.351 190.399 256.036 159.476 248.846 141.316C237.976 113.854 205.171 99.8818 176.672 105.03C150.86 109.695 127.884 130.171 124.036 153.678C117.046 196.392 173.669 246.304 220.136 234.625C246.242 228.061 263.983 204.224 270.778 182.787C271.491 180.53 283.374 140.786 258.018 109.416C230.966 75.9486 185.476 81.6468 173.88 83.0982C163.465 84.4022 123.781 89.3746 103.301 122.974C78.5025 163.662 103.48 210.875 106.89 217.08C129.687 258.566 184.352 289.545 238.877 272.506C283.996 258.406 315.055 215.792 316.236 171.223C317.456 125.063 286.15 94.6701 278.753 87.4845C239.818 49.6826 181.979 43.821 137.594 58.7742C128.893 61.7051 62.5085 85.1319 53.4568 140.12C47.6868 175.178 68.3622 203.996 85.7559 228.245C100.725 249.111 124.921 282.838 171.089 294.438C230.874 309.455 278.693 275.106 284.335 270.911C295.903 262.31 330.774 233.508 337.768 182.787C338.642 176.451 344.515 128.285 312.647 86.687C274.331 36.6753 211.084 34.8251 184.647 34.0515C162.947 33.4175 69.2993 30.678 33.5191 95.0608C3.36933 149.311 35.2298 213.567 44.2855 231.833C52.1848 247.76 72.8562 287.974 120.447 311.584C127.338 315.002 189.93 344.777 256.423 315.173C298.232 296.559 318.987 264.527 331.388 245.391C345.361 223.826 372.735 181.582 363.289 129.354C357.319 96.3408 339.407 74.6526 328.597 61.5655C318.397 49.2121 287.218 11.4621 236.485 2.54994C215.327 -1.16645 192.076 4.32439 145.569 15.3101C96.8412 26.8181 72.4774 32.5761 54.2543 46.8116C13.7329 78.4767 5.33519 127.328 3.61257 137.329C-8.02307 205.001 30.042 257.665 42.7941 273.244" stroke="white" stroke-opacity="0.4" stroke-width="2" stroke-miterlimit="10"/>
</svg>
