<svg width="211" height="260" viewBox="0 0 211 260" fill="none" xmlns="http://www.w3.org/2000/svg">
<path d="M265.829 189.148C257.84 195.063 253.701 203.282 254.986 210.082C257.333 222.476 277.381 228.546 290.186 223.415C306.266 216.972 311.402 192.679 304.586 177.548C294.773 155.762 258.672 149.639 238.986 163.148C216.026 178.908 217.093 220.22 236.853 244.215C254.848 266.071 288.885 274.226 313.12 259.682C342.357 242.13 341.936 200.77 332.32 176.482C317.781 139.751 273.904 121.063 235.786 127.948C201.264 134.188 170.533 161.575 165.386 193.015C156.037 250.146 231.77 316.903 293.92 301.282C328.837 292.503 352.565 260.62 361.653 231.948C362.608 228.93 378.501 175.772 344.586 133.815C308.405 89.0524 247.562 96.6738 232.053 98.6151C218.122 100.359 165.045 107.01 137.653 151.948C104.485 206.37 137.893 269.516 142.453 277.815C172.944 333.303 246.058 374.738 318.986 351.948C379.333 333.09 420.874 276.092 422.453 216.482C424.085 154.743 382.213 114.092 372.32 104.482C320.245 53.9218 242.885 46.0818 183.52 66.0818C171.882 70.0018 83.0929 101.335 70.9862 174.882C63.2689 221.772 90.9222 260.316 114.186 292.748C134.208 320.658 166.57 365.767 228.32 381.282C308.282 401.367 372.24 355.426 379.786 349.815C395.258 338.311 441.898 299.788 451.253 231.948C452.421 223.474 460.277 159.052 417.653 103.415C366.405 36.5245 281.813 34.0498 246.453 33.0151C217.429 32.1671 92.1755 28.5031 44.3195 114.615C3.99418 187.175 46.6075 273.116 58.7195 297.548C69.2848 318.85 96.9329 372.636 160.586 404.215C169.802 408.786 253.52 448.61 342.453 409.015C398.373 384.119 426.133 341.276 442.72 315.682C461.408 286.839 498.021 230.338 485.386 160.482C477.402 116.327 453.445 87.3191 438.986 69.8151C425.344 53.2925 383.642 2.80179 315.786 -9.11821C287.488 -14.0889 256.389 -6.74488 194.186 7.94846C129.013 23.3405 96.4262 31.0418 72.0529 50.0818C17.8555 92.4338 6.62351 157.772 4.31951 171.148C-11.2432 261.66 39.6688 332.098 56.7248 352.935" stroke="white" stroke-opacity="0.4" stroke-width="2" stroke-miterlimit="10"/>
</svg>
