<svg width="395" height="340" viewBox="0 0 395 340" fill="none" xmlns="http://www.w3.org/2000/svg">
<path d="M497.804 354.653C482.824 365.743 475.064 381.153 477.474 393.903C481.874 417.143 519.464 428.523 543.474 418.903C573.624 406.823 583.254 361.273 570.474 332.903C552.074 292.053 484.384 280.573 447.474 305.903C404.424 335.453 406.424 412.913 443.474 457.903C477.214 498.883 541.034 514.173 586.474 486.903C641.294 453.993 640.504 376.443 622.474 330.903C595.214 262.033 512.944 226.993 441.474 239.903C376.744 251.603 319.124 302.953 309.474 361.903C291.944 469.023 433.944 594.193 550.474 564.903C615.944 548.443 660.434 488.663 677.474 434.903C679.264 429.243 709.064 329.573 645.474 250.903C577.634 166.973 463.554 181.263 434.474 184.903C408.354 188.173 308.834 200.643 257.474 284.903C195.284 386.943 257.924 505.343 266.474 520.903C323.644 624.943 460.734 702.633 597.474 659.903C710.624 624.543 788.514 517.673 791.474 405.903C794.534 290.143 716.024 213.923 697.474 195.903C599.834 101.103 454.784 86.403 343.474 123.903C321.654 131.253 155.174 190.003 132.474 327.903C118.004 415.823 169.854 488.093 213.474 548.903C251.014 601.233 311.694 685.813 427.474 714.903C577.404 752.563 697.324 666.423 711.474 655.903C740.484 634.333 827.934 562.103 845.474 434.903C847.664 419.013 862.394 298.223 782.474 193.903C686.384 68.483 527.774 63.8431 461.474 61.9031C407.054 60.3131 172.204 53.443 82.4743 214.903C6.86427 350.953 86.7643 512.093 109.474 557.903C129.284 597.843 181.124 698.693 300.474 757.903C317.754 766.473 474.724 841.143 641.474 766.903C746.324 720.223 798.374 639.893 829.474 591.903C864.514 537.823 933.164 431.883 909.474 300.903C894.504 218.113 849.584 163.723 822.474 130.903C796.894 99.923 718.704 5.25305 591.474 -17.0969C538.414 -26.4169 480.104 -12.6469 363.474 14.9031C241.274 43.7631 180.174 58.2031 134.474 93.9031C32.8543 173.313 11.7943 295.823 7.47427 320.903C-21.7057 490.613 73.7543 622.683 105.734 661.753" stroke="white" stroke-opacity="0.4" stroke-width="3" stroke-miterlimit="10"/>
</svg>
