<svg width="162" height="205" viewBox="0 0 162 205" fill="none" xmlns="http://www.w3.org/2000/svg">
<path d="M-61.4377 -33.785C-69.4271 -27.8704 -73.5657 -19.6517 -72.2804 -12.8517C-69.9337 -0.457032 -49.8858 5.6123 -37.0804 0.481635C-21.0004 -5.96103 -15.8644 -30.2544 -22.6804 -45.385C-32.4938 -67.1717 -68.5951 -73.2944 -88.2804 -59.785C-111.24 -44.025 -110.174 -2.71303 -90.4137 21.2816C-72.4191 43.1376 -38.3818 51.2923 -14.1471 36.7483C15.0902 19.1963 14.6689 -22.1637 5.05291 -46.4517C-9.48575 -83.1824 -53.3631 -101.87 -91.4804 -94.985C-126.003 -88.745 -156.734 -61.3584 -161.88 -29.9184C-171.23 27.2123 -95.4964 93.9696 -33.3471 78.3483C1.57025 69.5696 25.2982 37.687 34.3862 9.01497C35.3409 5.9963 51.2343 -47.161 17.3196 -89.1184C-18.8618 -133.881 -79.7044 -126.26 -95.2137 -124.318C-109.144 -122.574 -162.222 -115.924 -189.614 -70.985C-222.782 -16.5637 -189.374 46.583 -184.814 54.8816C-154.323 110.37 -81.2084 151.804 -8.28042 129.015C52.0663 110.156 93.6076 53.159 95.1863 -6.4517C96.8183 -68.1904 54.9462 -108.841 45.0529 -118.452C-7.02175 -169.012 -84.3817 -176.852 -143.747 -156.852C-155.384 -152.932 -244.174 -121.598 -256.28 -48.0517C-263.998 -1.16103 -236.344 37.383 -213.08 69.815C-193.059 97.7243 -160.696 142.834 -98.9471 158.348C-18.9844 178.434 44.9729 132.492 52.5196 126.882C67.9916 115.378 114.632 76.855 123.986 9.01497C125.154 0.540301 133.01 -63.881 90.3863 -119.518C39.1383 -186.409 -45.4537 -188.884 -80.8137 -189.918C-109.838 -190.766 -235.091 -194.43 -282.947 -108.318C-323.272 -35.7584 -280.659 50.183 -268.547 74.615C-257.982 95.9163 -230.334 149.703 -166.68 181.282C-157.464 185.852 -73.7471 225.676 15.1862 186.082C71.1063 161.186 98.8663 118.343 115.453 92.7483C134.141 63.9056 170.754 7.4043 158.12 -62.4517C150.136 -106.606 126.178 -135.614 111.72 -153.118C98.0769 -169.641 56.3756 -220.132 -11.4804 -232.052C-39.7791 -237.022 -70.8777 -229.678 -133.08 -214.985C-198.254 -199.593 -230.84 -191.892 -255.214 -172.852C-309.411 -130.5 -320.643 -65.161 -322.947 -51.785C-338.51 38.727 -287.598 109.164 -270.542 130.002" stroke="white" stroke-opacity="0.4" stroke-width="2" stroke-miterlimit="10"/>
</svg>
