<svg width="209" height="30" viewBox="0 0 209 30" fill="none" xmlns="http://www.w3.org/2000/svg">
<path d="M-149.333 2.28516C-131.527 2.28516 -131.527 27.105 -113.721 27.105C-95.9145 27.105 -95.9145 2.28516 -78.1082 2.28516C-60.3019 2.28516 -60.3019 27.105 -42.5374 27.105C-24.7306 27.105 -24.7306 2.28516 -6.96658 2.28516C10.8401 2.28516 10.8401 27.105 28.6041 27.105C46.4108 27.105 46.4108 2.28516 64.2161 2.28516C82.0228 2.28516 82.0227 27.105 99.8294 27.105C117.635 27.105 117.635 2.28516 135.441 2.28516C153.248 2.28516 153.248 27.105 171.055 27.105C188.86 27.105 188.86 2.28516 206.667 2.28516" stroke="#FFDADA" stroke-width="4" stroke-miterlimit="10" stroke-linecap="round"/>
</svg>
