<svg width="84" height="13" viewBox="0 0 84 13" fill="none" xmlns="http://www.w3.org/2000/svg">
<path d="M-59.7334 1.44336C-52.6109 1.44336 -52.6109 11.3636 -45.4884 11.3636C-38.3659 11.3636 -38.3659 1.44336 -31.2434 1.44336C-24.1209 1.44336 -24.1209 11.3636 -17.0151 11.3636C-9.89233 11.3636 -9.89233 1.44336 -2.78673 1.44336C4.33593 1.44336 4.33593 11.3636 11.4415 11.3636C18.5642 11.3636 18.5642 1.44336 25.6863 1.44336C32.809 1.44336 32.809 11.3636 39.9317 11.3636C47.0538 11.3636 47.0538 1.44336 54.1765 1.44336C61.2991 1.44336 61.2991 11.3636 68.4218 11.3636C75.5439 11.3636 75.5439 1.44336 82.6666 1.44336" stroke="#FFDADA" stroke-width="2" stroke-miterlimit="10" stroke-linecap="round"/>
</svg>
