<svg width="157" height="22" viewBox="0 0 157 22" fill="none" xmlns="http://www.w3.org/2000/svg">
<path d="M-112 1.51758C-98.6453 1.51758 -98.6453 20.1293 -85.2906 20.1293C-71.9359 20.1293 -71.9359 1.51758 -58.5812 1.51758C-45.2265 1.51758 -45.2265 20.1293 -31.9031 20.1293C-18.548 20.1293 -18.548 1.51758 -5.225 1.51758C8.13 1.51758 8.13 20.1293 21.453 20.1293C34.808 20.1293 34.808 1.51758 48.162 1.51758C61.517 1.51758 61.517 20.1293 74.872 20.1293C88.226 20.1293 88.226 1.51758 101.581 1.51758C114.936 1.51758 114.936 20.1293 128.291 20.1293C141.645 20.1293 141.645 1.51758 155 1.51758" stroke="#FFDADA" stroke-width="3" stroke-miterlimit="10" stroke-linecap="round"/>
</svg>
