<svg width="74" height="234" viewBox="0 0 74 234" fill="none" xmlns="http://www.w3.org/2000/svg">
<path d="M145.835 42.0402C151.886 45.8484 158.319 46.3321 162.305 43.4805C169.569 38.28 167.764 22.6841 160.849 15.3241C152.165 6.08201 135.164 9.55266 127.417 18.6294C116.262 31.6984 122.587 58.3943 136.815 68.0847C153.413 79.3861 179.542 66.7168 189.288 46.1421C198.167 27.404 193.727 1.54629 177.546 -10.9865C158.021 -26.1047 131.678 -13.8671 118.866 -0.21197C99.4905 20.4362 99.9823 56.1309 115.202 80.4616C128.989 102.497 155.23 115.805 176.806 110.278C216.011 100.231 237.237 28.6561 209.61 -9.74506C194.086 -31.3193 166.956 -38.4941 146.032 -36.4875C143.83 -36.2747 105.31 -31.8947 88.0876 3.64208C69.713 41.5543 91.851 81.3639 97.4933 91.5122C102.561 100.627 121.875 135.356 158.399 141.289C202.629 148.472 233.552 107.165 237.568 101.619C264.42 64.5381 270.186 2.08521 234.915 -41.688C205.728 -77.9094 157.475 -90.1298 118.887 -74.0016C78.9228 -57.2956 64.7937 -16.6418 61.4515 -7.03465C43.8768 43.5262 60.8087 99.2068 90.4476 134.421C96.2573 141.324 141.495 193.581 191.986 180.697C224.177 172.482 240.992 142.254 255.142 116.823C267.319 94.9373 286.999 59.5617 279.406 12.4433C269.57 -48.5714 222.031 -79.4632 216.3 -83.0534C204.55 -90.4138 166.671 -111.491 120.612 -98.3551C114.858 -96.7137 71.4119 -83.5304 47.9074 -38.0286C19.6496 16.6784 42.0661 75.8029 51.4362 100.517C59.1281 120.803 92.3197 208.347 160.993 216.518C218.858 223.404 261.755 169.156 273.95 153.736C284.581 140.288 311.151 105.661 313.296 52.5881C313.606 44.9044 315.334 -24.4043 264.769 -74.3748C232.975 -105.796 197.688 -112.589 176.606 -116.649C152.851 -121.222 106.313 -130.183 65.2026 -101.281C39.217 -83.0143 27.4544 -58.0933 20.3572 -43.0538C13.6564 -28.8613 -6.81696 14.5169 4.80806 64.8136C9.65645 85.7892 23.1783 105.141 50.2269 143.847C78.5654 184.403 92.738 204.679 111.835 216.009C154.309 241.198 199.3 230.081 208.512 227.808C270.838 212.41 301.46 156.911 309.953 139.115" stroke="white" stroke-opacity="0.4" stroke-width="2" stroke-miterlimit="10"/>
</svg>
