<svg width="176" height="477" viewBox="0 0 176 477" fill="none" xmlns="http://www.w3.org/2000/svg">
<path d="M-50.5057 210.654C-51.3838 220.555 -47.9829 229.106 -42.0433 232.657C-31.2144 239.128 -13.369 228.16 -8.70822 215.176C-2.85547 198.872 -17.6186 178.907 -33.4603 173.964C-56.27 166.845 -84.8095 189.786 -87.7691 213.477C-91.2184 241.111 -59.6084 267.731 -28.5457 268.875C-0.254362 269.92 28.4353 249.872 33.6402 222.091C39.9153 188.572 8.69768 161.438 -15.8521 152.511C-52.9763 139.009 -96.0757 159.427 -116.223 192.509C-134.467 222.474 -134.377 263.637 -114.275 288.353C-77.7454 333.263 22.4529 320.919 52.0151 264.062C68.6224 232.117 60.5215 193.208 45.1058 167.381C43.4814 164.664 14.2669 117.496 -39.6263 115.018C-97.1224 112.375 -131.802 162.944 -140.643 175.834C-148.584 187.412 -178.835 231.528 -163.4 281.843C-144.705 342.771 -75.2976 359.691 -66.0637 361.787C-4.32171 375.806 75.1968 348.615 106.551 278.938C132.495 221.282 117.43 152.38 73.8882 111.637C28.7898 69.4416 -29.4072 73.7835 -43.1621 74.8055C-115.543 80.2026 -172.749 132.866 -197.189 190.546C-201.98 201.852 -237.47 289.064 -190.491 346.931C-160.537 383.824 -113.353 388.72 -73.6533 392.842C-39.4889 396.389 15.7321 402.119 68.3191 366.226C136.413 319.743 144.495 241.412 145.307 232.043C146.97 212.835 149.108 152.381 104.572 100.359C99.0075 93.861 56.0332 45.2294 -13.8732 40.1875C-97.9208 34.1279 -155.914 95.7617 -180.156 121.525C-200.052 142.673 -285.921 233.932 -253.269 326.88C-225.756 405.201 -133.189 430.363 -106.875 437.518C-83.9292 443.752 -25.3465 458.768 40.5203 432.113C50.0558 428.252 135.406 392.061 164.812 299.259C183.302 240.907 169.679 191.708 161.542 162.314C152.37 129.193 134.406 64.3069 73.7669 27.3958C35.4396 4.06342 -2.15884 2.73189 -24.8481 1.93016C-46.2616 1.16935 -111.706 -1.14699 -165.657 41.6994C-188.156 59.5683 -203.302 87.7047 -233.594 143.985C-265.335 202.951 -281.201 232.438 -283.135 263.306C-287.425 331.955 -246.005 383.72 -237.528 394.321C-180.153 466.033 -93.675 474.698 -66.7686 475.769" stroke="white" stroke-opacity="0.4" stroke-width="2" stroke-miterlimit="10"/>
</svg>
