<svg width="631" height="431" viewBox="0 0 631 431" fill="none" xmlns="http://www.w3.org/2000/svg">
<path d="M664.462 -130.815C639.746 -133.402 618.238 -125.24 609.125 -110.534C592.521 -83.7216 619.23 -38.6789 651.501 -26.5136C692.023 -11.2372 742.514 -47.3489 755.5 -86.7521C774.199 -143.487 717.985 -215.736 658.883 -224.074C589.943 -233.791 522.148 -155.832 518.057 -78.23C514.323 -7.55191 563.3 64.9582 632.537 79.0701C716.075 96.0846 785.14 19.1262 808.427 -41.8867C843.65 -134.15 794.32 -242.695 712.424 -294.368C638.244 -341.161 535.346 -342.567 472.767 -293.299C359.058 -203.766 385.943 47.1872 526.894 123.338C606.088 166.117 703.669 147.41 768.839 109.899C775.697 105.947 894.76 34.7896 903.089 -99.8284C911.978 -243.446 786.945 -332.137 755.075 -354.748C726.449 -375.057 617.371 -452.426 490.988 -415.837C337.945 -371.52 292.9 -198.695 287.293 -175.697C249.802 -21.9169 314.62 177.932 487.546 259.07C630.64 326.208 803.47 291.283 907.042 184.056C1014.3 72.9974 1005.76 -72.6489 1003.75 -107.072C993.128 -288.215 863.754 -433.302 720.541 -496.679C692.469 -509.104 475.875 -601.275 329.362 -486.136C235.954 -412.725 221.845 -294.972 209.966 -195.9C199.746 -110.64 183.233 27.1681 270.869 160.042C384.363 332.098 579.846 355.407 603.233 357.807C651.182 362.726 802.213 370.468 934.016 261.202C950.48 247.551 1073.75 142.057 1089.12 -32.4869C1107.6 -242.339 955.835 -389.747 892.397 -451.365C840.323 -501.94 615.606 -720.203 381.971 -642.268C185.104 -576.599 118.537 -346.207 99.608 -280.714C83.1147 -223.604 43.257 -77.7612 107.276 87.9419C116.548 111.93 203.632 326.715 434.441 403.899C579.57 452.432 703.092 420.329 776.889 401.154C860.046 379.541 1022.95 337.207 1117.62 187.093C1177.47 92.2117 1182.29 -1.71982 1185.19 -58.4039C1187.94 -111.901 1196.32 -275.399 1091.36 -411.958C1047.59 -468.908 977.854 -507.884 838.372 -585.835C692.234 -667.515 619.155 -708.345 542.072 -714.403C370.641 -727.847 239.601 -626.362 212.767 -605.595C31.2343 -465.016 6.14659 -249.193 2.40236 -181.978" stroke="white" stroke-opacity="0.4" stroke-width="3" stroke-miterlimit="10"/>
</svg>
