<svg width="147" height="183" viewBox="0 0 147 183" fill="none" xmlns="http://www.w3.org/2000/svg">
<path d="M266.237 -43.0461C256.35 -44.0811 247.747 -40.8162 244.102 -34.9337C237.46 -24.2088 248.144 -6.19171 261.052 -1.32558C277.261 4.78498 297.457 -9.65972 302.651 -25.421C310.131 -48.1149 287.646 -77.0147 264.005 -80.3496C236.429 -84.2367 209.311 -53.0528 207.674 -22.0121C206.181 6.25908 225.772 35.2631 253.466 40.9079C286.881 47.7137 314.508 16.9303 323.822 -7.47482C337.912 -44.3802 318.18 -87.798 285.421 -108.467C255.749 -127.185 214.59 -127.747 189.559 -108.04C144.075 -72.2267 154.829 28.1547 211.209 58.6149C242.887 75.7267 281.919 68.2437 307.987 53.2396C310.73 51.6585 358.356 23.1957 361.687 -30.6515C365.243 -88.0984 315.23 -123.575 302.482 -132.619C291.031 -140.743 247.4 -171.69 196.847 -157.055C135.63 -139.328 117.612 -70.1983 115.369 -60.9988C100.373 0.513102 126.3 80.4528 195.47 112.908C252.708 139.763 321.84 125.793 363.268 82.9024C406.174 38.4788 402.755 -19.7797 401.951 -33.5491C397.703 -106.006 345.953 -164.041 288.668 -189.392C277.439 -194.362 190.802 -231.23 132.197 -185.174C94.8331 -155.81 89.1897 -108.709 84.4381 -69.08C80.3502 -34.9761 73.7449 20.1471 108.799 73.2967C154.197 142.119 232.39 151.442 241.745 152.403C260.924 154.37 321.337 157.467 374.058 113.761C380.644 108.3 429.951 66.1027 436.101 -3.71492C443.492 -87.6559 382.786 -146.619 357.41 -171.266C336.581 -191.496 246.694 -278.801 153.24 -247.627C74.4931 -221.36 47.8663 -129.203 40.2949 -103.006C33.6976 -80.1619 17.7545 -21.8246 43.3623 44.4566C47.0708 54.052 81.9044 139.966 174.228 170.839C232.28 190.253 281.688 177.411 311.207 169.742C344.47 161.096 409.633 144.163 447.501 84.117C471.438 46.1645 473.366 8.59192 474.527 -14.0817C475.627 -35.4806 478.981 -100.88 436.996 -155.503C419.486 -178.283 391.593 -193.874 335.8 -225.054C277.345 -257.726 248.114 -274.058 217.28 -276.481C148.708 -281.859 96.2922 -241.265 85.5584 -232.958C12.9454 -176.726 2.91031 -90.3972 1.41262 -63.5112" stroke="white" stroke-opacity="0.4" stroke-width="2" stroke-miterlimit="10"/>
</svg>
