<svg width="328" height="815" viewBox="0 0 328 815" fill="none" xmlns="http://www.w3.org/2000/svg">
<path d="M-94.698 394.226C-96.3444 412.792 -89.9676 428.823 -78.8309 435.483C-58.5268 447.615 -25.0667 427.05 -16.3276 402.706C-5.35373 372.136 -33.0347 334.702 -62.7377 325.433C-105.506 312.085 -159.018 355.099 -164.567 399.519C-171.034 451.333 -111.766 501.246 -53.5229 503.391C-0.476642 505.35 53.3166 467.759 63.0757 415.671C74.8414 352.823 16.3084 301.946 -29.7224 285.208C-99.3302 259.892 -180.142 298.176 -217.918 360.205C-252.126 416.389 -251.957 493.569 -214.266 539.912C-145.772 624.118 42.0994 600.972 97.5286 494.367C128.667 434.47 113.478 361.516 84.5737 313.09C81.5279 307.995 26.7508 219.555 -74.2991 214.91C-182.104 209.952 -247.128 304.77 -263.705 328.938C-278.594 350.647 -335.316 433.365 -306.374 527.705C-271.321 641.946 -141.183 673.67 -123.869 677.602C-8.10292 703.887 140.994 652.902 199.783 522.259C248.429 414.154 220.182 284.963 138.541 208.57C53.9812 129.453 -55.1382 137.594 -80.9287 139.51C-216.642 149.63 -323.905 248.374 -369.729 356.523C-378.712 377.723 -445.256 541.244 -357.17 649.746C-301.007 718.92 -212.536 728.1 -138.1 735.829C-74.0415 742.479 29.4979 753.224 128.099 685.925C255.774 598.769 270.929 451.897 272.451 434.331C275.569 398.315 279.579 284.964 196.072 187.423C185.639 175.239 105.062 84.0551 -26.0119 74.6015C-183.601 63.2398 -292.338 178.803 -337.791 227.109C-375.098 266.761 -536.102 437.873 -474.879 612.151C-423.293 759.002 -249.729 806.181 -200.39 819.596C-157.367 831.285 -47.5243 859.44 75.9759 809.461C93.8548 802.223 253.887 734.364 309.023 560.36C343.692 450.95 318.149 358.703 302.892 303.589C285.694 241.487 252.011 119.825 138.313 50.6171C66.4496 6.8689 -4.04755 4.37228 -46.5898 2.86904C-86.7403 1.44251 -209.448 -2.90061 -310.606 77.4363C-352.793 110.941 -381.192 163.696 -437.989 269.222C-497.503 379.783 -527.252 435.071 -530.878 492.948C-538.921 621.665 -461.259 718.725 -445.366 738.602C-337.786 873.062 -175.64 889.309 -125.191 891.317" stroke="white" stroke-opacity="0.4" stroke-width="3" stroke-miterlimit="10"/>
</svg>
