<svg width="253" height="173" viewBox="0 0 253 173" fill="none" xmlns="http://www.w3.org/2000/svg">
<path d="M266.385 -52.4597C256.499 -53.4947 247.895 -50.2297 244.25 -44.3473C237.608 -33.6224 248.292 -15.6053 261.2 -10.7392C277.409 -4.62859 297.606 -19.0733 302.8 -34.8345C310.28 -57.5285 287.794 -86.4283 264.153 -89.7631C236.577 -93.6503 209.459 -62.4664 207.823 -31.4257C206.329 -3.15449 225.92 25.8495 253.615 31.4943C287.03 38.3001 314.656 7.51674 323.971 -16.8884C338.06 -53.7938 318.328 -97.2116 285.57 -117.881C255.898 -136.598 214.739 -137.161 189.707 -117.453C144.223 -81.6403 154.977 18.7412 211.358 49.2013C243.035 66.3131 282.068 58.8302 308.136 43.8261C310.879 42.2449 358.504 13.7821 361.836 -40.0651C365.391 -97.512 315.378 -132.989 302.63 -142.033C291.18 -150.157 247.548 -181.104 196.995 -166.468C135.778 -148.742 117.76 -79.6119 115.517 -70.4124C100.521 -8.90047 126.448 71.0393 195.618 103.494C252.856 130.35 321.988 116.379 363.417 73.4888C406.322 29.0652 402.904 -29.1933 402.1 -42.9627C397.851 -115.42 346.102 -173.454 288.817 -198.805C277.588 -203.775 190.95 -240.644 132.345 -194.588C94.9815 -165.224 89.3382 -118.123 84.5865 -78.4935C80.4986 -44.3897 73.8933 10.7335 108.948 63.8831C154.345 132.705 232.539 142.029 241.893 142.989C261.073 144.957 321.485 148.054 374.207 104.347C380.792 98.8869 430.099 56.6891 436.249 -13.1285C443.641 -97.0694 382.934 -156.033 357.559 -180.68C336.729 -200.91 246.843 -288.215 153.389 -257.041C74.6415 -230.773 48.0147 -138.617 40.4433 -112.419C33.846 -89.5754 17.9029 -31.2382 43.5107 35.043C47.2193 44.6385 82.0528 130.552 174.377 161.426C232.428 180.839 281.837 167.998 311.356 160.328C344.618 151.682 409.781 134.749 447.649 74.7034C471.587 36.751 473.514 -0.821652 474.676 -23.4953C475.776 -44.8941 479.13 -110.293 437.144 -164.917C419.634 -187.697 391.742 -203.287 335.949 -234.468C277.494 -267.14 248.262 -283.472 217.429 -285.895C148.857 -291.273 96.4407 -250.679 85.7068 -242.372C13.0938 -186.14 3.05875 -99.8108 1.56106 -72.9248" stroke="white" stroke-opacity="0.4" stroke-width="2" stroke-miterlimit="10"/>
</svg>
