<svg width="249" height="427" viewBox="0 0 249 427" fill="none" xmlns="http://www.w3.org/2000/svg">
<path d="M311.945 235.768C302.567 242.709 297.708 252.354 299.217 260.334C301.972 274.879 325.507 282.002 340.539 275.981C359.416 268.42 365.446 239.911 357.444 222.155C345.924 196.588 303.543 189.403 280.434 205.256C253.48 223.751 254.733 272.232 277.93 300.39C299.054 326.038 339.012 335.608 367.462 318.54C401.784 297.943 401.29 249.406 390.001 220.903C372.934 177.799 321.425 155.868 276.677 163.948C236.15 171.271 200.074 203.41 194.032 240.306C183.057 307.35 271.963 385.691 344.922 367.359C385.913 357.057 413.768 319.642 424.436 285.995C425.557 282.452 444.215 220.071 404.401 170.833C361.927 118.303 290.502 127.247 272.295 129.525C255.941 131.571 193.632 139.376 161.475 192.113C122.538 255.978 161.757 330.082 167.11 339.82C202.904 404.937 288.736 453.561 374.349 426.818C445.192 404.686 493.958 337.799 495.812 267.844C497.728 195.392 448.573 147.688 436.958 136.41C375.826 77.0762 285.011 67.8757 215.32 91.3462C201.658 95.9464 97.4255 132.717 83.2131 219.026C74.1535 274.053 106.617 319.285 133.927 357.345C157.431 390.097 195.422 443.034 267.912 461.241C361.783 484.812 436.865 430.898 445.724 424.314C463.887 410.814 518.639 365.607 529.621 285.995C530.992 276.049 540.215 200.45 490.177 135.158C430.015 56.66 330.71 53.7559 289.199 52.5417C255.127 51.5466 108.088 47.2468 51.9082 148.301C4.56894 233.452 54.5942 334.306 68.8129 362.978C81.2159 387.975 113.673 451.095 188.398 488.154C199.217 493.518 297.495 540.252 401.897 493.787C467.543 464.571 500.132 414.294 519.603 384.258C541.542 350.41 584.523 284.105 569.691 202.127C560.319 150.31 532.194 116.269 515.221 95.7274C499.205 76.3376 450.251 17.0856 370.592 3.09723C337.371 -2.73596 300.864 5.8824 227.842 23.1254C151.333 41.1883 113.078 50.2259 84.4653 72.5698C20.8412 122.271 7.65561 198.947 4.95087 214.644C-13.3187 320.862 46.4486 403.522 66.4713 427.975" stroke="white" stroke-opacity="0.4" stroke-width="2" stroke-miterlimit="10"/>
</svg>
