<svg width="88" height="88" viewBox="0 0 88 88" fill="none" xmlns="http://www.w3.org/2000/svg">
<circle cx="43.7898" cy="43.7903" r="43.4568" fill="#FDACAC"/>
<g clip-path="url(#clip0_923_19)">
<path d="M19.6283 51.7504L18.1727 52.2981L18.485 50.7024L17.2941 50.4917L17.0612 52.0506L15.8756 51.0131L15.1081 51.94L16.3731 52.9564L14.9229 53.4778L15.3304 54.5943L16.7754 54.0413L16.4737 55.6318L17.6699 55.853L17.8922 54.2994L19.0831 55.3316L19.8453 54.3942L18.575 53.383L20.0412 52.8669L19.6283 51.7504Z" fill="#635D5D"/>
<path d="M20.8193 69.92L22.4813 71.126L24.3921 68.5191L27.7214 70.9364L28.69 69.6093L25.366 67.1919L26.7528 65.3065L30.5161 68.0398L31.49 66.7127L26.0594 62.7681L20.8193 69.92Z" fill="#635D5D"/>
<path d="M40.4242 69.7723C39.8471 69.368 39.1905 69.0897 38.4975 68.9559L34.7395 68.1396L32.8394 76.782L34.8507 77.2191L35.38 74.8123L37.132 75.1915H37.2273L38.3652 77.9669L40.5354 78.4409L39.1856 75.281C39.7655 75.1762 40.3014 74.9032 40.7259 74.4963C41.1538 74.0637 41.4414 73.5134 41.5516 72.9164C41.6982 72.3271 41.6669 71.7079 41.4616 71.1363C41.2564 70.591 40.8959 70.117 40.4242 69.7723ZM39.5456 72.474C39.5107 72.6832 39.4294 72.882 39.3076 73.056C39.1859 73.23 39.0267 73.3748 38.8416 73.4799C38.3775 73.6889 37.8532 73.7245 37.3648 73.5799L35.7293 73.2218L36.391 70.2094L38.0265 70.5675C38.5303 70.6361 38.9925 70.8829 39.3285 71.2627C39.4498 71.4363 39.5307 71.6346 39.5655 71.8432C39.6003 72.0518 39.588 72.2654 39.5297 72.4687L39.5456 72.474Z" fill="#635D5D"/>
<path d="M49.4914 76.2607L49.0732 74.2541L53.1171 73.4273L52.7942 71.8684L48.7504 72.6952L48.364 70.8151L52.9424 69.8777L52.609 68.2661L46.0298 69.6143L47.8188 78.283L54.5621 76.8979L54.2286 75.2916L49.4914 76.2607Z" fill="#635D5D"/>
<path d="M62.0565 71.3733L60.8709 69.6985L64.2531 67.3391L63.3321 66.0331L59.9552 68.3924L58.8437 66.823L62.6705 64.1476L61.723 62.8047L56.2236 66.644L61.3313 73.8854L66.9631 69.9513L66.0156 68.6084L62.0565 71.3733Z" fill="#635D5D"/>
<path d="M72.5101 52.2932L71.7585 51.3399L70.5676 52.3669L70.3506 50.8027L69.1544 51.0134L69.4455 52.6091L68.0005 52.0351L67.5718 53.1463L69.0326 53.6888L67.7464 54.6841L68.498 55.6216L69.7048 54.6051L69.9113 56.1588L71.1022 55.9639L70.8217 54.3682L72.2614 54.9264L72.6848 53.8204L71.2345 53.2885L72.5101 52.2932Z" fill="#635D5D"/>
<path d="M17.4422 40.9753L10.3338 39.7587L11.0113 35.8246L18.125 37.0412L18.4691 35.0346L9.70918 33.5337L8.33301 41.4808L17.0982 42.9818L17.4422 40.9753Z" fill="#635D5D"/>
<path d="M15.267 27.0188C15.894 28.1145 16.9309 28.919 18.1517 29.2571C18.7318 29.4089 19.337 29.4412 19.9302 29.3519C20.5381 29.2588 21.1211 29.0457 21.6451 28.7252C22.2132 28.3785 22.7121 27.9303 23.1165 27.4033C23.5248 26.8905 23.8336 26.3065 24.0269 25.6812C24.2067 25.1023 24.2714 24.4941 24.2175 23.8905C24.1593 23.2952 23.9792 22.7181 23.6882 22.1947C23.3836 21.6448 22.9672 21.1641 22.4655 20.7833C21.9859 20.4 21.4315 20.1201 20.8374 19.9614C20.2433 19.8028 19.6225 19.7688 19.0145 19.8617C18.4112 19.9537 17.8321 20.1631 17.3101 20.4778C16.1827 21.178 15.3409 22.2527 14.9336 23.5114C14.752 24.0953 14.6873 24.709 14.743 25.3178C14.7977 25.9147 14.9761 26.4939 15.267 27.0188ZM16.7173 23.8589C16.8277 23.4995 17.0075 23.165 17.2466 22.8741C17.4767 22.5752 17.7624 22.3231 18.0882 22.1315C18.396 21.9504 18.7386 21.8356 19.0939 21.7945C19.4496 21.7564 19.8093 21.7886 20.1525 21.8893C20.9115 22.127 21.5583 22.6303 21.9732 23.306C22.1586 23.6173 22.2775 23.9633 22.3226 24.3224C22.3661 24.6756 22.3374 25.0339 22.2379 25.3757C22.1276 25.7351 21.9478 26.0697 21.7086 26.3605C21.4786 26.6595 21.1928 26.9116 20.867 27.1031C20.5592 27.2843 20.2166 27.3992 19.8613 27.4402C19.5053 27.477 19.1455 27.443 18.8028 27.3401C18.0458 27.1038 17.4007 26.6023 16.9872 25.9287C16.8018 25.6173 16.6829 25.2713 16.6379 24.9122C16.5919 24.5577 16.6189 24.1975 16.7173 23.8537V23.8589Z" fill="#635D5D"/>
<path d="M28.1922 16.9022C28.3493 17.3543 28.4644 17.8197 28.5362 18.2926C28.5999 18.6428 28.5836 19.0028 28.4886 19.3459C28.4466 19.4809 28.3742 19.6047 28.277 19.7078C28.1798 19.8109 28.0603 19.8906 27.9276 19.941L27.6735 20.0569L29.1079 23.2536L30.844 22.4742L30.0871 20.8047L35.8088 18.2346L36.5657 19.9041L38.3018 19.1247L36.8568 15.9332L35.7241 16.4598L32.7547 9.91357L26.5249 12.7101L27.5835 15.2749C27.8164 15.8472 28.0193 16.3896 28.1922 16.9022ZM31.5903 12.2414L33.8663 17.2656L30.23 18.8982C30.2674 18.7749 30.2905 18.6476 30.2988 18.519C30.3134 18.1656 30.2831 17.8117 30.2088 17.4657C30.1178 17.0247 29.9976 16.5901 29.8489 16.1649C29.6901 15.7015 29.5137 15.2152 29.3196 14.7061L28.8221 13.5159L31.5903 12.2414Z" fill="#635D5D"/>
<path d="M47.697 15.4591L48.3639 17.4024L50.5182 17.5341L47.1042 8.45989L45.077 8.3335L40.5674 16.9179L42.6846 17.0495L43.5949 15.2063L47.697 15.4591ZM45.9503 10.398L47.1465 13.8633L44.3254 13.6895L45.9503 10.398Z" fill="#635D5D"/>
<path d="M58.6426 18.7664C59.2444 19.1324 59.9173 19.3675 60.6169 19.4563C61.203 19.5286 61.7975 19.4279 62.3265 19.1666C62.8543 18.871 63.2927 18.44 63.5962 17.9185C63.8997 17.397 64.0571 16.8041 64.0521 16.2016C64.0171 15.6142 63.809 15.05 63.4539 14.5795C63.0269 14.0201 62.4858 13.5571 61.8661 13.2207L58.5368 11.3037L54.0801 18.9612L55.8638 19.9882L57.0918 17.8816L58.6426 18.7664ZM59.4789 13.7737L60.9292 14.6111C61.3873 14.8284 61.7517 15.2022 61.956 15.6644C62.0217 15.8665 62.0411 16.0807 62.0127 16.2912C61.9843 16.5017 61.9089 16.7032 61.7919 16.8809C61.6955 17.0686 61.5579 17.2323 61.3894 17.3599C61.2208 17.4876 61.0255 17.5758 60.8181 17.6183C60.3122 17.6743 59.803 17.5472 59.3836 17.2601L57.9334 16.4228L59.4789 13.7737Z" fill="#635D5D"/>
<path d="M64.7616 27.2769L67.7098 25.2493L68.5143 26.4079L66.8894 30.3315L68.2179 32.2432L70.2928 27.1926L75.4799 27.1347L74.2413 25.3599L69.9593 25.4863L69.1177 24.275L72.0712 22.2421L70.9068 20.5674L63.5972 25.6022L64.7616 27.2769Z" fill="#635D5D"/>
<path d="M69.742 37.5466L76.0724 40.8961L70.3506 41.7282L70.6418 43.7295L79.444 42.455L79.1635 40.5538L72.8225 37.2043L78.5548 36.3722L78.2584 34.3604L69.4614 35.6348L69.742 37.5466Z" fill="#635D5D"/>
</g>
<defs>
<clipPath id="clip0_923_19">
<rect width="71.1111" height="70.1235" fill="white" transform="translate(8.33301 8.3335)"/>
</clipPath>
</defs>
</svg>
