<svg width="59" height="303" viewBox="0 0 59 303" fill="none" xmlns="http://www.w3.org/2000/svg">
<path d="M-65.3869 164.264C-68.9496 159.277 -73.9781 156.636 -78.1916 157.351C-85.8716 158.657 -89.8444 170.936 -86.82 178.88C-83.0221 188.855 -68.0787 192.291 -58.659 188.263C-45.0956 182.464 -40.9096 160.299 -49.0306 148.024C-58.5047 133.707 -84.0268 133.901 -99.0653 145.801C-112.763 156.638 -118.181 177.508 -109.472 192.597C-98.9619 210.8 -73.4174 211.004 -58.3116 205.355C-35.4672 196.813 -23.4349 170.001 -27.2587 146.449C-30.7244 125.118 -47.2908 105.884 -66.6472 102.362C-101.82 95.9628 -143.893 141.855 -134.945 180.305C-129.916 201.908 -110.494 216.879 -92.8915 222.798C-91.0382 223.419 -58.3919 233.804 -32.1026 213.388C-4.05558 191.608 -8.07883 154.052 -9.10352 144.479C-10.0241 135.88 -13.5351 103.117 -40.9772 85.7431C-74.2101 64.7054 -113.578 84.5712 -118.754 87.2864C-153.36 105.442 -179.766 150.005 -166.513 195.174C-155.545 232.551 -120.815 258.774 -84.0233 260.415C-45.918 262.114 -20.3462 236.783 -14.3006 230.798C17.5047 199.294 23.2142 151.74 11.5306 114.954C9.24059 107.743 -9.11113 52.7099 -54.3903 44.4284C-83.2586 39.1493 -107.37 55.7472 -127.658 69.7105C-145.117 81.7276 -173.335 101.152 -183.608 139.007C-196.908 188.027 -169.258 227.931 -165.878 232.642C-158.948 242.3 -135.683 271.456 -93.8972 277.979C-88.6772 278.793 -48.9852 284.354 -14.1508 258.728C27.7294 227.918 30.207 175.849 31.2428 154.084C32.0922 136.218 35.7607 59.1211 -16.8763 28.682C-61.2295 3.03277 -114.777 28.3119 -129.999 35.497C-143.271 41.7646 -176.795 58.1882 -197.009 97.0352C-199.935 102.66 -225.466 153.771 -202.015 208.986C-187.269 243.704 -161.125 261.281 -145.507 271.783C-127.906 283.616 -93.4276 306.799 -50.1497 299.802C-22.7946 295.381 -4.61324 280.952 6.35777 272.244C16.7136 264.027 48.3597 238.912 56.4819 197.256C59.8689 179.884 55.6831 160.649 47.3081 122.176C38.5351 81.8657 34.1453 61.7104 22.6617 46.4862C-2.8823 12.6328 -43.1028 4.9821 -51.3366 3.41302C-107.053 -7.18735 -151.12 23.3766 -164.178 33.6468" stroke="white" stroke-opacity="0.4" stroke-width="2" stroke-miterlimit="10"/>
</svg>
