<svg width="110" height="568" viewBox="0 0 110 568" fill="none" xmlns="http://www.w3.org/2000/svg">
<path d="M-122.918 308.556C-129.615 299.169 -139.068 294.197 -146.989 295.544C-161.426 298.002 -168.894 321.115 -163.209 336.068C-156.069 354.845 -127.978 361.313 -110.27 353.731C-84.7724 342.815 -76.9034 301.093 -92.1699 277.987C-109.98 251.037 -157.958 251.401 -186.229 273.801C-211.979 294.2 -222.163 333.486 -205.792 361.888C-186.034 396.152 -138.014 396.538 -109.617 385.903C-66.6724 369.825 -44.0532 319.355 -51.2416 275.021C-57.7566 234.869 -88.8991 198.665 -125.287 192.034C-191.408 179.989 -270.499 266.373 -253.677 338.751C-244.223 379.415 -207.714 407.595 -174.622 418.737C-171.138 419.907 -109.768 439.455 -60.3474 401.025C-7.62267 360.027 -15.1858 289.334 -17.1121 271.313C-18.8426 255.127 -25.4429 193.456 -77.0305 160.752C-139.504 121.151 -213.511 158.546 -223.24 163.657C-288.295 197.831 -337.936 281.715 -313.02 366.739C-292.402 437.095 -227.115 486.457 -157.951 489.547C-86.3185 492.743 -38.2469 445.061 -26.8819 433.795C32.9078 374.495 43.641 284.98 21.6772 215.738C17.3724 202.164 -17.1264 98.5716 -102.245 82.9829C-156.514 73.0457 -201.84 104.289 -239.979 130.573C-272.799 153.193 -325.845 189.757 -345.158 261.013C-370.161 353.286 -318.181 428.4 -311.827 437.268C-298.799 455.447 -255.066 510.329 -176.513 522.607C-166.7 524.14 -92.0845 534.608 -26.6003 486.371C52.129 428.375 56.7865 330.362 58.7337 289.393C60.3305 255.764 67.2266 110.64 -31.724 53.3425C-115.102 5.06168 -215.763 52.646 -244.38 66.1708C-269.33 77.9687 -332.35 108.884 -370.35 182.007C-375.85 192.595 -423.845 288.804 -379.76 392.738C-352.04 458.09 -302.893 491.176 -273.532 510.945C-240.445 533.219 -175.63 576.857 -94.2735 563.686C-42.8495 555.364 -8.67099 528.204 11.9531 511.812C31.4207 496.346 90.9111 449.07 106.18 370.658C112.547 337.958 104.678 301.751 88.9344 229.331C72.4423 153.453 64.19 115.514 42.6023 86.8563C-5.41706 23.1324 -81.0264 8.73102 -96.5048 5.77745C-201.244 -14.1762 -284.084 43.356 -308.632 62.6882" stroke="white" stroke-opacity="0.4" stroke-width="3" stroke-miterlimit="10"/>
</svg>
