<svg width="63" height="353" viewBox="0 0 63 353" fill="none" xmlns="http://www.w3.org/2000/svg">
<path d="M-82.0534 192.238C-86.2128 186.416 -92.0837 183.332 -97.0029 184.168C-105.969 185.692 -110.608 200.028 -107.077 209.302C-102.643 220.948 -85.196 224.96 -74.1985 220.257C-58.3632 213.487 -53.4761 187.609 -62.9574 173.278C-74.0184 156.563 -103.816 156.789 -121.373 170.682C-137.366 183.334 -143.691 207.701 -133.523 225.316C-121.252 246.569 -91.429 246.808 -73.793 240.212C-47.1221 230.24 -33.0743 198.936 -37.5387 171.439C-41.5849 146.535 -60.9261 124.08 -83.5248 119.967C-124.59 112.496 -173.71 166.075 -163.262 210.966C-157.391 236.187 -134.717 253.666 -114.165 260.576C-112.001 261.302 -73.8868 273.426 -43.1939 249.591C-10.4489 224.163 -15.1461 180.316 -16.3424 169.139C-17.4172 159.1 -21.5163 120.849 -53.5551 100.565C-92.3545 76.0032 -138.317 99.1966 -144.359 102.367C-184.762 123.563 -215.592 175.59 -200.118 228.325C-187.313 271.963 -146.766 302.579 -103.811 304.495C-59.3234 306.478 -29.4683 276.904 -22.41 269.916C14.7227 233.136 21.3886 177.616 7.74793 134.669C5.07437 126.25 -16.3513 61.9984 -69.2148 52.3297C-102.919 46.1663 -131.069 65.5444 -154.755 81.8466C-175.138 95.8765 -208.083 118.555 -220.077 162.75C-235.605 219.982 -203.323 266.57 -199.377 272.07C-191.286 283.345 -164.125 317.385 -115.339 325C-109.245 325.951 -62.9044 332.444 -22.2351 302.525C26.6601 266.554 29.5527 205.763 30.762 180.352C31.7537 159.495 36.0366 69.4834 -25.4172 33.9457C-77.1996 4.00019 -139.716 33.5137 -157.488 41.9022C-172.984 49.2197 -212.123 68.3943 -235.723 113.748C-239.139 120.315 -268.946 179.987 -241.567 244.451C-224.351 284.984 -193.828 305.506 -175.593 317.767C-155.045 331.582 -114.791 358.648 -64.2639 350.479C-32.3268 345.317 -11.1 328.471 1.70867 318.305C13.7992 308.712 50.746 279.39 60.2287 230.756C64.1831 210.474 59.2961 188.018 49.5183 143.1C39.2758 96.0378 34.1507 72.5065 20.7436 54.7321C-9.07913 15.2083 -56.0367 6.27605 -65.6497 4.44414C-130.699 -7.93182 -182.146 27.7517 -197.392 39.7422" stroke="white" stroke-opacity="0.4" stroke-width="2" stroke-miterlimit="10"/>
</svg>
