<svg width="1056" height="823" viewBox="0 0 1056 823" fill="none" xmlns="http://www.w3.org/2000/svg">
<path d="M663.067 503.538C643.093 518.371 632.747 538.982 635.96 556.035C641.827 587.119 691.946 602.34 723.96 589.473C764.16 573.316 777 512.393 759.96 474.448C735.426 419.811 645.173 404.456 595.96 438.335C538.56 477.858 541.227 581.461 590.627 641.635C635.613 696.446 720.706 716.896 781.293 680.423C854.386 636.406 853.333 532.683 829.293 471.773C792.946 379.659 683.253 332.793 587.96 350.06C501.653 365.709 424.827 434.39 411.96 513.235C388.587 656.508 577.92 823.923 733.293 784.748C820.586 762.733 879.906 682.777 902.626 610.873C905.013 603.303 944.746 469.994 859.96 364.773C769.506 252.516 617.4 271.629 578.627 276.498C543.8 280.871 411.107 297.55 342.627 410.248C259.707 546.726 343.227 705.086 354.627 725.898C430.853 865.051 613.64 968.962 795.96 911.81C946.826 864.516 1050.68 721.578 1054.63 572.085C1058.71 417.256 954.026 315.312 929.293 291.21C799.106 164.415 605.707 144.754 457.293 194.91C428.2 204.741 206.227 283.319 175.96 467.76C156.667 585.353 225.8 682.014 283.96 763.348C334.013 833.339 414.92 946.465 569.293 985.373C769.2 1035.74 929.093 920.531 947.96 906.46C986.64 877.61 1103.24 781.003 1126.63 610.873C1129.55 589.62 1149.19 428.063 1042.63 288.535C914.506 120.786 703.027 114.58 614.627 111.985C542.067 109.859 228.933 100.67 109.293 316.623C8.47983 498.59 115.013 714.114 145.293 775.385C171.706 828.805 240.827 963.692 399.96 1042.89C423 1054.35 632.293 1154.22 854.626 1054.92C994.426 992.488 1063.83 885.047 1105.29 820.86C1152.01 748.528 1243.55 606.833 1211.96 431.648C1192 320.916 1132.11 248.17 1095.96 204.273C1061.85 162.837 957.6 36.2159 787.96 6.32277C717.213 -6.14273 639.467 12.2747 483.96 49.1228C321.027 87.723 239.56 107.037 178.627 154.785C43.1332 260.996 15.0532 424.853 9.29317 458.398C-29.6135 685.385 97.6665 862.029 140.307 914.285" stroke="white" stroke-opacity="0.4" stroke-width="4" stroke-miterlimit="10"/>
</svg>
