<svg width="424" height="327" viewBox="0 0 424 327" fill="none" xmlns="http://www.w3.org/2000/svg">
<path d="M265.245 200.111C257.277 206.003 253.149 214.189 254.431 220.963C256.771 233.309 276.767 239.355 289.539 234.244C305.578 227.826 310.7 203.628 303.902 188.556C294.114 166.855 258.106 160.756 238.472 174.213C215.571 189.911 216.635 231.062 236.344 254.963C254.292 276.733 288.241 284.856 312.413 270.369C341.575 252.885 341.155 211.687 331.564 187.494C317.063 150.907 273.299 132.292 235.28 139.15C200.847 145.366 170.196 172.645 165.063 203.963C155.737 260.87 231.275 327.367 293.263 311.806C328.09 303.062 351.757 271.304 360.821 242.744C361.773 239.737 377.625 186.787 343.799 144.994C307.711 100.406 247.026 107.998 231.557 109.931C217.662 111.669 164.722 118.293 137.401 163.056C104.319 217.265 137.64 280.165 142.189 288.431C172.6 343.703 245.526 384.976 318.265 362.275C378.455 343.49 419.889 286.715 421.464 227.338C423.091 165.84 381.328 125.348 371.46 115.775C319.52 65.4127 242.361 57.6033 183.149 77.5252C171.542 81.4298 82.9824 112.641 70.9071 185.9C63.2097 232.608 90.7914 271.001 113.995 303.306C133.965 331.107 166.244 376.04 227.833 391.494C307.589 411.501 371.38 365.739 378.907 360.15C394.339 348.691 440.859 310.319 450.189 242.744C451.354 234.302 459.19 170.133 416.676 114.713C365.561 48.0833 281.188 45.6183 245.919 44.5877C216.97 43.743 92.0415 40.0933 44.3094 125.869C4.08853 198.145 46.5915 283.751 58.6721 308.088C69.2101 329.306 96.7865 382.882 160.275 414.338C169.467 418.891 252.968 458.559 341.671 419.119C397.446 394.32 425.134 351.645 441.678 326.15C460.317 297.42 496.836 241.14 484.234 171.556C476.271 127.574 452.375 98.6795 437.954 81.2439C424.347 64.7858 382.753 14.4923 315.073 2.61891C286.848 -2.33234 255.83 4.98297 193.788 19.6189C128.783 34.9508 96.2812 42.622 71.971 61.5877C17.914 103.774 6.71106 168.858 4.41303 182.181C-11.1093 272.34 39.6708 342.502 56.6826 363.258" stroke="white" stroke-opacity="0.4" stroke-width="2" stroke-miterlimit="10"/>
</svg>
