<svg width="42" height="32" viewBox="0 0 42 32" fill="none" xmlns="http://www.w3.org/2000/svg">
<path d="M13.3071 16.1571C13.3071 17.0286 12.6143 17.6929 11.7357 17.6929C11.0786 17.6929 10.5929 17.3214 10.5929 16.6214C10.5929 15.75 11.2714 15.05 12.1429 15.05C12.8071 15.05 13.3071 15.4571 13.3071 16.1571ZM5.75 12.6929H5.41429C5.30714 12.6929 5.2 12.7643 5.18571 12.8857L4.87857 14.7929L5.46429 14.7714C6.25 14.7714 6.85714 14.6643 7 13.7571C7.16429 12.8 6.55714 12.6929 5.75 12.6929ZM26.0357 12.6929H25.7143C25.5857 12.6929 25.5 12.7643 25.4857 12.8857L25.1857 14.7929L25.7571 14.7714C26.6857 14.7714 27.3286 14.5571 27.3286 13.4857C27.3214 12.7286 26.6429 12.6929 26.0357 12.6929ZM41.1429 3.42857V28.5714C41.1429 30.4643 39.6071 32 37.7143 32H3.42857C1.53571 32 0 30.4643 0 28.5714V3.42857C0 1.53571 1.53571 0 3.42857 0H37.7143C39.6071 0 41.1429 1.53571 41.1429 3.42857ZM9.16429 13.1C9.16429 11.6 8.00714 11.1 6.68571 11.1H3.82857C3.65 11.1 3.47143 11.2429 3.45714 11.4357L2.28571 18.7286C2.26429 18.8714 2.37143 19.0143 2.51429 19.0143H3.87143C4.06429 19.0143 4.24286 18.8071 4.26429 18.6071L4.58571 16.7071C4.65714 16.1929 5.52857 16.3714 5.87143 16.3714C7.91429 16.3714 9.16429 15.1571 9.16429 13.1ZM15.1786 13.7286H13.8214C13.55 13.7286 13.5357 14.1214 13.5214 14.3143C13.1071 13.7071 12.5071 13.6 11.8286 13.6C10.0786 13.6 8.74286 15.1357 8.74286 16.8286C8.74286 18.2214 9.61429 19.1286 11.0071 19.1286C11.65 19.1286 12.45 18.7786 12.9 18.2786C12.8643 18.3857 12.8286 18.6143 12.8286 18.7214C12.8286 18.8857 12.9 19.0071 13.0571 19.0071H14.2857C14.4786 19.0071 14.6429 18.8 14.6786 18.6L15.4071 14.0071C15.4286 13.8714 15.3214 13.7286 15.1786 13.7286ZM18.0714 20.7214L22.6214 14.1071C22.6571 14.0714 22.6571 14.0357 22.6571 13.9857C22.6571 13.8643 22.55 13.7357 22.4286 13.7357H21.0571C20.9357 13.7357 20.8071 13.8071 20.7357 13.9143L18.8429 16.7L18.0571 14.0214C18 13.8643 17.8429 13.7357 17.6643 13.7357H16.3286C16.2071 13.7357 16.1 13.8643 16.1 13.9857C16.1 14.0714 17.4929 18.0429 17.6143 18.4214C17.4214 18.6929 16.15 20.4643 16.15 20.6786C16.15 20.8071 16.2571 20.9071 16.3786 20.9071H17.75C17.8786 20.9 18 20.8286 18.0714 20.7214ZM29.45 13.1C29.45 11.6 28.2929 11.1 26.9714 11.1H24.1357C23.9429 11.1 23.7643 11.2429 23.7429 11.4357L22.5857 18.7214C22.5714 18.8643 22.6786 19.0071 22.8143 19.0071H24.2786C24.4214 19.0071 24.5286 18.9 24.5643 18.7786L24.8857 16.7071C24.9571 16.1929 25.8286 16.3714 26.1714 16.3714C28.2 16.3714 29.45 15.1571 29.45 13.1ZM35.4643 13.7286H34.1071C33.8357 13.7286 33.8214 14.1214 33.8 14.3143C33.4071 13.7071 32.8 13.6 32.1071 13.6C30.3571 13.6 29.0214 15.1357 29.0214 16.8286C29.0214 18.2214 29.8929 19.1286 31.2857 19.1286C31.95 19.1286 32.75 18.7786 33.1786 18.2786C33.1571 18.3857 33.1071 18.6143 33.1071 18.7214C33.1071 18.8857 33.1786 19.0071 33.3357 19.0071H34.5714C34.7643 19.0071 34.9286 18.8 34.9643 18.6L35.6929 14.0071C35.7143 13.8714 35.6071 13.7286 35.4643 13.7286ZM38.8571 11.35C38.8571 11.2071 38.75 11.1 38.6286 11.1H37.3071C37.2 11.1 37.0929 11.1857 37.0786 11.2929L35.9214 18.7214L35.9 18.7571C35.9 18.8857 36.0071 19.0071 36.15 19.0071H37.3286C37.5071 19.0071 37.6857 18.8 37.7 18.6L38.8571 11.3714V11.35ZM32.4286 15.05C31.5571 15.05 30.8786 15.7429 30.8786 16.6214C30.8786 17.3143 31.3786 17.6929 32.0357 17.6929C32.8929 17.6929 33.5857 17.0357 33.5857 16.1571C33.5929 15.4571 33.0929 15.05 32.4286 15.05Z" fill="#635D5D"/>
</svg>
