<svg width="100" height="100" viewBox="0 0 100 100" fill="none" xmlns="http://www.w3.org/2000/svg">
<path d="M50.3898 0.888184L50.3994 50.2553L69.3119 4.64972L50.4173 50.2629L85.353 15.3617L50.4309 50.2764L96.0715 31.3932L50.4385 50.2943L99.8353 50.3039L50.4385 50.3135L96.0715 69.2146L50.4309 50.3314L85.353 85.246L50.4173 50.345L69.3119 95.9581L50.3994 50.3525L50.3898 99.7196L50.3802 50.3525L31.4677 95.9581L50.3623 50.345L15.4266 85.246L50.3488 50.3314L4.70813 69.2146L50.3412 50.3135L0.944336 50.3039L50.3412 50.2943L4.70813 31.3932L50.3488 50.2764L15.4266 15.3617L50.3623 50.2629L31.4677 4.64972L50.3802 50.2553L50.3898 0.888184Z" fill="#F0C3D2" stroke="#FFDADA" stroke-width="2"/>
</svg>
