<svg width="66" height="279" viewBox="0 0 66 279" fill="none" xmlns="http://www.w3.org/2000/svg">
<path d="M-124.133 122.522C-120.736 115.912 -120.682 109.032 -123.795 104.899C-129.472 97.3671 -144.921 99.9357 -151.806 107.615C-160.453 117.257 -155.853 135.243 -146.275 143.13C-132.483 154.486 -106.255 146.638 -97.531 131.065C-87.3569 112.898 -101.749 85.5573 -122.939 76.0139C-142.238 67.3198 -167.756 73.1219 -179.187 90.8951C-192.976 112.341 -179 139.928 -164.513 153.026C-142.606 172.836 -107.005 170.837 -83.7322 153.602C-62.6551 137.99 -51.1211 109.457 -58.0797 86.6764C-70.7264 45.2825 -143.597 25.6034 -180.088 56.6512C-200.589 74.0962 -205.94 103.325 -202.54 125.554C-202.181 127.894 -195.237 168.791 -158.611 185.69C-119.536 203.719 -81.2723 178.467 -71.5181 172.03C-62.7568 166.249 -29.3772 144.219 -25.8923 105.025C-21.6747 57.5613 -64.9763 26.2901 -70.7806 22.2366C-109.591 -4.86628 -172.322 -8.43681 -213.666 30.9846C-247.877 63.6058 -256.855 115.568 -238.178 156.052C-218.833 197.98 -177.305 211.368 -167.491 214.536C-115.843 231.189 -61.3874 210.833 -28.2121 177.772C-21.7086 171.291 27.4395 120.891 11.2065 67.5796C0.855882 33.5905 -30.4428 16.907 -56.7755 2.86758C-79.437 -9.21353 -116.066 -28.7391 -162.598 -18.6964C-222.852 -5.68786 -250.517 46.284 -253.718 52.5437C-260.282 65.3779 -278.794 106.643 -262.605 155.218C-260.583 161.286 -244.521 207.073 -197.528 230.259C-141.027 258.134 -83.5001 231.787 -59.4533 220.774C-39.7158 211.734 45.4632 172.722 49.0354 99.1519C52.0459 37.1595 -4.97328 -6.34492 -21.1815 -18.7135C-35.3163 -29.4954 -71.6578 -56.3989 -124.784 -56.4946C-132.475 -56.5075 -201.781 -55.4881 -248.291 0.497999C-277.535 35.7009 -281.961 73.6117 -284.606 96.2609C-287.585 121.783 -293.424 171.781 -261.827 214.428C-241.856 241.384 -216.193 252.899 -200.705 259.846C-186.089 266.406 -141.418 286.447 -91.9831 271.973C-71.367 265.936 -52.9508 250.717 -16.1166 220.274C22.4778 188.379 41.7732 172.428 51.8088 151.595C74.1196 105.26 60.0175 57.7406 57.1337 48.011C37.6007 -17.8177 -19.8487 -48.1813 -38.1811 -56.5033" stroke="white" stroke-opacity="0.4" stroke-width="2" stroke-miterlimit="10"/>
</svg>
