<svg width="97" height="371" viewBox="0 0 97 371" fill="none" xmlns="http://www.w3.org/2000/svg">
<path d="M-156.028 162.873C-151.484 154.032 -151.412 144.83 -155.576 139.302C-163.168 129.228 -183.831 132.664 -193.041 142.934C-204.606 155.831 -198.454 179.887 -185.642 190.435C-167.196 205.624 -132.116 195.128 -120.448 174.299C-106.84 150.001 -126.09 113.433 -154.432 100.668C-180.244 89.04 -214.373 96.8002 -229.662 120.572C-248.105 149.256 -229.413 186.153 -210.036 203.672C-180.736 230.168 -133.12 227.495 -101.992 204.443C-73.8013 183.561 -58.3746 145.398 -67.6817 114.929C-84.5967 59.5651 -182.061 33.2443 -230.868 74.7707C-258.288 98.1033 -265.445 137.197 -260.898 166.929C-260.417 170.058 -251.129 224.758 -202.142 247.36C-149.88 271.474 -98.7019 237.699 -85.6556 229.09C-73.9373 221.358 -29.2922 191.892 -24.631 139.47C-18.99 75.988 -76.9059 34.1627 -84.6691 28.7412C-136.578 -7.50895 -220.481 -12.2845 -275.779 40.4416C-321.536 84.0724 -333.544 153.572 -308.564 207.719C-282.689 263.798 -227.145 281.705 -214.019 285.941C-144.94 308.215 -72.1057 280.989 -27.7338 236.77C-19.0353 228.102 46.7003 160.691 24.9885 89.3873C11.1446 43.927 -30.7173 21.6128 -65.9373 2.83509C-96.2471 -13.3234 -145.239 -39.4389 -207.474 -26.0068C-288.064 -8.6078 -325.066 60.9046 -329.348 69.2769C-338.127 86.4427 -362.887 141.635 -341.235 206.604C-338.529 214.72 -317.047 275.96 -254.193 306.971C-178.624 344.254 -101.681 309.015 -69.5189 294.285C-43.1199 282.193 70.8069 230.016 75.5847 131.615C79.6112 48.7006 3.34814 -9.48664 -18.3303 -26.0296C-37.2357 -40.4504 -85.8424 -76.4338 -156.898 -76.5618C-167.185 -76.5791 -259.882 -75.2156 -322.089 -0.334219C-361.204 46.7496 -367.123 97.4554 -370.661 127.749C-374.646 161.885 -382.455 228.757 -340.194 285.797C-313.483 321.851 -279.158 337.252 -258.443 346.544C-238.894 355.318 -179.147 382.123 -113.028 362.764C-85.4534 354.69 -60.8218 334.334 -11.556 293.616C40.0639 250.957 65.8716 229.622 79.2941 201.758C109.135 139.785 90.2734 76.2278 86.4162 63.2144C60.2909 -24.8315 -16.5477 -65.4428 -41.0673 -76.5735" stroke="white" stroke-opacity="0.4" stroke-width="2" stroke-miterlimit="10"/>
</svg>
