<svg width="89" height="402" viewBox="0 0 89 402" fill="none" xmlns="http://www.w3.org/2000/svg">
<path d="M206.373 222.623C213.82 229.209 222.719 231.548 229.104 228.877C240.74 224.005 242.508 203.133 234.827 191.674C225.182 177.285 200.352 177.312 186.969 187.125C167.699 201.253 169.216 237.839 186.522 254.285C206.712 273.467 246.899 263.834 266.261 239.517C283.898 217.372 284.798 182.383 265.533 161.702C242.286 136.752 201.917 145.764 180.16 160.219C147.254 182.077 138.097 228.881 152.757 264.734C166.038 297.205 199.216 321.57 231.039 320.067C288.865 317.334 338.418 229.376 310.216 171.833C294.37 139.504 258.25 122.923 228.315 119.995C225.164 119.689 169.864 115.195 135.875 157.092C99.6128 201.789 119.717 259.717 124.841 274.484C129.443 287.748 146.984 338.283 196.635 355.733C256.764 376.861 311.584 331.054 318.754 324.869C366.69 283.508 392.018 203.376 354.564 136.78C323.571 81.6729 259.182 52.8897 200.546 63.7392C139.817 74.9789 108.76 124.388 101.416 136.063C62.7881 197.512 71.2034 274.811 103.109 328.721C109.363 339.289 158.472 419.624 232.928 416.175C280.399 413.974 312.351 378.912 339.238 349.413C362.374 324.026 399.77 282.992 402.107 219.367C405.128 136.975 346.893 83.9674 339.836 77.7521C325.367 65.01 277.989 27.3985 209.687 32.3528C201.154 32.9723 136.507 38.6819 90.9478 91.942C36.1739 155.977 51.3408 239.235 57.6804 274.038C62.8854 302.604 85.3429 425.882 179.523 454.789C258.881 479.147 334.085 419.597 355.465 402.67C374.104 387.906 420.967 349.68 438.621 280.852C441.176 270.887 462.724 180.719 405.505 101.961C369.526 52.4395 321.848 34.1935 293.364 23.2907C261.267 11.0077 198.388 -13.0583 132.685 13.824C91.1552 30.8138 67.762 60.2786 53.6467 78.0606C40.3215 94.8404 -0.395715 146.128 2.05271 214.979C3.07425 243.693 16.7235 272.585 44.0283 330.374C72.6342 390.923 86.9423 421.196 110.634 441.078C163.328 485.286 229.575 482.688 243.137 482.161C334.907 478.565 393.22 414.121 410.056 393.105" stroke="white" stroke-opacity="0.4" stroke-width="2" stroke-miterlimit="10"/>
</svg>
