<svg width="242" height="926" viewBox="0 0 242 926" fill="none" xmlns="http://www.w3.org/2000/svg">
<path d="M-390.071 407.182C-378.71 385.08 -378.531 362.076 -388.94 348.256C-407.921 323.071 -459.579 331.659 -482.603 357.336C-511.515 389.578 -496.134 449.718 -464.106 476.089C-417.991 514.061 -330.29 487.821 -301.12 435.747C-267.1 375.003 -315.224 283.581 -386.079 251.671C-450.61 222.6 -535.934 242.001 -574.156 301.43C-620.263 373.139 -573.532 465.383 -525.091 509.181C-451.84 575.42 -332.799 568.737 -254.98 511.107C-184.503 458.903 -145.937 363.495 -169.205 287.324C-211.492 148.913 -455.153 83.1108 -577.17 186.927C-645.721 245.258 -663.614 342.992 -652.245 417.322C-651.043 425.145 -627.823 561.894 -505.354 618.399C-374.7 678.684 -246.755 594.247 -214.139 572.726C-184.844 553.396 -73.2306 479.731 -61.5778 348.675C-47.4753 189.97 -192.265 85.4069 -211.673 71.853C-341.445 -18.7723 -551.204 -30.7113 -689.447 101.104C-803.84 210.181 -833.86 383.93 -771.409 519.298C-706.722 659.494 -567.863 704.262 -535.048 714.853C-362.349 770.538 -180.265 702.473 -69.3347 591.924C-47.5885 570.255 116.75 401.729 62.4711 223.468C27.8614 109.818 -76.7935 54.0321 -164.843 7.08779C-240.618 -33.3084 -363.097 -98.5972 -518.686 -65.0168C-720.161 -21.5195 -812.666 152.262 -823.371 173.192C-845.317 216.107 -907.218 354.088 -853.087 516.51C-846.324 536.8 -792.618 689.9 -635.484 767.428C-446.56 860.634 -254.204 772.537 -173.797 735.713C-107.8 705.484 177.017 575.04 188.962 329.039C199.028 121.751 8.3701 -23.7165 -45.826 -65.0739C-93.0895 -101.126 -214.606 -191.084 -392.246 -191.405C-417.964 -191.448 -649.706 -188.039 -805.222 -0.835493C-903.009 116.874 -917.807 243.639 -926.653 319.372C-936.614 404.712 -956.137 571.893 -850.484 714.492C-783.708 804.628 -697.895 843.13 -646.108 866.36C-597.236 888.294 -447.867 955.307 -282.569 906.909C-213.634 886.724 -152.055 835.836 -28.8902 734.041C100.16 627.391 164.679 574.055 198.235 504.394C272.837 349.463 225.683 190.57 216.04 158.036C150.727 -62.0787 -41.3696 -163.607 -102.669 -191.434" stroke="white" stroke-opacity="0.4" stroke-width="3" stroke-miterlimit="10"/>
</svg>
