<svg width="88" height="212" viewBox="0 0 88 212" fill="none" xmlns="http://www.w3.org/2000/svg">
<path d="M-135.571 22.9573C-143.56 29.0241 -147.699 37.4543 -146.414 44.4293C-144.067 57.143 -124.019 63.3685 -111.214 58.1058C-95.1337 51.4973 -89.9977 26.5788 -96.8137 11.0587C-106.627 -11.2886 -142.728 -17.5689 -162.414 -3.71186C-185.374 12.4537 -184.307 54.8289 -164.547 79.4411C-146.552 101.86 -112.515 110.224 -88.2804 95.3058C-59.0431 77.3021 -59.4644 34.8777 -69.0804 9.96461C-83.6191 -27.7113 -127.496 -46.8803 -165.614 -39.8177C-200.136 -33.4172 -230.867 -5.32569 -236.014 26.9234C-245.363 85.5244 -169.63 154 -107.48 137.976C-72.5631 128.972 -48.8351 96.2686 -39.7471 66.8587C-38.7924 63.7624 -22.8991 9.23702 -56.8137 -33.8001C-92.9951 -79.7147 -153.838 -71.8973 -169.347 -69.906C-183.278 -68.1171 -236.355 -61.2953 -263.747 -15.2001C-296.915 40.6218 -263.507 105.394 -258.947 113.906C-228.456 170.822 -155.342 213.323 -82.4137 189.947C-22.067 170.603 19.4743 112.139 21.053 50.994C22.685 -12.3335 -19.1871 -54.0303 -29.0804 -63.8883C-81.1551 -115.75 -158.515 -123.791 -217.88 -103.277C-229.518 -99.2557 -318.307 -67.116 -330.414 8.32343C-338.131 56.4208 -310.478 95.9568 -287.214 129.223C-267.192 157.851 -234.83 204.121 -173.08 220.035C-93.1177 240.637 -29.1604 193.514 -21.6137 187.759C-6.14172 175.959 40.4983 136.445 49.853 66.8587C51.021 58.166 58.877 -7.91328 16.253 -64.9825C-34.995 -133.595 -119.587 -136.133 -154.947 -137.194C-183.971 -138.064 -309.224 -141.822 -357.08 -53.4942C-397.406 20.9331 -354.792 109.086 -342.68 134.147C-332.115 155.997 -304.467 211.167 -240.814 243.559C-231.598 248.247 -147.88 289.096 -58.9471 248.482C-3.02705 222.946 24.733 179 41.3196 152.747C60.0076 123.162 96.621 65.2066 83.9863 -6.44716C76.0023 -51.7382 52.045 -81.4927 37.5863 -99.4472C23.9436 -116.395 -17.7577 -168.185 -85.6137 -180.412C-113.912 -185.51 -145.011 -177.977 -207.214 -162.906C-272.387 -147.118 -304.974 -139.218 -329.347 -119.688C-383.544 -76.2464 -394.776 -9.22622 -397.08 4.49402C-412.643 97.3354 -361.731 169.585 -344.675 190.959" stroke="white" stroke-opacity="0.4" stroke-width="2" stroke-miterlimit="10"/>
</svg>
