<svg width="66" height="148" viewBox="0 0 66 148" fill="none" xmlns="http://www.w3.org/2000/svg">
<path d="M-101.362 17.1644C-107.335 21.7004 -110.429 28.0033 -109.468 33.2182C-107.714 42.7238 -92.7245 47.3784 -83.1505 43.4436C-71.128 38.5027 -67.288 19.8721 -72.3841 8.26827C-79.7212 -8.44003 -106.713 -13.1355 -121.431 -2.77516C-138.597 9.31126 -137.8 40.9936 -123.026 59.3953C-109.572 76.1567 -84.1234 82.4106 -66.004 71.2567C-44.1443 57.796 -44.4594 26.0768 -51.6489 7.45024C-62.5189 -20.7187 -95.3244 -35.0506 -123.823 -29.7702C-149.635 -24.9847 -172.611 -3.98176 -176.459 20.1297C-183.449 63.9435 -126.826 115.14 -80.3592 103.16C-54.2528 96.4276 -36.5122 71.9766 -29.7174 49.9879C-29.0037 47.6729 -17.1208 6.90624 -42.4776 -25.271C-69.529 -59.5997 -115.019 -53.7549 -126.615 -52.2661C-137.03 -50.9286 -176.714 -45.8282 -197.194 -11.3645C-221.993 30.3715 -197.015 78.799 -193.605 85.1633C-170.809 127.717 -116.143 159.494 -61.6177 142.016C-16.4987 127.554 14.5602 83.8421 15.7405 38.1264C16.9607 -9.22125 -14.3455 -40.3964 -21.7424 -47.7669C-60.6767 -86.5416 -118.516 -92.5542 -162.901 -77.2161C-171.602 -74.2098 -237.987 -50.1801 -247.038 6.22319C-252.808 42.1839 -232.133 71.7435 -214.739 96.6157C-199.77 118.02 -175.574 152.614 -129.406 164.512C-69.6207 179.916 -21.8022 144.683 -16.1598 140.38C-4.59195 131.558 30.2791 102.015 37.2732 49.9879C38.1465 43.4886 44.0201 -5.9164 12.1517 -48.5849C-26.1645 -99.8837 -89.4109 -101.782 -115.848 -102.575C-137.548 -103.225 -231.196 -106.035 -266.976 -39.9956C-297.126 15.651 -265.265 81.5598 -256.21 100.297C-248.31 116.633 -227.639 157.882 -180.048 182.1C-173.157 185.605 -110.565 216.147 -44.0726 185.781C-2.26323 166.688 18.4919 133.832 30.8932 114.203C44.8655 92.0838 72.24 48.7527 62.7935 -4.82024C56.8241 -38.6827 38.9121 -60.9291 28.1019 -74.353C17.9018 -87.0243 -13.2768 -125.746 -64.0103 -134.887C-85.1682 -138.699 -108.419 -133.067 -154.926 -121.799C-203.654 -109.995 -228.018 -104.088 -246.241 -89.4865C-286.762 -57.0066 -295.16 -6.89804 -296.883 3.36008C-308.518 72.7742 -270.453 126.793 -257.701 142.773" stroke="white" stroke-opacity="0.4" stroke-width="2" stroke-miterlimit="10"/>
</svg>
