<svg width="162" height="186" viewBox="0 0 162 186" fill="none" xmlns="http://www.w3.org/2000/svg">
<path d="M-61.4373 -34.6551C-69.4266 -28.5882 -73.5653 -20.158 -72.2799 -13.183C-69.9333 -0.469346 -49.8853 5.75618 -37.0799 0.493478C-20.9999 -6.11499 -15.8639 -31.0335 -22.6799 -46.5536C-32.4933 -68.9009 -68.5946 -75.1812 -88.2799 -61.3242C-111.24 -45.1586 -110.173 -2.78341 -90.4133 21.8288C-72.4186 44.2472 -38.3813 52.6118 -14.1466 37.6935C15.0907 19.6898 14.6694 -22.7346 5.0534 -47.6477C-9.48526 -85.3236 -53.3626 -104.493 -91.4799 -97.4301C-126.003 -91.0295 -156.733 -62.938 -161.88 -30.6889C-171.229 27.9121 -95.4959 96.3874 -33.3466 80.3641C1.57074 71.3595 25.2987 38.6563 34.3867 9.24642C35.3414 6.15007 51.2347 -48.3753 17.3201 -91.4124C-18.8613 -137.327 -79.7039 -129.51 -95.2133 -127.518C-109.144 -125.729 -162.221 -118.908 -189.613 -72.8124C-222.781 -16.9905 -189.373 47.7813 -184.813 56.2935C-154.323 113.209 -81.2079 155.71 -8.27993 132.335C52.0667 112.991 93.6081 54.5265 95.1867 -6.61829C96.8187 -69.9458 54.9467 -111.643 45.0534 -121.501C-7.02126 -173.362 -84.3813 -181.404 -143.747 -160.889C-155.384 -156.868 -244.173 -124.728 -256.28 -49.2889C-263.997 -1.19146 -236.344 38.3445 -213.08 71.6111C-193.059 100.239 -160.696 146.509 -98.9466 162.423C-18.9839 183.025 44.9734 135.901 52.5201 130.146C67.9921 118.346 114.632 78.8323 123.987 9.24642C125.155 0.553654 133.011 -65.5256 90.3867 -122.595C39.1387 -191.207 -45.4532 -193.745 -80.8133 -194.807C-109.837 -195.676 -235.091 -199.435 -282.947 -111.107C-323.272 -36.6792 -280.659 51.4739 -268.547 76.5347C-257.981 98.3842 -230.333 153.555 -166.68 185.946C-157.464 190.635 -73.7466 231.484 15.1867 190.87C71.1067 165.333 98.8667 121.388 115.453 95.1347C134.141 65.5497 170.755 7.5943 158.12 -64.0595C150.136 -109.35 126.179 -139.105 111.72 -157.059C98.0774 -174.007 56.3761 -225.797 -11.4799 -238.024C-39.7786 -243.123 -70.8773 -235.59 -133.08 -220.518C-198.253 -204.73 -230.84 -196.831 -255.213 -177.301C-309.411 -133.859 -320.643 -66.8385 -322.947 -53.1183C-338.509 39.7231 -287.597 111.973 -270.541 133.347" stroke="white" stroke-opacity="0.4" stroke-width="2" stroke-miterlimit="10"/>
</svg>
