<svg width="79" height="148" viewBox="0 0 79 148" fill="none" xmlns="http://www.w3.org/2000/svg">
<path d="M198.947 129.314C192.974 133.85 189.879 140.153 190.84 145.368C192.595 154.873 207.584 159.528 217.158 155.593C229.181 150.652 233.021 132.022 227.924 120.418C220.587 103.71 193.596 99.0141 178.878 109.374C161.711 121.461 162.509 153.143 177.283 171.545C190.737 188.306 216.185 194.56 234.305 183.406C256.164 169.946 255.849 138.226 248.66 119.6C237.79 91.431 204.984 77.099 176.485 82.3794C150.674 87.1649 127.698 108.168 123.85 132.279C116.86 176.093 173.483 227.29 219.949 215.31C246.056 208.577 263.796 184.126 270.591 162.138C271.305 159.823 283.188 119.056 257.831 86.8786C230.78 52.5499 185.29 58.3947 173.694 59.8836C163.279 61.221 123.595 66.3215 103.115 100.785C78.316 142.521 103.294 190.949 106.703 197.313C129.5 239.867 184.165 271.643 238.691 254.166C283.81 239.703 314.869 195.992 316.049 150.276C317.269 102.928 285.963 71.7532 278.566 64.3827C239.632 25.608 181.793 19.5955 137.407 34.9336C128.707 37.9399 62.322 61.9695 53.2703 118.373C47.5003 154.334 68.1757 183.893 85.5694 208.765C100.539 230.169 124.735 264.764 170.903 276.662C230.688 292.066 278.506 256.833 284.149 252.53C295.717 243.708 330.588 214.164 337.582 162.138C338.455 155.638 344.329 106.233 312.46 63.5647C274.144 12.2659 210.898 10.3681 184.46 9.57461C162.76 8.92427 69.1128 6.11433 33.3326 72.154C3.18281 127.801 35.0432 193.71 44.0989 212.447C51.9983 228.783 72.6697 270.032 120.261 294.25C127.151 297.755 189.744 328.296 256.236 297.931C298.045 278.838 318.801 245.982 331.202 226.353C345.174 204.233 372.549 160.902 363.102 107.329C357.133 73.467 339.221 51.2206 328.41 37.7967C318.21 25.1254 287.032 -13.5961 236.298 -22.7377C215.14 -26.5497 191.889 -20.9175 145.382 -9.64914C96.6547 2.15506 72.2909 8.06125 54.0678 22.6631C13.5464 55.1431 5.14867 105.252 3.42605 115.51C-8.20959 184.924 29.8555 238.943 42.6076 254.923" stroke="white" stroke-opacity="0.4" stroke-width="2" stroke-miterlimit="10"/>
</svg>
