<svg width="247" height="331" viewBox="0 0 247 331" fill="none" xmlns="http://www.w3.org/2000/svg">
<path d="M165.667 0.000976562L165.699 165.172L228.937 12.5862L165.759 165.197L282.575 48.426L165.804 165.242L318.415 102.064L165.829 165.302L331 165.334L165.829 165.366L318.415 228.605L165.804 165.426L282.575 282.242L165.759 165.472L228.937 318.082L165.699 165.497L165.667 330.668L165.635 165.497L102.396 318.082L165.575 165.472L48.7586 282.242L165.529 165.426L12.9187 228.605L165.504 165.366L0.333496 165.334L165.504 165.302L12.9187 102.064L165.529 165.242L48.7586 48.426L165.575 165.197L102.396 12.5862L165.635 165.172L165.667 0.000976562Z" stroke="#CBEAFF" stroke-width="4"/>
</svg>
