<svg width="97" height="386" viewBox="0 0 97 386" fill="none" xmlns="http://www.w3.org/2000/svg">
<path d="M-156.029 179.302C-151.484 170.513 -151.413 161.366 -155.576 155.871C-163.169 145.857 -183.832 149.272 -193.041 159.481C-204.606 172.302 -198.454 196.215 -185.643 206.701C-167.197 221.8 -132.116 211.366 -120.448 190.66C-106.84 166.507 -126.09 130.154 -154.432 117.466C-180.244 105.906 -214.374 113.621 -229.663 137.251C-248.106 165.765 -229.413 202.444 -210.037 219.86C-180.736 246.198 -133.12 243.541 -101.992 220.625C-73.8018 199.867 -58.375 161.931 -67.6822 131.642C-84.5972 76.6061 -182.061 50.4412 -230.869 91.7216C-258.289 114.916 -265.446 153.778 -260.898 183.334C-260.418 186.445 -251.13 240.82 -202.142 263.288C-149.88 287.259 -98.7023 253.684 -85.656 245.127C-73.9378 237.441 -29.2926 208.149 -24.6315 156.038C-18.9905 92.9317 -76.9063 51.3543 -84.6696 45.9648C-136.578 9.92946 -220.482 5.18217 -275.779 57.596C-321.536 100.968 -333.544 170.056 -308.564 223.882C-282.689 279.629 -227.146 297.43 -214.019 301.641C-144.94 323.783 -72.1062 296.718 -27.7342 252.761C-19.0358 244.144 46.6998 177.133 24.9881 106.252C11.1442 61.0607 -30.7178 38.8787 -65.9378 20.2122C-96.2476 4.14947 -145.239 -21.8113 -207.475 -8.45875C-288.065 8.83711 -325.067 77.9377 -329.349 86.2604C-338.127 103.324 -362.888 158.19 -341.235 222.774C-338.53 230.842 -317.048 291.719 -254.194 322.546C-178.624 359.608 -101.682 324.578 -69.5193 309.935C-43.1204 297.915 70.8064 246.047 75.5842 148.23C79.6108 65.8059 3.34765 7.96349 -18.3308 -8.48142C-37.2362 -22.8168 -85.8429 -58.587 -156.899 -58.7143C-167.186 -58.7314 -259.883 -57.376 -322.089 17.0617C-361.204 63.8665 -367.123 114.272 -370.662 144.386C-374.646 178.319 -382.455 244.796 -340.194 301.497C-313.484 337.338 -279.158 352.648 -258.443 361.885C-238.895 370.606 -179.147 397.253 -113.028 378.008C-85.4539 369.982 -60.8222 349.747 -11.5565 309.271C40.0635 266.864 65.8711 245.655 79.2937 217.956C109.134 156.351 90.2729 93.1701 86.4157 80.2338C60.2904 -7.29046 -16.5482 -47.6612 -41.0678 -58.7259" stroke="white" stroke-opacity="0.4" stroke-width="2" stroke-miterlimit="10"/>
</svg>
