<svg width="182" height="759" viewBox="0 0 182 759" fill="none" xmlns="http://www.w3.org/2000/svg">
<path d="M-292.553 352.609C-284.032 335.326 -283.898 317.338 -291.705 306.531C-305.941 286.837 -344.684 293.553 -361.952 313.631C-383.636 338.843 -372.1 385.871 -348.079 406.492C-313.493 436.185 -247.717 415.666 -225.84 374.946C-200.325 327.447 -236.418 255.958 -289.559 231.005C-337.957 208.272 -401.95 223.443 -430.617 269.914C-465.197 325.989 -430.149 398.121 -393.818 432.369C-338.88 484.166 -249.599 478.94 -191.235 433.875C-138.377 393.053 -109.452 318.448 -126.903 258.884C-158.619 150.651 -341.364 99.1962 -432.878 180.377C-484.291 225.99 -497.71 302.415 -489.183 360.539C-488.282 366.656 -470.867 473.589 -379.016 517.774C-281.025 564.915 -185.066 498.888 -160.604 482.059C-138.632 466.944 -54.9228 409.34 -46.1832 306.859C-35.6063 182.757 -144.199 100.992 -158.755 90.3931C-256.084 19.527 -413.402 10.1911 -517.085 113.266C-602.88 198.561 -625.395 334.427 -578.557 440.28C-530.041 549.909 -425.897 584.916 -401.286 593.198C-271.762 636.742 -135.198 583.517 -52.0008 497.072C-35.6912 480.127 87.563 348.345 46.8535 208.951C20.8962 120.08 -57.595 76.4577 -123.632 39.7487C-180.463 8.16024 -272.323 -42.8934 -389.014 -16.6347C-540.12 17.3788 -609.499 153.27 -617.528 169.637C-633.988 203.195 -680.413 311.092 -639.815 438.1C-634.743 453.966 -594.464 573.685 -476.612 634.31C-334.92 707.194 -190.653 638.305 -130.348 609.509C-80.8499 585.871 132.763 483.869 141.721 291.504C149.271 129.412 6.27772 15.6608 -34.3693 -16.6793C-69.817 -44.8707 -160.954 -115.215 -294.184 -115.466C-313.473 -115.499 -487.279 -112.834 -603.916 33.553C-677.257 125.598 -688.355 224.724 -694.99 283.945C-702.46 350.678 -717.102 481.408 -637.863 592.916C-587.781 663.399 -523.421 693.506 -484.581 711.672C-447.927 728.823 -335.9 781.225 -211.927 743.38C-160.225 727.596 -114.041 687.802 -21.6675 608.202C75.1199 524.806 123.509 483.098 148.676 428.626C204.628 307.475 169.263 183.226 162.03 157.785C113.045 -14.3372 -31.027 -93.729 -77.0012 -115.489" stroke="white" stroke-opacity="0.4" stroke-width="3" stroke-miterlimit="10"/>
</svg>
