<svg width="98" height="294" viewBox="0 0 98 294" fill="none" xmlns="http://www.w3.org/2000/svg">
<path d="M-155.763 76.8628C-151.219 67.645 -151.147 58.0512 -155.311 52.2877C-162.903 41.7842 -183.566 45.3661 -192.776 56.0743C-204.341 69.521 -198.188 94.6024 -185.377 105.6C-166.931 121.437 -131.851 110.493 -120.183 88.7758C-106.575 63.4427 -125.824 25.3153 -154.166 12.007C-179.979 -0.117042 -214.108 7.97398 -229.397 32.7588C-247.84 62.6653 -229.148 101.136 -209.771 119.401C-180.471 147.026 -132.855 144.239 -101.727 120.205C-73.5361 98.4329 -58.1094 58.6432 -67.4166 26.8759C-84.3315 -30.8482 -181.796 -58.2909 -230.603 -14.9945C-258.023 9.33264 -265.18 50.0924 -260.633 81.0917C-260.152 84.3544 -250.864 141.385 -201.877 164.951C-149.615 190.092 -98.4367 154.878 -85.3904 145.903C-73.6722 137.841 -29.027 107.119 -24.3659 52.4626C-18.7249 -13.7253 -76.6407 -57.3333 -84.404 -62.9859C-136.313 -100.781 -220.216 -105.76 -275.514 -50.7868C-321.271 -5.29629 -333.279 67.1655 -308.298 123.62C-282.423 182.089 -226.88 200.76 -213.754 205.177C-144.675 228.4 -71.8406 200.014 -27.4686 153.909C-18.7702 144.872 46.9654 74.5885 25.2537 0.245159C11.4098 -47.1528 -30.4522 -70.4181 -65.6721 -89.9962C-95.982 -106.843 -144.974 -134.072 -207.209 -120.067C-287.799 -101.927 -324.801 -29.4516 -329.083 -20.7224C-337.862 -2.82499 -362.622 54.72 -340.97 122.458C-338.264 130.92 -316.782 194.77 -253.928 227.103C-178.359 265.975 -101.416 229.234 -69.2537 213.876C-42.8548 201.269 71.0721 146.868 75.8499 44.2731C79.8764 -42.1758 3.61328 -102.843 -18.0652 -120.091C-36.9706 -135.127 -85.5772 -172.644 -156.633 -172.777C-166.92 -172.795 -259.617 -171.374 -321.824 -93.3006C-360.938 -44.2099 -366.858 8.65707 -370.396 40.2416C-374.38 75.8325 -382.19 145.556 -339.928 205.026C-313.218 242.617 -278.893 258.675 -258.178 268.363C-238.629 277.51 -178.882 305.458 -112.762 285.274C-85.1883 276.855 -60.5566 255.632 -11.2908 213.179C40.3291 168.701 66.1367 146.457 79.5593 117.405C109.4 52.7911 90.5385 -13.4753 86.6814 -27.0433C60.556 -118.842 -16.2826 -161.184 -40.8022 -172.789" stroke="white" stroke-opacity="0.4" stroke-width="2" stroke-miterlimit="10"/>
</svg>
