<svg width="89" height="481" viewBox="0 0 89 481" fill="none" xmlns="http://www.w3.org/2000/svg">
<path d="M206.373 221.632C213.819 228.178 222.719 230.504 229.103 227.849C240.739 223.005 242.507 202.257 234.826 190.866C225.181 176.562 200.351 176.589 186.968 186.344C167.698 200.389 169.215 236.757 186.522 253.106C206.711 272.174 246.898 262.599 266.26 238.426C283.897 216.412 284.797 181.63 265.532 161.071C242.285 136.27 201.917 145.228 180.159 159.598C147.253 181.326 138.096 227.852 152.756 263.493C166.037 295.771 199.215 319.992 231.038 318.499C288.864 315.782 338.417 228.345 310.215 171.143C294.369 139.005 258.249 122.522 228.314 119.612C225.163 119.307 169.863 114.84 135.874 156.488C99.6118 200.921 119.716 258.506 124.84 273.186C129.442 286.371 146.983 336.606 196.634 353.953C256.763 374.956 311.584 329.421 318.753 323.272C366.689 282.156 392.017 202.499 354.563 136.297C323.57 81.5167 259.181 52.904 200.545 63.6892C139.816 74.8624 108.759 123.978 101.415 135.584C62.7872 196.669 71.2024 273.511 103.108 327.101C109.362 337.606 158.471 417.465 232.927 414.036C280.398 411.849 312.35 376.994 339.237 347.67C362.374 322.434 399.769 281.643 402.106 218.395C405.127 136.492 346.893 83.7976 339.835 77.6191C325.366 64.9525 277.988 27.5638 209.686 32.4888C201.153 33.1047 136.506 38.7803 90.9469 91.7249C36.1729 155.381 51.3398 238.146 57.6795 272.742C62.8844 301.139 85.3419 423.686 179.522 452.422C258.88 476.636 334.084 417.438 355.464 400.611C374.103 385.936 420.966 347.936 438.621 279.515C441.175 269.61 462.723 179.976 405.504 101.685C369.525 52.4565 321.847 34.3186 293.363 23.4804C261.266 11.2702 198.387 -12.6533 132.684 14.0698C91.1542 30.9589 67.7611 60.2492 53.6457 77.9258C40.3205 94.6062 -0.396684 145.59 2.05174 214.033C3.07327 242.577 16.7225 271.298 44.0273 328.744C72.6332 388.934 86.9413 419.028 110.633 438.793C163.327 482.738 229.574 480.156 243.136 479.632C334.906 476.057 393.219 411.995 410.055 391.104" stroke="white" stroke-opacity="0.4" stroke-width="2" stroke-miterlimit="10"/>
</svg>
