<svg width="165" height="739" viewBox="0 0 165 739" fill="none" xmlns="http://www.w3.org/2000/svg">
<path d="M385.075 434.303C399.037 447.176 415.724 451.749 427.694 446.528C449.511 437.003 452.827 396.2 438.426 373.799C420.341 345.67 373.784 345.722 348.691 364.906C312.559 392.526 315.404 464.047 347.854 496.199C385.709 533.697 461.06 514.867 497.364 467.329C530.434 424.036 532.121 355.636 495.999 315.206C452.411 266.432 376.72 284.048 335.924 312.308C274.226 355.038 257.057 446.535 284.544 516.625C309.446 580.103 371.654 627.735 431.322 624.797C539.746 619.455 632.658 447.504 579.78 335.012C550.068 271.811 482.344 239.397 426.216 233.672C420.307 233.074 316.62 224.288 252.89 306.193C184.899 393.573 222.595 506.818 232.201 535.686C240.83 561.616 273.719 660.407 366.816 694.521C479.556 735.825 582.345 646.276 595.788 634.184C685.668 553.327 733.158 396.676 662.932 266.486C604.82 158.756 484.091 102.487 374.148 123.697C260.281 145.67 202.05 242.26 188.28 265.084C115.852 385.211 131.631 536.325 191.454 641.715C203.18 662.374 295.259 819.422 434.865 812.679C523.872 808.378 583.783 739.833 634.195 682.166C677.577 632.537 747.692 552.319 752.075 427.936C757.74 266.868 648.55 163.241 635.318 151.091C608.188 126.181 519.354 52.6538 391.287 62.3392C375.289 63.5503 254.076 74.7119 168.652 178.831C65.9505 304.015 94.3885 466.778 106.275 534.813C116.035 590.658 158.142 831.656 334.73 888.167C483.527 935.785 624.534 819.369 664.621 786.278C699.57 757.417 787.438 682.687 820.54 548.134C825.33 528.654 865.733 352.383 758.446 198.418C690.987 101.607 601.59 65.9376 548.183 44.6235C487.999 20.6113 370.101 -26.4358 246.909 26.1169C169.041 59.3305 125.178 116.932 98.712 151.694C73.7273 184.497 -2.61744 284.76 1.97336 419.359C3.88873 475.492 29.4811 531.974 80.6776 644.946C134.314 763.314 161.141 822.496 205.563 861.364C304.365 947.786 428.577 942.708 454.007 941.677C626.075 934.647 735.412 808.664 766.979 767.581" stroke="white" stroke-opacity="0.4" stroke-width="3" stroke-miterlimit="10"/>
</svg>
