<svg width="66" height="132" viewBox="0 0 66 132" fill="none" xmlns="http://www.w3.org/2000/svg">
<path d="M41.6725 1.5654C19.2096 1.5654 1 8.03021 1 16.005C1 23.9797 19.2096 30.4446 41.6725 30.4446C54.2613 30.4446 64.4667 27.7079 64.4667 24.3321C64.4667 20.9563 54.2613 18.2196 41.6725 18.2196C19.2096 18.2196 1 24.6844 1 32.6592C1 40.634 19.2096 47.099 41.6725 47.099C54.2613 47.099 64.4667 44.3623 64.4667 40.9863C64.4667 37.6105 54.2613 34.8739 41.6725 34.8739C19.2096 34.8739 1 41.3784 1 49.402C1 57.4256 19.2096 63.9303 41.6725 63.9303C54.2613 63.9303 64.4667 61.1936 64.4667 57.8177C64.4667 54.4417 54.2613 51.7055 41.6725 51.7055C19.2096 51.7055 1 58.1701 1 66.1449C1 74.1197 19.2096 80.5842 41.6725 80.5842C54.2613 80.5842 64.4667 77.848 64.4667 74.472C64.4667 71.0961 54.2613 68.3594 41.6725 68.3594C19.2096 68.3594 1 74.8244 1 82.7992C1 90.774 19.2096 97.2386 41.6725 97.2386C54.2613 97.2386 64.4667 94.5018 64.4667 91.1264C64.4667 87.7505 54.2613 85.0137 41.6725 85.0137C19.2096 85.0137 1 91.4788 1 99.4531C1 107.428 19.2096 113.893 41.6725 113.893C54.2613 113.893 64.4667 111.156 64.4667 107.78C64.4667 104.405 54.2613 101.668 41.6725 101.668C19.2096 101.668 1 108.172 1 116.196C1 124.22 19.2096 130.724 41.6725 130.724" stroke="#FFDADA" stroke-width="2" stroke-linecap="round"/>
</svg>
