<svg width="33" height="68" viewBox="0 0 33 68" fill="none" xmlns="http://www.w3.org/2000/svg">
<path d="M20.7101 1.21484C9.86061 1.21484 1.06543 4.47064 1.06543 8.48686C1.06543 12.5031 9.86061 15.7589 20.7101 15.7589C26.7905 15.7589 31.7196 14.3807 31.7196 12.6806C31.7196 10.9804 26.7905 9.60221 20.7101 9.60221C9.86061 9.60221 1.06543 12.858 1.06543 16.8742C1.06543 20.8905 9.86061 24.1464 20.7101 24.1464C26.7905 24.1464 31.7196 22.7681 31.7196 21.0679C31.7196 19.3678 26.7905 17.9896 20.7101 17.9896C9.86061 17.9896 1.06543 21.2654 1.06543 25.3062C1.06543 29.347 9.86061 32.6229 20.7101 32.6229C26.7905 32.6229 31.7196 31.2447 31.7196 29.5445C31.7196 27.8443 26.7905 26.4663 20.7101 26.4663C9.86061 26.4663 1.06543 29.722 1.06543 33.7382C1.06543 37.7545 9.86061 41.0101 20.7101 41.0101C26.7905 41.0101 31.7196 39.6321 31.7196 37.9319C31.7196 36.2318 26.7905 34.8535 20.7101 34.8535C9.86061 34.8535 1.06543 38.1094 1.06543 42.1256C1.06543 46.1419 9.86061 49.3976 20.7101 49.3976C26.7905 49.3976 31.7196 48.0193 31.7196 46.3194C31.7196 44.6192 26.7905 43.2409 20.7101 43.2409C9.86061 43.2409 1.06543 46.4968 1.06543 50.5128C1.06543 54.5291 9.86061 57.785 20.7101 57.785C26.7905 57.785 31.7196 56.4067 31.7196 54.7066C31.7196 53.0066 26.7905 51.6284 20.7101 51.6284C9.86061 51.6284 1.06543 54.904 1.06543 58.9448C1.06543 62.9857 9.86061 66.2616 20.7101 66.2616" stroke="#D9F0FF" stroke-width="2" stroke-linecap="round"/>
</svg>
