<svg width="170" height="167" viewBox="0 0 170 167" fill="none" xmlns="http://www.w3.org/2000/svg">
<path d="M83.3916 88.9609C81.7343 89.763 79.5875 86.9316 81.6156 84.2738C83.2835 81.5998 89.2254 80.8497 92.7523 85.414C96.4546 89.5688 95.7964 98.6123 88.7196 103.022C82.0939 107.735 69.9678 105.68 64.6689 96.0551C58.9464 86.9525 62.3696 71.6885 74.5117 65.5254C86.0777 58.7747 104.426 63.6451 111.475 78.3198C119.241 92.3863 113.013 113.842 95.8235 121.771C79.3087 130.547 54.7543 122.896 45.9468 103.149C36.1379 84.1226 45.1694 56.4593 67.4078 46.7772C88.881 35.9658 119.62 46.4154 130.197 71.2258C142.027 95.1979 130.231 129.085 102.928 140.519C76.5123 153.366 39.5542 140.111 27.2248 110.243C13.3513 81.3079 27.9518 41.2266 60.3038 28.0288C91.6685 13.1597 134.829 29.1946 148.92 64.1317C164.832 98.0187 147.433 144.32 110.031 159.267C73.7111 176.181 24.3583 157.327 8.50208 117.337C-9.43643 78.4977 10.7339 25.9837 53.1998 9.2804C94.4659 -9.65682 150.03 11.9826 167.642 57.0376" stroke="#D9F0FF" stroke-width="3" stroke-linecap="round"/>
</svg>
