<svg width="226" height="223" viewBox="0 0 226 223" fill="none" xmlns="http://www.w3.org/2000/svg">
<path d="M110.856 118.281C108.646 119.351 105.783 115.575 108.488 112.032C110.711 108.466 118.634 107.466 123.337 113.552C128.273 119.092 127.395 131.15 117.96 137.03C109.125 143.313 92.9571 140.573 85.8919 127.74C78.2619 115.603 82.8262 95.2513 99.0156 87.0338C114.437 78.0328 138.901 84.5267 148.3 104.093C158.655 122.848 150.351 151.456 127.431 162.027C105.412 173.729 72.6724 163.528 60.9292 137.199C47.8506 111.83 59.8927 74.9457 89.5438 62.0362C118.175 47.621 159.161 61.5538 173.263 94.6343C189.035 126.597 173.309 171.779 136.903 187.025C101.683 204.155 52.4057 186.481 35.9665 146.657C17.4685 108.077 36.9358 54.6354 80.0718 37.0383C121.891 17.2129 179.438 38.5927 198.226 85.1755C219.443 130.358 196.244 192.093 146.375 212.023C97.9482 234.574 32.1445 209.436 11.0029 156.116C-12.9152 104.33 13.9787 34.3115 70.5999 12.0405C125.621 -13.2092 199.706 15.6433 223.189 75.7167" stroke="#D9F0FF" stroke-width="4" stroke-linecap="round"/>
</svg>
