<svg width="66" height="138" viewBox="0 0 66 138" fill="none" xmlns="http://www.w3.org/2000/svg">
<path d="M41.6725 1C19.2096 1 1 7.78053 1 16.1447C1 24.509 19.2096 31.2895 41.6725 31.2895C54.2613 31.2895 64.4667 28.4193 64.4667 24.8786C64.4667 21.3379 54.2613 18.4676 41.6725 18.4676C19.2096 18.4676 1 25.2481 1 33.6123C1 41.9766 19.2096 48.7573 41.6725 48.7573C54.2613 48.7573 64.4667 45.8869 64.4667 42.3461C64.4667 38.8054 54.2613 35.9351 41.6725 35.9351C19.2096 35.9351 1 42.7573 1 51.1728C1 59.5883 19.2096 66.4107 41.6725 66.4107C54.2613 66.4107 64.4667 63.5403 64.4667 59.9995C64.4667 56.4587 54.2613 53.5888 41.6725 53.5888C19.2096 53.5888 1 60.3691 1 68.7333C1 77.0976 19.2096 83.8779 41.6725 83.8779C54.2613 83.8779 64.4667 81.008 64.4667 77.4672C64.4667 73.9264 54.2613 71.056 41.6725 71.056C19.2096 71.056 1 77.8368 1 86.2011C1 94.5653 19.2096 101.346 41.6725 101.346C54.2613 101.346 64.4667 98.4752 64.4667 94.9349C64.4667 91.3941 54.2613 88.5237 41.6725 88.5237C19.2096 88.5237 1 95.3045 1 103.668C1 112.033 19.2096 118.813 41.6725 118.813C54.2613 118.813 64.4667 115.943 64.4667 112.402C64.4667 108.862 54.2613 105.991 41.6725 105.991C19.2096 105.991 1 112.813 1 121.229C1 129.644 19.2096 136.467 41.6725 136.467" stroke="#D9F0FF" stroke-width="2" stroke-linecap="round"/>
</svg>
