<svg width="68" height="68" viewBox="0 0 68 68" fill="none" xmlns="http://www.w3.org/2000/svg">
<path d="M33.5892 0.864975C33.5892 0.864957 33.5892 0.86494 33.5892 0.864923C33.647 0.378359 34.353 0.378359 34.4108 0.864923C34.4108 0.86494 34.4108 0.864957 34.4108 0.864975L35.4806 9.8805C36.8891 21.7515 46.2485 31.1109 58.1194 32.5194L67.135 33.5892C67.6217 33.647 67.6217 34.353 67.1349 34.4108L58.1194 35.4806C46.2485 36.8891 36.8891 46.2485 35.4806 58.1194L34.4108 67.135C34.353 67.6217 33.647 67.6217 33.5892 67.1349L32.5194 58.1194C31.1109 46.2485 21.7515 36.8891 9.8805 35.4806L0.864975 34.4108C0.864957 34.4108 0.86494 34.4108 0.864923 34.4108C0.378359 34.353 0.378359 33.647 0.864923 33.5892C0.86494 33.5892 0.864957 33.5892 0.864975 33.5892L9.8805 32.5194C21.7515 31.1109 31.1109 21.7515 32.5194 9.8805L33.5892 0.864975Z" fill="#FFDADA" stroke="#FFDADA"/>
</svg>
