<svg width="37" height="37" viewBox="0 0 37 37" fill="none" xmlns="http://www.w3.org/2000/svg">
<path d="M18.3828 0.429872C18.4509 -0.143291 19.2826 -0.143291 19.3506 0.429872L19.9212 5.23818C20.6579 11.447 25.5531 16.3422 31.7618 17.0789L36.5701 17.6494C37.1434 17.7175 37.1434 18.5492 36.5701 18.6173L31.7618 19.1878C25.5531 19.9245 20.6579 24.8197 19.9212 31.0284L19.3506 35.8367C19.2826 36.41 18.4509 36.41 18.3828 35.8367L17.8123 31.0284C17.0756 24.8197 12.1804 19.9245 5.97158 19.1878L1.16327 18.6173C0.590108 18.5492 0.590108 17.7175 1.16327 17.6494L5.97158 17.0789C12.1804 16.3422 17.0756 11.447 17.8123 5.23818L18.3828 0.429872Z" fill="#FFDADA"/>
</svg>
