<svg width="91" height="92" viewBox="0 0 91 92" fill="none" xmlns="http://www.w3.org/2000/svg">
<path d="M44.9536 1.80051C44.9536 1.8005 44.9536 1.80048 44.9536 1.80046C45.0539 0.955673 46.2797 0.955673 46.3801 1.80046C46.3801 1.80048 46.3801 1.8005 46.3801 1.80051L47.8064 13.8212C49.6754 29.5728 62.0943 41.9916 77.8457 43.8606L89.8664 45.2869C90.7114 45.3873 90.7114 46.6132 89.8664 46.7135L77.8457 48.1398C62.0943 50.0088 49.6754 62.4277 47.8064 78.179L46.3801 90.1998C46.2798 91.0448 45.0539 91.0448 44.9536 90.1998L43.5272 78.179C41.6583 62.4277 29.2394 50.0088 13.4879 48.1398L1.46714 46.7135C1.46712 46.7135 1.46711 46.7135 1.46709 46.7135C0.622299 46.6131 0.622299 45.3873 1.46709 45.2869C1.46711 45.2869 1.46712 45.2869 1.46714 45.2869L13.4879 43.8606C29.2394 41.9916 41.6583 29.5728 43.5272 13.8212L44.9536 1.80051Z" fill="#FFDADA" stroke="#FFDADA"/>
</svg>
