<svg width="28" height="28" viewBox="0 0 28 28" fill="none" xmlns="http://www.w3.org/2000/svg">
<path d="M13.5142 0.480335C13.5651 0.0518024 14.1869 0.0518024 14.2378 0.480335L14.6644 4.07533C15.2152 8.71745 18.8751 12.3774 23.5172 12.9282L27.1122 13.3548C27.5408 13.4057 27.5408 14.0275 27.1122 14.0784L23.5172 14.5049C18.8751 15.0557 15.2152 18.7157 14.6644 23.3578L14.2378 26.9528C14.1869 27.3813 13.5651 27.3813 13.5142 26.9528L13.0876 23.3578C12.5368 18.7157 8.87687 15.0557 4.23476 14.5049L0.639759 14.0784C0.211226 14.0275 0.211226 13.4057 0.639759 13.3548L4.23476 12.9282C8.87687 12.3774 12.5368 8.71745 13.0876 4.07533L13.5142 0.480335Z" fill="#FFDADA"/>
</svg>
