<svg width="37" height="37" viewBox="0 0 37 37" fill="none" xmlns="http://www.w3.org/2000/svg">
<path d="M17.6494 0.429872C17.7175 -0.143291 18.5492 -0.143291 18.6173 0.429872L19.1878 5.23818C19.9245 11.447 24.8197 16.3422 31.0284 17.0789L35.8367 17.6494C36.41 17.7175 36.41 18.5492 35.8367 18.6173L31.0284 19.1878C24.8197 19.9245 19.9245 24.8197 19.1878 31.0284L18.6173 35.8367C18.5492 36.41 17.7175 36.41 17.6494 35.8367L17.0789 31.0284C16.3422 24.8197 11.447 19.9245 5.23818 19.1878L0.429872 18.6173C-0.143291 18.5492 -0.143291 17.7175 0.429872 17.6494L5.23818 17.0789C11.447 16.3422 16.3422 11.447 17.0789 5.23818L17.6494 0.429872Z" fill="#FFDADA"/>
</svg>
