<svg width="80" height="11" viewBox="0 0 80 11" fill="none" xmlns="http://www.w3.org/2000/svg">
<path d="M-28.4111 1.71738C-23.0859 1.71738 -23.0859 9.25414 -17.7607 9.25414C-12.4354 9.25414 -12.4354 1.71738 -7.11018 1.71738C-1.78494 1.71738 -1.78494 9.25414 3.52782 9.25414C8.85322 9.25414 8.85322 1.71738 14.1658 1.71738C19.4912 1.71738 19.4912 9.25414 24.8038 9.25414C30.1291 9.25414 30.1291 1.71738 35.4541 1.71738C40.7794 1.71738 40.7794 9.25414 46.1048 9.25414C51.4298 9.25414 51.4298 1.71738 56.7551 1.71738C62.0805 1.71738 62.0805 9.25414 67.4058 9.25414C72.7308 9.25414 72.7308 1.71738 78.0562 1.71738" stroke="#BFEBE3" stroke-width="2" stroke-miterlimit="10" stroke-linecap="round"/>
</svg>
