<svg width="145" height="13" viewBox="0 0 145 13" fill="none" xmlns="http://www.w3.org/2000/svg">
<path d="M1.4668 1.88086C8.5893 1.88086 8.5893 11.8011 15.7118 11.8011C22.8343 11.8011 22.8343 1.88086 29.9568 1.88086C37.0793 1.88086 37.0793 11.8011 44.1851 11.8011C51.3079 11.8011 51.3079 1.88086 58.4135 1.88086C65.5361 1.88086 65.5361 11.8011 72.6417 11.8011C79.7644 11.8011 79.7644 1.88086 86.8865 1.88086C94.0092 1.88086 94.0092 11.8011 101.132 11.8011C108.254 11.8011 108.254 1.88086 115.377 1.88086C122.499 1.88086 122.499 11.8011 129.622 11.8011C136.744 11.8011 136.744 1.88086 143.867 1.88086" stroke="#F7D4D4" stroke-width="2" stroke-miterlimit="10" stroke-linecap="round"/>
</svg>
