<svg width="360" height="29" viewBox="0 0 360 29" fill="none" xmlns="http://www.w3.org/2000/svg">
<path d="M2 2.66748C19.8063 2.66748 19.8063 26.6675 37.6125 26.6675C55.4188 26.6675 55.4188 2.66748 73.2251 2.66748C91.0313 2.66748 91.0313 26.6675 108.796 26.6675C126.603 26.6675 126.603 2.66748 144.367 2.66748C162.173 2.66748 162.173 26.6675 179.937 26.6675C197.744 26.6675 197.744 2.66748 215.549 2.66748C233.356 2.66748 233.356 26.6675 251.163 26.6675C268.968 26.6675 268.968 2.66748 286.775 2.66748C304.581 2.66748 304.581 26.6675 322.388 26.6675C340.193 26.6675 340.193 2.66748 358 2.66748" stroke="#BFEBE3" stroke-width="4" stroke-miterlimit="10" stroke-linecap="round"/>
</svg>
