<svg width="360" height="28" viewBox="0 0 360 28" fill="none" xmlns="http://www.w3.org/2000/svg">
<path d="M2 2.00098C19.8063 2.00098 19.8063 26.001 37.6125 26.001C55.4188 26.001 55.4188 2.00098 73.2251 2.00098C91.0313 2.00098 91.0313 26.001 108.796 26.001C126.603 26.001 126.603 2.00098 144.367 2.00098C162.173 2.00098 162.173 26.001 179.937 26.001C197.744 26.001 197.744 2.00098 215.549 2.00098C233.356 2.00098 233.356 26.001 251.163 26.001C268.968 26.001 268.968 2.00098 286.775 2.00098C304.581 2.00098 304.581 26.001 322.388 26.001C340.193 26.001 340.193 2.00098 358 2.00098" stroke="#D7ECFA" stroke-width="4" stroke-miterlimit="10" stroke-linecap="round"/>
</svg>
