<svg width="80" height="215" viewBox="0 0 80 215" fill="none" xmlns="http://www.w3.org/2000/svg">
<path d="M-143.571 -24.1851C-151.56 -18.2704 -155.699 -10.0517 -154.414 -3.25172C-152.067 9.14294 -132.019 15.2123 -119.214 10.0816C-103.134 3.63894 -97.9977 -20.6544 -104.814 -35.7851C-114.627 -57.5717 -150.728 -63.6944 -170.414 -50.1851C-193.374 -34.4251 -192.307 6.88694 -172.547 30.8816C-154.552 52.7376 -120.515 60.8923 -96.2804 46.3483C-67.0431 28.7963 -67.4644 -12.5637 -77.0804 -36.8517C-91.6191 -73.5824 -135.496 -92.2704 -173.614 -85.3851C-208.136 -79.1451 -238.867 -51.7584 -244.014 -20.3184C-253.363 36.8123 -177.63 103.57 -115.48 87.9483C-80.5631 79.1696 -56.8351 47.2869 -47.7471 18.6149C-46.7924 15.5963 -30.8991 -37.5611 -64.8137 -79.5184C-100.995 -124.281 -161.838 -116.66 -177.347 -114.718C-191.278 -112.974 -244.355 -106.324 -271.747 -61.3851C-304.915 -6.96372 -271.507 56.183 -266.947 64.4816C-236.456 119.97 -163.342 161.404 -90.4137 138.615C-30.067 119.756 11.4743 62.7589 13.053 3.14828C14.685 -58.5904 -27.1871 -99.241 -37.0804 -108.852C-89.1551 -159.412 -166.515 -167.252 -225.88 -147.252C-237.518 -143.332 -326.307 -111.998 -338.414 -38.4517C-346.131 8.43894 -318.478 46.983 -295.214 79.415C-275.192 107.324 -242.83 152.434 -181.08 167.948C-101.118 188.034 -37.1604 142.092 -29.6137 136.482C-14.1417 124.978 32.4983 86.4549 41.853 18.6149C43.021 10.1403 50.877 -54.2811 8.25295 -109.918C-42.995 -176.809 -127.587 -179.284 -162.947 -180.318C-191.971 -181.166 -317.224 -184.83 -365.08 -98.7184C-405.406 -26.1584 -362.792 59.783 -350.68 84.215C-340.115 105.516 -312.467 159.303 -248.814 190.882C-239.598 195.452 -155.88 235.276 -66.9471 195.682C-11.0271 170.786 16.733 127.943 33.3196 102.348C52.0076 73.5056 88.621 17.0043 75.9863 -52.8517C68.0023 -97.0064 44.045 -126.014 29.5863 -143.518C15.9436 -160.041 -25.7577 -210.532 -93.6137 -222.452C-121.912 -227.422 -153.011 -220.078 -215.214 -205.385C-280.387 -189.993 -312.974 -182.292 -337.347 -163.252C-391.544 -120.9 -402.776 -55.5611 -405.08 -42.1851C-420.643 48.3269 -369.731 118.764 -352.675 139.602" stroke="white" stroke-opacity="0.4" stroke-width="2" stroke-miterlimit="10"/>
</svg>
