<svg width="60" height="161" viewBox="0 0 60 161" fill="none" xmlns="http://www.w3.org/2000/svg">
<path d="M-107.343 -18.0824C-113.316 -13.6603 -116.411 -7.51546 -115.45 -2.43135C-113.695 6.83569 -98.706 11.3735 -89.1319 7.5375C-77.1095 2.72055 -73.2695 -15.4427 -78.3655 -26.7553C-85.7026 -43.0444 -112.694 -47.6221 -127.412 -37.5217C-144.579 -25.7385 -143.781 5.14896 -129.007 23.0889C-115.553 39.4298 -90.1049 45.5268 -71.9855 34.6528C-50.1258 21.5298 -50.4408 -9.39359 -57.6303 -27.5528C-68.5004 -55.015 -101.306 -68.9874 -129.805 -63.8395C-155.616 -59.174 -178.592 -38.698 -182.44 -15.1915C-189.43 27.523 -132.807 77.4351 -86.3406 65.7556C-60.2342 59.1921 -42.4936 35.3546 -35.6989 13.9176C-34.9851 11.6606 -23.1022 -28.0832 -48.459 -59.4532C-75.5105 -92.9206 -121 -87.2224 -132.596 -85.7709C-143.012 -84.467 -182.696 -79.4945 -203.176 -45.8955C-227.974 -5.20668 -202.996 42.0058 -199.587 48.2104C-176.79 89.6968 -122.125 120.676 -67.5992 103.637C-22.4802 89.5373 8.57876 46.9224 9.75907 2.3537C10.9793 -43.8061 -20.3269 -74.1991 -27.7238 -81.3846C-66.6581 -119.186 -124.497 -125.048 -168.883 -110.095C-177.583 -107.164 -243.968 -83.7373 -253.02 -28.7491C-258.79 6.30934 -238.114 35.1273 -220.721 59.3755C-205.751 80.2423 -181.555 113.969 -135.387 125.569C-75.6022 140.586 -27.7836 106.237 -22.1412 102.042C-10.5734 93.4411 24.2976 64.6391 31.2918 13.9176C32.165 7.58136 38.0387 -40.5841 6.17028 -82.1821C-32.146 -132.194 -95.3923 -134.044 -121.83 -134.818C-143.53 -135.452 -237.177 -138.191 -272.957 -73.8083C-303.107 -19.5578 -271.247 44.6974 -262.191 62.9643C-254.292 78.8905 -233.62 119.105 -186.029 142.715C-179.139 146.132 -116.546 175.907 -50.054 146.304C-8.24467 127.69 12.5105 95.6581 24.9117 76.5219C38.8841 54.9573 66.2585 12.7133 56.812 -39.5155C50.8427 -72.5283 32.9307 -94.2165 22.1204 -107.304C11.9203 -119.657 -19.2583 -157.407 -69.9917 -166.319C-91.1496 -170.036 -114.401 -164.545 -160.908 -153.559C-209.635 -142.051 -233.999 -136.293 -252.222 -122.058C-292.744 -90.3925 -301.141 -41.5411 -302.864 -31.5404C-314.5 36.1321 -276.435 88.7956 -263.682 104.375" stroke="white" stroke-opacity="0.4" stroke-width="2" stroke-miterlimit="10"/>
</svg>
