<svg width="77" height="215" viewBox="0 0 77 215" fill="none" xmlns="http://www.w3.org/2000/svg">
<path d="M265.429 200.815C257.44 206.73 253.301 214.948 254.586 221.748C256.933 234.143 276.981 240.212 289.786 235.082C305.866 228.639 311.002 204.346 304.186 189.215C294.373 167.428 258.272 161.306 238.586 174.815C215.626 190.575 216.693 231.887 236.453 255.882C254.448 277.738 288.485 285.892 312.72 271.348C341.957 253.796 341.536 212.436 331.92 188.148C317.381 151.418 273.504 132.73 235.386 139.615C200.864 145.855 170.133 173.242 164.986 204.682C155.637 261.812 231.37 328.57 293.52 312.948C328.437 304.17 352.165 272.287 361.253 243.615C362.208 240.596 378.101 187.439 344.186 145.482C308.005 100.719 247.162 108.34 231.653 110.282C217.722 112.026 164.645 118.676 137.253 163.615C104.085 218.036 137.493 281.183 142.053 289.482C172.544 344.97 245.658 386.404 318.586 363.615C378.933 344.756 420.474 287.759 422.053 228.148C423.685 166.41 381.813 125.759 371.92 116.148C319.845 65.5883 242.485 57.7483 183.12 77.7483C171.482 81.6683 82.693 113.002 70.5863 186.548C62.8689 233.439 90.5223 271.983 113.786 304.415C133.808 332.324 166.17 377.434 227.92 392.948C307.882 413.034 371.84 367.092 379.386 361.482C394.858 349.978 441.498 311.455 450.853 243.615C452.021 235.14 459.877 170.719 417.253 115.082C366.005 48.191 281.413 45.7163 246.053 44.6816C217.029 43.8336 91.7756 40.1696 43.9196 126.282C3.59428 198.842 46.2076 284.783 58.3196 309.215C68.8849 330.516 96.533 384.303 160.186 415.882C169.402 420.452 253.12 460.276 342.053 420.682C397.973 395.786 425.733 352.943 442.32 327.348C461.008 298.506 497.621 242.004 484.986 172.148C477.002 127.994 453.045 98.9856 438.586 81.4816C424.944 64.959 383.242 14.4683 315.386 2.54829C287.088 -2.42237 255.989 4.92163 193.786 19.615C128.613 35.007 96.0263 42.7083 71.6529 61.7483C17.4556 104.1 6.22361 169.439 3.91961 182.815C-11.6431 273.327 39.2689 343.764 56.3249 364.602" stroke="white" stroke-opacity="0.4" stroke-width="2" stroke-miterlimit="10"/>
</svg>
