<svg width="48" height="30" viewBox="0 0 48 30" fill="none" xmlns="http://www.w3.org/2000/svg">
<path fill-rule="evenodd" clip-rule="evenodd" d="M47.1333 15.001C47.1333 15.001 36.6568 30.001 23.7333 30.001C10.8098 30.001 0.333252 15.001 0.333252 15.001C0.333252 15.001 10.8098 0.000976562 23.7333 0.000976562C36.6568 0.000976562 47.1333 15.001 47.1333 15.001ZM34.4132 15.001C34.4132 21.0283 29.6317 25.9145 23.7333 25.9145C17.8348 25.9145 13.0533 21.0283 13.0533 15.001C13.0533 8.97365 17.8348 4.08745 23.7333 4.08745C29.6317 4.08745 34.4132 8.97365 34.4132 15.001ZM23.7333 21.2547C27.1133 21.2547 29.8532 18.4548 29.8532 15.001C29.8532 11.5472 27.1133 8.74722 23.7333 8.74722C20.3532 8.74722 17.6133 11.5472 17.6133 15.001C17.6133 18.4548 20.3532 21.2547 23.7333 21.2547Z" fill="#FAC3C3"/>
</svg>
