<svg width="115" height="114" viewBox="0 0 115 114" fill="none" xmlns="http://www.w3.org/2000/svg">
<path d="M53.4392 4.41763C54.1292 -0.247937 60.8587 -0.247933 61.5487 4.41763C62.1402 8.41752 67.5564 9.22738 69.3037 5.581C71.3404 1.33052 77.7733 3.30171 77.0533 7.95967C76.4358 11.954 81.374 14.3223 84.1184 11.3551C87.3161 7.89792 92.8846 11.6683 90.8219 15.9019C89.0526 19.5334 93.0717 23.2514 96.5664 21.2253C100.637 18.865 104.846 24.1051 101.628 27.5388C98.8674 30.485 101.608 35.2216 105.542 34.3132C110.125 33.2549 112.595 39.5017 108.511 41.8345C105.005 43.8364 106.222 49.1683 110.248 49.4559C114.941 49.791 115.447 56.4876 110.856 57.5162C106.917 58.3989 106.509 63.8521 110.274 65.3103C114.66 67.0097 113.154 73.5551 108.464 73.1896C104.439 72.8759 102.438 77.9673 105.607 80.4689C109.299 83.3841 105.922 89.1923 101.546 87.4643C97.7898 85.981 94.3717 90.2562 96.6628 93.5819C99.3332 97.4585 94.389 102.014 90.7134 99.0729C87.5584 96.5484 83.0288 99.6257 84.236 103.482C85.6436 107.978 79.5756 110.881 76.9283 106.984C74.6567 103.639 69.4209 105.246 69.4341 109.289C69.4495 114.004 62.7948 115.001 61.4155 110.492C60.2325 106.625 54.7554 106.625 53.5724 110.492C52.1931 115.001 45.5384 114.004 45.5538 109.289C45.567 105.246 40.3312 103.639 38.0596 106.984C35.4122 110.881 29.3442 107.978 30.7519 103.482C31.9591 99.6258 27.4296 96.5484 24.2745 99.0728C20.599 102.014 15.6549 97.4583 18.3253 93.5819C20.6163 90.2561 17.1982 85.981 13.442 87.4643C9.0663 89.1923 5.68839 83.3842 9.38087 80.4689C12.5494 77.9674 10.5485 72.8759 6.52368 73.1896C1.83389 73.5551 0.327823 67.0097 4.71417 65.3104C8.47836 63.8521 8.07068 58.3989 4.13155 57.5162C-0.459067 56.4876 0.0471072 49.791 4.7396 49.4559C8.76607 49.1683 9.98269 43.8364 6.47733 41.8344C2.39258 39.5017 4.86283 33.2549 9.44618 34.3132C13.3803 35.2216 16.1206 30.4851 13.3598 27.5388C10.1421 24.1051 14.3505 18.8651 18.4215 21.2253C21.9163 23.2514 25.9353 19.5334 24.1659 15.9018C22.1033 11.6683 27.6718 7.89795 30.8695 11.3552C33.6139 14.3224 38.5521 11.9541 37.9347 7.9597C37.2146 3.30175 43.6475 1.33052 45.6842 5.58101C47.4315 9.22739 52.8477 8.41752 53.4392 4.41763Z" fill="#FDACAC"/>
<path d="M46.2564 61.5165L57.5064 72.7665C57.6822 72.9421 57.9205 73.0407 58.1689 73.0407C58.4173 73.0407 58.6556 72.9421 58.8314 72.7665L70.0814 61.5165C70.247 61.3388 70.3371 61.1037 70.3329 60.8609C70.3286 60.618 70.2302 60.3862 70.0584 60.2145C69.8867 60.0427 69.6549 59.9443 69.412 59.94C69.1692 59.9358 68.9341 60.0259 68.7564 60.1915L59.1064 69.8399V44.604C59.1064 44.3554 59.0076 44.1169 58.8318 43.9411C58.656 43.7653 58.4175 43.6665 58.1689 43.6665C57.9203 43.6665 57.6818 43.7653 57.506 43.9411C57.3302 44.1169 57.2314 44.3554 57.2314 44.604V69.8399L47.5814 60.1915C47.4037 60.0259 47.1686 59.9358 46.9257 59.94C46.6829 59.9443 46.4511 60.0427 46.2794 60.2145C46.1076 60.3862 46.0092 60.618 46.0049 60.8609C46.0006 61.1037 46.0908 61.3388 46.2564 61.5165Z" fill="#635D5D"/>
<path d="M59.9 18C59.9 20 59.9 20 57.8 20.1C56.6 20.2 55.3 20.3 54.1 20.4C53.4 20.4 53.1 20.6 53.2 21.4C53.3 22.3 53.4 23.2 53.5 24.3C55.5 24.2 57.4 24 59.4 23.9C59.5 24.5 59.6 25.1 59.7 25.8C57.6 26 55.7 26.1 53.6 26.3C53.7 27.3 53.7 28.2 53.8 29.1C54 31.2 53.9 31.3 51.6 31.1C51.3 27.1 51 23 50.7 18.8C53.3 18.5 55.8 18.3 58.3 18C58.8 18 59.4 18 59.9 18ZM22.2 59.3C22.9 59.3 23.6 59.4 24.4 59.4C24.1 60.1 23.8 60.8 23.5 61.5C23.9 61.7 24.3 61.8 24.7 62C25.1 61.4 25.4 60.8 25.8 60.2C26.3 60.9 26.6 61.4 27 62C27.4 61.7 27.8 61.5 28.1 61.2C27.7 60.5 27.4 59.9 27 59.3C27.8 59.2 28.4 59.1 29.1 59C29.1 58.5 29 58.2 29 57.8C28.3 57.8 27.6 57.8 26.9 57.8C27.2 57.1 27.5 56.5 27.8 55.8C27.4 55.6 27 55.4 26.6 55.2C26.2 55.8 25.9 56.4 25.5 57C25 56.3 24.6 55.8 24.2 55.2C23.8 55.5 23.5 55.7 23.1 56C23.5 56.7 23.8 57.3 24.2 58C23.4 58.1 22.7 58.1 22 58.1C22.2 58.5 22.2 58.9 22.2 59.3ZM52.3 94.8C53.3 94 54.3 93.5 54.9 92.7C56.5 90.5 55.8 87.4 53.2 86.3C51.2 85.5 49 85.1 46.9 84.6C46.7 84.6 46.2 85 46.1 85.3C45.7 86.8 45.4 88.2 45 89.7C44.5 92 44 94.3 43.4 96.7C44.2 96.9 44.9 97 45.7 97.2C46 96 46.3 94.9 46.6 93.8C48.8 93.8 50.4 94.4 50.8 96.7C50.8 96.8 50.9 96.9 50.9 97C51.2 98.5 52.3 98.8 53.9 98.9C53.4 97.3 52.8 95.9 52.3 94.8ZM51.5 87.7C53 88.2 53.6 89.2 53.3 90.5C53 91.9 51.9 92.7 50.4 92.5C49.6 92.4 48.8 92.2 48.1 92C47.8 91.9 47.6 91.8 47.2 91.7C47.6 90.1 47.9 88.6 48.3 86.9C49.4 87.1 50.5 87.3 51.5 87.7ZM88 86.3C87.5 85.7 87.2 85.3 86.7 84.8C84.8 86.3 83 87.7 81.2 89.2C80.5 88.3 79.8 87.4 79.1 86.5C80.7 85.2 82.2 84 83.8 82.7C83.4 82.2 83 81.7 82.6 81.2C81 82.5 79.5 83.7 77.9 85C77.2 84.1 76.6 83.3 75.9 82.5C77.7 81 79.4 79.6 81.2 78.2C80.7 77.6 80.3 77.2 79.9 76.7C77.5 78.7 75.2 80.5 72.8 82.5C75.5 85.8 78.1 89 80.7 92.3C83.1 90.2 85.5 88.3 88 86.3ZM70.2 94.9C68.5 95.3 66.8 95.7 65 96.1C64.7 94.9 64.5 93.9 64.2 92.8C65.7 92.4 67.1 92.1 68.5 91.7C70.2 91.3 70.2 91.2 69.5 89.5C67.6 89.9 65.7 90.4 63.7 90.8C63.4 89.7 63.2 88.7 63 87.7C65.3 87.1 67.4 86.6 69.6 86.1C69.4 85.4 69.3 84.8 69.1 84.2C66.3 84.9 63.6 85.5 60.9 86.2C60.1 86.4 60.3 86.9 60.4 87.4C60.8 89.2 61.3 91 61.7 92.7C62.2 94.6 62.6 96.5 63.1 98.6C66.2 97.8 69.2 97.1 72.2 96.4C72 94.5 72 94.5 70.2 94.9ZM26.3 34.4C25.1 36.8 25.2 39.1 26.9 41.3C28.7 43.6 31.6 44.4 34.2 43.5C36.8 42.5 39.2 39.2 39.1 36.7C39.1 36.4 39 36 38.8 35.9C37.6 35 36.4 34.1 35.1 33.1C34.6 33.8 34.2 34.3 33.8 34.9C34.7 35.6 35.4 36.2 36.3 36.7C36.9 37.1 37 37.5 36.8 38.1C36.2 40.1 34.1 41.6 32.2 41.6C30.2 41.5 28.3 39.9 27.9 38C27.5 36.1 28.7 33.6 30.7 32.9C32.1 32.4 32.2 31.7 31.7 30.4C29 30.6 27.4 32.2 26.3 34.4ZM76.1 36.8C76.6 39.6 77.9 41.8 80.6 43C81.9 43.6 83.2 43.3 84.3 42.4C85.3 41.5 85.4 40.3 85.1 39.1C84.9 38.4 84.6 37.8 84.3 37.1C84 36.4 83.6 35.6 83.4 34.9C83.3 34.4 83.5 33.7 83.8 33.4C84.2 33.1 85 33.1 85.4 33.3C86 33.5 86.5 34 86.8 34.6C87.4 35.6 87.8 36.6 88.4 37.7C88.9 37.3 90.2 37.9 89.9 36.5C89.4 34.2 88.1 32.3 85.9 31.2C84.6 30.5 83.3 30.7 82.1 31.7C80.9 32.6 80.8 33.9 81.2 35.2C81.5 36.3 82.1 37.3 82.4 38.3C82.7 39.2 83.4 40.3 82.2 41C81 41.7 80.2 40.8 79.6 40C79 39.1 78.6 38.1 78.1 37.2C77.9 36.8 77.9 36.3 77.8 35.7C77.1 36 75.8 35.5 76.1 36.8ZM30.1 88.5C31.2 87.2 32.1 86 33.1 84.8C34.7 86.1 36.2 87.3 37.8 88.6C38.3 88 38.6 87.6 39 87C37.4 85.7 35.9 84.5 34.3 83.2C35.1 82.2 35.8 81.3 36.7 80.3C38.5 81.7 40.2 83.1 42 84.6C42.4 84 42.8 83.6 43.2 83C40.8 81 38.4 79.2 36 77.2C33.3 80.5 30.7 83.7 28.1 87.1C29 87.6 29.5 88 30.1 88.5ZM68.4 19.5C68.1 20.2 67.9 20.7 67.6 21.3C68.9 21.9 70.1 22.4 71.4 23C70 26.3 68.6 29.4 67.1 32.7C67.9 33 68.5 33.3 69.3 33.6C70.8 30.3 72.2 27.2 73.6 24C74.9 24.6 76.1 25.1 77.4 25.6C77.7 25 77.9 24.5 78.2 23.8C74.9 22.3 71.7 20.9 68.4 19.5ZM40.9 22.2C40.2 22.6 39.5 22.9 38.8 23.3C40.8 27.1 42.7 30.8 44.6 34.5C45.4 34.1 46 33.8 46.7 33.4C44.7 29.6 42.8 25.9 40.9 22.2ZM92 55.5C91.6 55.3 91.2 55.1 90.8 54.8C90.4 55.4 90.1 55.9 89.6 56.6C89.2 55.9 88.8 55.3 88.5 54.7C88.1 54.9 87.7 55.1 87.3 55.3C87.6 56 87.8 56.6 88.2 57.4C87.4 57.4 86.8 57.4 86.1 57.4C86.1 57.9 86.1 58.3 86.1 58.7C86.8 58.8 87.4 58.8 88.1 58.9C87.7 59.6 87.4 60.2 87 60.9C87.4 61.1 87.8 61.4 88.1 61.6C88.5 61 88.9 60.4 89.4 59.8C89.8 60.5 90.1 61.1 90.5 61.7C90.9 61.4 91.3 61.2 91.6 61C91.3 60.3 91 59.8 90.7 59.1C91.5 59.1 92.1 59 92.8 59C92.8 58.5 92.7 58.1 92.7 57.7C92 57.6 91.4 57.6 90.7 57.5C91.3 56.8 91.7 56.2 92 55.5Z" fill="#635D5D"/>
</svg>
