<svg width="108" height="107" viewBox="0 0 108 107" fill="none" xmlns="http://www.w3.org/2000/svg">
<path d="M50.063 3.97003C50.7142 -0.427513 57.0569 -0.427511 57.7081 3.97004C58.2663 7.73948 63.3712 8.50044 65.0197 5.0649C66.941 1.06052 73.0049 2.91393 72.3255 7.30313C71.743 11.0667 76.3986 13.2959 78.9864 10.5017C82.0007 7.24697 87.2522 10.7931 85.3071 14.7801C83.6385 18.2003 87.428 21.7018 90.7214 19.795C94.5565 17.5745 98.5278 22.5054 95.4955 25.737C92.8932 28.5103 95.4767 32.9721 99.1824 32.1176C103.498 31.1224 105.831 37.0035 101.983 39.1979C98.6811 41.0814 99.8269 46.1039 103.619 46.3744C108.038 46.6895 108.516 52.996 104.193 53.9634C100.483 54.7936 100.099 59.9301 103.645 61.3019C107.775 62.9002 106.353 69.0637 101.937 68.7199C98.1464 68.4249 96.2606 73.221 99.2463 75.5751C102.725 78.318 99.5367 83.785 95.4156 82.1597C91.8768 80.764 88.654 84.7909 90.814 87.9223C93.3314 91.5719 88.6673 95.8573 85.2036 93.0896C82.2296 90.7131 77.9588 93.6105 79.0976 97.2432C80.4254 101.479 74.7044 104.208 72.2079 100.538C70.0653 97.3881 65.1297 98.8998 65.1422 102.709C65.1567 107.153 58.8845 108.091 57.5829 103.842C56.4666 100.198 51.3045 100.198 50.1882 103.842C48.8866 108.091 42.6144 107.153 42.6289 102.709C42.6414 98.8997 37.7058 97.388 35.5632 100.538C33.0667 104.208 27.3456 101.479 28.6735 97.2432C29.8123 93.6106 25.5415 90.713 22.5675 93.0895C19.1038 95.8572 14.4398 91.5718 16.9573 87.9222C19.1173 84.7908 15.8944 80.764 12.3556 82.1597C8.2345 83.7849 5.04592 78.318 8.52471 75.5752C11.5104 73.221 9.6246 68.4249 5.83389 68.7199C1.41797 69.0637 -0.00459099 62.9002 4.12629 61.3019C7.67199 59.9301 7.28828 54.7936 3.5782 53.9634C-0.744789 52.9961 -0.266537 46.6895 4.15214 46.3744C7.94427 46.1039 9.09019 41.0814 5.7878 39.1979C1.94036 37.0035 4.27287 31.1224 8.58884 32.1176C12.2946 32.9721 14.878 28.5104 12.2758 25.7371C9.24343 22.5054 13.2146 17.5745 17.0497 19.795C20.3431 21.7018 24.1326 18.2003 22.464 14.7801C20.5189 10.7931 25.7704 7.247 28.7847 10.5018C31.3725 13.2959 36.0281 11.0668 35.4456 7.30316C34.7662 2.91395 40.8301 1.06052 42.7514 5.06491C44.3999 8.50045 49.5048 7.73948 50.063 3.97003Z" fill="#FDACAC"/>
<g clip-path="url(#clip0_1430_39)">
<path d="M31.3882 61.7168L30.016 62.2325L30.3104 60.7301L29.1877 60.5317L28.9681 61.9994L27.8503 61.0226L27.1268 61.8953L28.3194 62.8523L26.9521 63.3432L27.3364 64.3944L28.6986 63.8737L28.4142 65.3712L29.5419 65.5795L29.7515 64.1167L30.8743 65.0886L31.5928 64.206L30.3952 63.2539L31.7774 62.768L31.3882 61.7168Z" fill="#635D5D"/>
<path d="M43.2929 57.7307L53.8989 68.3227C54.0646 68.488 54.2892 68.5809 54.5234 68.5809C54.7577 68.5809 54.9823 68.488 55.148 68.3227L65.754 57.7307C65.9101 57.5634 65.9951 57.3421 65.9911 57.1134C65.987 56.8848 65.8943 56.6666 65.7323 56.5049C65.5704 56.3432 65.3519 56.2505 65.123 56.2465C64.894 56.2424 64.6724 56.3273 64.5049 56.4832L55.4073 65.5673V41.8075C55.4073 41.5734 55.3142 41.3489 55.1484 41.1833C54.9827 41.0178 54.7579 40.9248 54.5234 40.9248C54.289 40.9248 54.0642 41.0178 53.8985 41.1833C53.7327 41.3489 53.6396 41.5734 53.6396 41.8075V65.5673L44.542 56.4832C44.3745 56.3273 44.1529 56.2424 43.9239 56.2465C43.695 56.2505 43.4765 56.3432 43.3146 56.5049C43.1526 56.6666 43.0599 56.8848 43.0558 57.1134C43.0518 57.3421 43.1368 57.5634 43.2929 57.7307Z" fill="#635D5D"/>
<path d="M32.5107 78.8234L34.0776 79.9589L35.879 77.5045L39.0177 79.7804L39.9308 78.5309L36.7971 76.255L38.1045 74.4798L41.6524 77.0533L42.5705 75.8037L37.4508 72.0898L32.5107 78.8234Z" fill="#635D5D"/>
<path d="M50.9934 78.6846C50.4493 78.3039 49.8303 78.042 49.1771 77.916L45.6342 77.1475L43.8428 85.2843L45.739 85.6958L46.238 83.4298L47.8897 83.7868H47.9795L49.0523 86.3999L51.0982 86.8462L49.8257 83.8711C50.3725 83.7724 50.8777 83.5154 51.2778 83.1323C51.6812 82.725 51.9524 82.2069 52.0563 81.6448C52.1945 81.09 52.165 80.507 51.9715 79.9688C51.7779 79.4554 51.4381 79.0091 50.9934 78.6846ZM50.1651 81.2283C50.1322 81.4252 50.0556 81.6124 49.9408 81.7762C49.826 81.94 49.6759 82.0764 49.5014 82.1753C49.0639 82.3722 48.5696 82.4056 48.1092 82.2695L46.5673 81.9324L47.1911 79.0961L48.7329 79.4333C49.2079 79.4979 49.6437 79.7302 49.9605 80.0878C50.0748 80.2513 50.1511 80.438 50.1838 80.6344C50.2166 80.8307 50.2051 81.0319 50.1501 81.2233L50.1651 81.2283Z" fill="#635D5D"/>
<path d="M59.5408 84.7935L59.1466 82.9044L62.9589 82.1259L62.6545 80.6582L58.8422 81.4367L58.4779 79.6665L62.7942 78.7839L62.4799 77.2666L56.2773 78.536L57.964 86.6976L64.3212 85.3935L64.0068 83.8812L59.5408 84.7935Z" fill="#635D5D"/>
<path d="M71.3876 80.1919L70.2699 78.6151L73.4585 76.3937L72.5902 75.164L69.4066 77.3854L68.3587 75.9078L71.9665 73.3889L71.0733 72.1245L65.8887 75.7392L70.704 82.5571L76.0133 78.8531L75.1201 77.5887L71.3876 80.1919Z" fill="#635D5D"/>
<path d="M81.2426 62.2275L80.534 61.33L79.4112 62.2969L79.2066 60.8242L78.0789 61.0226L78.3534 62.525L76.9911 61.9845L76.5869 63.0307L77.9641 63.5415L76.7516 64.4786L77.4602 65.3612L78.5979 64.4042L78.7925 65.867L79.9152 65.6835L79.6508 64.1811L81.008 64.7067L81.4072 63.6654L80.04 63.1646L81.2426 62.2275Z" fill="#635D5D"/>
<path d="M29.327 51.5717L22.6255 50.4263L23.2642 46.7224L29.9707 47.8678L30.2951 45.9786L22.0367 44.5654L20.7393 52.0477L29.0026 53.4609L29.327 51.5717Z" fill="#635D5D"/>
<path d="M27.2759 38.4322C27.8671 39.4637 28.8446 40.2212 29.9955 40.5395C30.5424 40.6824 31.113 40.7128 31.6721 40.6288C32.2452 40.5411 32.7949 40.3405 33.2889 40.0387C33.8245 39.7123 34.2948 39.2904 34.6761 38.7941C35.061 38.3113 35.3521 37.7615 35.5344 37.1727C35.7038 36.6277 35.7648 36.0551 35.714 35.4869C35.6592 34.9264 35.4894 34.383 35.215 33.8902C34.9279 33.3725 34.5353 32.9199 34.0623 32.5614C33.6102 32.2005 33.0875 31.9369 32.5274 31.7876C31.9673 31.6382 31.3821 31.6062 30.8089 31.6936C30.2401 31.7803 29.6942 31.9774 29.2021 32.2738C28.1393 32.933 27.3456 33.9448 26.9616 35.1299C26.7904 35.6797 26.7294 36.2575 26.7819 36.8306C26.8335 37.3926 27.0017 37.9379 27.2759 38.4322ZM28.6432 35.4571C28.7473 35.1187 28.9168 34.8038 29.1422 34.5299C29.3592 34.2485 29.6285 34.0111 29.9356 33.8307C30.2258 33.6602 30.5488 33.5521 30.8837 33.5134C31.2191 33.4775 31.5582 33.5078 31.8817 33.6026C32.5973 33.8265 33.2071 34.3003 33.5983 34.9365C33.7731 35.2296 33.8851 35.5554 33.9276 35.8934C33.9687 36.226 33.9415 36.5633 33.8478 36.8851C33.7438 37.2235 33.5743 37.5385 33.3488 37.8124C33.1319 38.0939 32.8625 38.3312 32.5553 38.5115C32.2652 38.6822 31.9422 38.7903 31.6073 38.8289C31.2716 38.8635 30.9324 38.8315 30.6093 38.7346C29.8957 38.5122 29.2875 38.04 28.8977 37.4058C28.7229 37.1127 28.6108 36.7869 28.5684 36.4488C28.525 36.115 28.5504 35.7759 28.6432 35.4521V35.4571Z" fill="#635D5D"/>
<path d="M39.4615 28.9065C39.6096 29.3321 39.7181 29.7703 39.7858 30.2156C39.8458 30.5453 39.8305 30.8842 39.7409 31.2073C39.7013 31.3344 39.6331 31.4509 39.5414 31.548C39.4498 31.645 39.3372 31.7201 39.212 31.7676L38.9725 31.8767L40.3248 34.8864L41.9615 34.1526L41.2479 32.5808L46.6421 30.161L47.3556 31.7329L48.9923 30.999L47.6301 27.9942L46.5622 28.49L43.7629 22.3267L37.8896 24.9596L38.8876 27.3744C39.1072 27.9132 39.2985 28.4239 39.4615 28.9065ZM42.6651 24.5183L44.8107 29.2487L41.3826 30.7858C41.4179 30.6696 41.4396 30.5499 41.4475 30.4288C41.4612 30.096 41.4327 29.7628 41.3627 29.4371C41.2769 29.0218 41.1635 28.6127 41.0234 28.2123C40.8737 27.776 40.7073 27.3182 40.5244 26.8389L40.0553 25.7182L42.6651 24.5183Z" fill="#635D5D"/>
<path d="M57.8494 27.5482L58.4781 29.3778L60.5091 29.5018L57.2905 20.9584L55.3794 20.8394L51.1279 28.9216L53.1239 29.0456L53.9822 27.3101L57.8494 27.5482ZM56.2027 22.7831L57.3305 26.0457L54.6708 25.8821L56.2027 22.7831Z" fill="#635D5D"/>
<path d="M68.1685 30.6619C68.7359 31.0065 69.3702 31.2279 70.0298 31.3114C70.5824 31.3795 71.1428 31.2847 71.6416 31.0387C72.1391 30.7604 72.5524 30.3546 72.8385 29.8636C73.1246 29.3727 73.273 28.8144 73.2683 28.2471C73.2353 27.6941 73.0392 27.1629 72.7044 26.7199C72.3019 26.1933 71.7917 25.7573 71.2074 25.4406L68.0687 23.6357L63.8672 30.8453L65.5488 31.8123L66.7065 29.8289L68.1685 30.6619ZM68.957 25.9613L70.3242 26.7497C70.7561 26.9542 71.0996 27.3062 71.2923 27.7413C71.3542 27.9316 71.3725 28.1333 71.3457 28.3315C71.3189 28.5297 71.2478 28.7194 71.1376 28.8867C71.0467 29.0634 70.917 29.2176 70.758 29.3377C70.5991 29.4579 70.4151 29.541 70.2194 29.5809C69.7425 29.6337 69.2625 29.514 68.8671 29.2438L67.4999 28.4554L68.957 25.9613Z" fill="#635D5D"/>
<path d="M73.9376 38.675L76.717 36.766L77.4755 37.8568L75.9436 41.5509L77.1961 43.3508L79.1522 38.5957L84.0423 38.5411L82.8747 36.8701L78.8378 36.9891L78.0444 35.8487L80.8288 33.9347L79.731 32.3579L72.8398 37.0982L73.9376 38.675Z" fill="#635D5D"/>
<path d="M78.6326 48.3441L84.6006 51.4977L79.2065 52.2811L79.4809 54.1653L87.7793 52.9654L87.5148 51.1754L81.5368 48.0218L86.9409 47.2384L86.6615 45.3442L78.3682 46.5442L78.6326 48.3441Z" fill="#635D5D"/>
</g>
<defs>
<clipPath id="clip0_1430_39">
<rect width="67.0403" height="66.0219" fill="white" transform="translate(20.7393 20.8394)"/>
</clipPath>
</defs>
</svg>
