<svg width="41" height="32" viewBox="0 0 41 32" fill="none" xmlns="http://www.w3.org/2000/svg">
<path d="M6.4 0H34.1333C35.8307 0 37.4586 0.674284 38.6588 1.87452C39.859 3.07475 40.5333 4.70261 40.5333 6.4V25.6C40.5333 27.2974 39.859 28.9253 38.6588 30.1255C37.4586 31.3257 35.8307 32 34.1333 32H6.4C4.70261 32 3.07475 31.3257 1.87452 30.1255C0.674284 28.9253 0 27.2974 0 25.6V6.4C0 4.70261 0.674284 3.07475 1.87452 1.87452C3.07475 0.674284 4.70261 0 6.4 0ZM6.4 2.13333C5.26841 2.13333 4.18317 2.58286 3.38301 3.38301C2.58286 4.18317 2.13333 5.26841 2.13333 6.4V8.53333H38.4V6.4C38.4 5.26841 37.9505 4.18317 37.1503 3.38301C36.3502 2.58286 35.2649 2.13333 34.1333 2.13333H6.4ZM2.13333 25.6C2.13333 26.7316 2.58286 27.8168 3.38301 28.617C4.18317 29.4171 5.26841 29.8667 6.4 29.8667H34.1333C35.2649 29.8667 36.3502 29.4171 37.1503 28.617C37.9505 27.8168 38.4 26.7316 38.4 25.6V14.9333H2.13333V25.6ZM6.4 23.4667H14.9333V25.6H6.4V23.4667ZM19.2 23.4667H25.6V25.6H19.2V23.4667ZM2.13333 10.6667V12.8H38.4V10.6667H2.13333Z" fill="#635D5D"/>
</svg>
